<mxfile host="app.diagrams.net" modified="2022-05-30T10:03:51.331Z" agent="5.0 (Macintosh; Intel Mac OS X 10_15_7) AppleWebKit/537.36 (KHTML, like Gecko) Chrome/101.0.4951.64 Safari/537.36" etag="8HnPryhlZzU7U2SIugzv" version="18.1.3" type="github">
  <diagram id="g5lbpaCZjV17Vw1yhlOT" name="Page-1">
    <mxGraphModel dx="983" dy="530" grid="1" gridSize="10" guides="1" tooltips="1" connect="1" arrows="1" fold="1" page="1" pageScale="1" pageWidth="827" pageHeight="1169" math="0" shadow="0">
      <root>
        <mxCell id="0" />
        <mxCell id="1" parent="0" visible="0" />
        <mxCell id="15gxBGkXHDmCzy9u11-4-1" value="New" parent="0" visible="0" />
        <mxCell id="15gxBGkXHDmCzy9u11-4-44" value="" style="endArrow=classic;html=1;rounded=0;fontSize=9;" edge="1" parent="15gxBGkXHDmCzy9u11-4-1">
          <mxGeometry width="50" height="50" relative="1" as="geometry">
            <mxPoint x="438.5" y="385" as="sourcePoint" />
            <mxPoint x="438" y="665" as="targetPoint" />
          </mxGeometry>
        </mxCell>
        <mxCell id="15gxBGkXHDmCzy9u11-4-40" value="" style="endArrow=classic;html=1;rounded=0;fontSize=9;" edge="1" parent="15gxBGkXHDmCzy9u11-4-1">
          <mxGeometry width="50" height="50" relative="1" as="geometry">
            <mxPoint x="198.5" y="385" as="sourcePoint" />
            <mxPoint x="198" y="665" as="targetPoint" />
          </mxGeometry>
        </mxCell>
        <mxCell id="15gxBGkXHDmCzy9u11-4-2" value="" style="sketch=0;points=[[0,0,0],[0.25,0,0],[0.5,0,0],[0.75,0,0],[1,0,0],[0,1,0],[0.25,1,0],[0.5,1,0],[0.75,1,0],[1,1,0],[0,0.25,0],[0,0.5,0],[0,0.75,0],[1,0.25,0],[1,0.5,0],[1,0.75,0]];outlineConnect=0;fontColor=#232F3E;gradientColor=#4D72F3;gradientDirection=north;fillColor=#3334B9;strokeColor=#ffffff;dashed=0;verticalLabelPosition=bottom;verticalAlign=top;align=center;html=1;fontSize=12;fontStyle=0;aspect=fixed;shape=mxgraph.aws4.resourceIcon;resIcon=mxgraph.aws4.database;" vertex="1" parent="15gxBGkXHDmCzy9u11-4-1">
          <mxGeometry x="160" y="715" width="78" height="78" as="geometry" />
        </mxCell>
        <mxCell id="15gxBGkXHDmCzy9u11-4-3" value="" style="sketch=0;points=[[0,0,0],[0.25,0,0],[0.5,0,0],[0.75,0,0],[1,0,0],[0,1,0],[0.25,1,0],[0.5,1,0],[0.75,1,0],[1,1,0],[0,0.25,0],[0,0.5,0],[0,0.75,0],[1,0.25,0],[1,0.5,0],[1,0.75,0]];outlineConnect=0;fontColor=#232F3E;gradientColor=#4D72F3;gradientDirection=north;fillColor=#3334B9;strokeColor=#ffffff;dashed=0;verticalLabelPosition=bottom;verticalAlign=top;align=center;html=1;fontSize=12;fontStyle=0;aspect=fixed;shape=mxgraph.aws4.resourceIcon;resIcon=mxgraph.aws4.database;" vertex="1" parent="15gxBGkXHDmCzy9u11-4-1">
          <mxGeometry x="400" y="715" width="78" height="78" as="geometry" />
        </mxCell>
        <mxCell id="15gxBGkXHDmCzy9u11-4-4" value="" style="sketch=0;points=[[0,0,0],[0.25,0,0],[0.5,0,0],[0.75,0,0],[1,0,0],[0,1,0],[0.25,1,0],[0.5,1,0],[0.75,1,0],[1,1,0],[0,0.25,0],[0,0.5,0],[0,0.75,0],[1,0.25,0],[1,0.5,0],[1,0.75,0]];outlineConnect=0;fontColor=#232F3E;gradientColor=#4D72F3;gradientDirection=north;fillColor=#3334B9;strokeColor=#ffffff;dashed=0;verticalLabelPosition=bottom;verticalAlign=top;align=center;html=1;fontSize=12;fontStyle=0;aspect=fixed;shape=mxgraph.aws4.resourceIcon;resIcon=mxgraph.aws4.database;" vertex="1" parent="15gxBGkXHDmCzy9u11-4-1">
          <mxGeometry x="280" y="715" width="78" height="78" as="geometry" />
        </mxCell>
        <mxCell id="15gxBGkXHDmCzy9u11-4-5" value="" style="sketch=0;points=[[0,0,0],[0.25,0,0],[0.5,0,0],[0.75,0,0],[1,0,0],[0,1,0],[0.25,1,0],[0.5,1,0],[0.75,1,0],[1,1,0],[0,0.25,0],[0,0.5,0],[0,0.75,0],[1,0.25,0],[1,0.5,0],[1,0.75,0]];outlineConnect=0;fontColor=#232F3E;gradientColor=#4D72F3;gradientDirection=north;fillColor=#3334B9;strokeColor=#ffffff;dashed=0;verticalLabelPosition=bottom;verticalAlign=top;align=center;html=1;fontSize=12;fontStyle=0;aspect=fixed;shape=mxgraph.aws4.resourceIcon;resIcon=mxgraph.aws4.database;" vertex="1" parent="15gxBGkXHDmCzy9u11-4-1">
          <mxGeometry x="520" y="715" width="78" height="78" as="geometry" />
        </mxCell>
        <mxCell id="15gxBGkXHDmCzy9u11-4-6" value="" style="endArrow=none;html=1;rounded=0;" edge="1" parent="15gxBGkXHDmCzy9u11-4-1">
          <mxGeometry width="50" height="50" relative="1" as="geometry">
            <mxPoint x="200" y="855" as="sourcePoint" />
            <mxPoint x="200" y="795" as="targetPoint" />
          </mxGeometry>
        </mxCell>
        <mxCell id="15gxBGkXHDmCzy9u11-4-10" value="" style="group" vertex="1" connectable="0" parent="15gxBGkXHDmCzy9u11-4-1">
          <mxGeometry x="139" y="485" width="120" height="60" as="geometry" />
        </mxCell>
        <mxCell id="15gxBGkXHDmCzy9u11-4-7" value="" style="rounded=1;whiteSpace=wrap;html=1;" vertex="1" parent="15gxBGkXHDmCzy9u11-4-10">
          <mxGeometry width="120" height="60" as="geometry" />
        </mxCell>
        <mxCell id="15gxBGkXHDmCzy9u11-4-8" value="Stripe" style="rounded=1;whiteSpace=wrap;html=1;" vertex="1" parent="15gxBGkXHDmCzy9u11-4-10">
          <mxGeometry x="10" y="10" width="51" height="40" as="geometry" />
        </mxCell>
        <mxCell id="15gxBGkXHDmCzy9u11-4-9" value="Shopify" style="rounded=1;whiteSpace=wrap;html=1;" vertex="1" parent="15gxBGkXHDmCzy9u11-4-10">
          <mxGeometry x="61" y="10" width="51" height="40" as="geometry" />
        </mxCell>
        <mxCell id="15gxBGkXHDmCzy9u11-4-11" value="" style="group" vertex="1" connectable="0" parent="15gxBGkXHDmCzy9u11-4-1">
          <mxGeometry x="380" y="485" width="119" height="59.5" as="geometry" />
        </mxCell>
        <mxCell id="15gxBGkXHDmCzy9u11-4-12" value="" style="rounded=1;whiteSpace=wrap;html=1;" vertex="1" parent="15gxBGkXHDmCzy9u11-4-11">
          <mxGeometry width="119" height="59.5" as="geometry" />
        </mxCell>
        <mxCell id="15gxBGkXHDmCzy9u11-4-13" value="Stripe" style="rounded=1;whiteSpace=wrap;html=1;" vertex="1" parent="15gxBGkXHDmCzy9u11-4-11">
          <mxGeometry x="9.92" y="9.92" width="50.08" height="39.28" as="geometry" />
        </mxCell>
        <mxCell id="15gxBGkXHDmCzy9u11-4-14" value="AWS" style="rounded=1;whiteSpace=wrap;html=1;" vertex="1" parent="15gxBGkXHDmCzy9u11-4-11">
          <mxGeometry x="60.49166666666667" y="9.916666666666668" width="50.575" height="39.66666666666667" as="geometry" />
        </mxCell>
        <mxCell id="15gxBGkXHDmCzy9u11-4-15" value="" style="endArrow=none;html=1;rounded=0;" edge="1" parent="15gxBGkXHDmCzy9u11-4-1">
          <mxGeometry width="50" height="50" relative="1" as="geometry">
            <mxPoint x="318.5" y="855" as="sourcePoint" />
            <mxPoint x="318.5" y="795" as="targetPoint" />
          </mxGeometry>
        </mxCell>
        <mxCell id="15gxBGkXHDmCzy9u11-4-16" value="" style="endArrow=none;html=1;rounded=0;" edge="1" parent="15gxBGkXHDmCzy9u11-4-1">
          <mxGeometry width="50" height="50" relative="1" as="geometry">
            <mxPoint x="440" y="855" as="sourcePoint" />
            <mxPoint x="440" y="795" as="targetPoint" />
          </mxGeometry>
        </mxCell>
        <mxCell id="15gxBGkXHDmCzy9u11-4-17" value="" style="endArrow=none;html=1;rounded=0;" edge="1" parent="15gxBGkXHDmCzy9u11-4-1">
          <mxGeometry width="50" height="50" relative="1" as="geometry">
            <mxPoint x="558.5" y="855" as="sourcePoint" />
            <mxPoint x="558.5" y="795" as="targetPoint" />
          </mxGeometry>
        </mxCell>
        <mxCell id="15gxBGkXHDmCzy9u11-4-22" value="" style="sketch=0;points=[[0,0,0],[0.25,0,0],[0.5,0,0],[0.75,0,0],[1,0,0],[0,1,0],[0.25,1,0],[0.5,1,0],[0.75,1,0],[1,1,0],[0,0.25,0],[0,0.5,0],[0,0.75,0],[1,0.25,0],[1,0.5,0],[1,0.75,0]];outlineConnect=0;fontColor=#232F3E;gradientColor=#4D72F3;gradientDirection=north;fillColor=#3334B9;strokeColor=#ffffff;dashed=0;verticalLabelPosition=bottom;verticalAlign=top;align=center;html=1;fontSize=12;fontStyle=0;aspect=fixed;shape=mxgraph.aws4.resourceIcon;resIcon=mxgraph.aws4.aurora;" vertex="1" parent="15gxBGkXHDmCzy9u11-4-1">
          <mxGeometry x="630" y="805" width="115" height="115" as="geometry" />
        </mxCell>
        <mxCell id="15gxBGkXHDmCzy9u11-4-24" value="" style="shape=actor;whiteSpace=wrap;html=1;" vertex="1" parent="15gxBGkXHDmCzy9u11-4-1">
          <mxGeometry x="510" y="1010" width="40" height="60" as="geometry" />
        </mxCell>
        <mxCell id="15gxBGkXHDmCzy9u11-4-25" value="" style="shape=actor;whiteSpace=wrap;html=1;" vertex="1" parent="15gxBGkXHDmCzy9u11-4-1">
          <mxGeometry x="179" y="305" width="40" height="60" as="geometry" />
        </mxCell>
        <mxCell id="15gxBGkXHDmCzy9u11-4-26" value="" style="shape=actor;whiteSpace=wrap;html=1;" vertex="1" parent="15gxBGkXHDmCzy9u11-4-1">
          <mxGeometry x="300" y="305" width="40" height="60" as="geometry" />
        </mxCell>
        <mxCell id="15gxBGkXHDmCzy9u11-4-27" value="" style="shape=actor;whiteSpace=wrap;html=1;" vertex="1" parent="15gxBGkXHDmCzy9u11-4-1">
          <mxGeometry x="419.5" y="305" width="40" height="60" as="geometry" />
        </mxCell>
        <mxCell id="15gxBGkXHDmCzy9u11-4-29" value="&lt;ul&gt;&lt;li&gt;&lt;br&gt;&lt;/li&gt;&lt;/ul&gt;" style="text;html=1;align=center;verticalAlign=middle;resizable=0;points=[];autosize=1;strokeColor=none;fillColor=none;" vertex="1" parent="15gxBGkXHDmCzy9u11-4-1">
          <mxGeometry x="159" y="425" width="60" height="40" as="geometry" />
        </mxCell>
        <mxCell id="15gxBGkXHDmCzy9u11-4-30" value="&lt;ul&gt;&lt;li&gt;物販DB&lt;/li&gt;&lt;/ul&gt;" style="text;html=1;align=center;verticalAlign=middle;resizable=0;points=[];autosize=1;strokeColor=none;fillColor=none;" vertex="1" parent="15gxBGkXHDmCzy9u11-4-1">
          <mxGeometry x="139" y="675" width="100" height="40" as="geometry" />
        </mxCell>
        <mxCell id="15gxBGkXHDmCzy9u11-4-31" value="&lt;ul&gt;&lt;li&gt;振込DB&lt;/li&gt;&lt;/ul&gt;" style="text;html=1;align=center;verticalAlign=middle;resizable=0;points=[];autosize=1;strokeColor=none;fillColor=none;" vertex="1" parent="15gxBGkXHDmCzy9u11-4-1">
          <mxGeometry x="258" y="675" width="100" height="40" as="geometry" />
        </mxCell>
        <mxCell id="15gxBGkXHDmCzy9u11-4-32" value="&lt;ul&gt;&lt;li&gt;電子版DB&lt;/li&gt;&lt;/ul&gt;" style="text;html=1;align=center;verticalAlign=middle;resizable=0;points=[];autosize=1;strokeColor=none;fillColor=none;" vertex="1" parent="15gxBGkXHDmCzy9u11-4-1">
          <mxGeometry x="373" y="675" width="110" height="40" as="geometry" />
        </mxCell>
        <mxCell id="15gxBGkXHDmCzy9u11-4-34" value="&lt;ul&gt;&lt;li&gt;パブリスDB&lt;/li&gt;&lt;/ul&gt;" style="text;html=1;align=center;verticalAlign=middle;resizable=0;points=[];autosize=1;strokeColor=none;fillColor=none;" vertex="1" parent="15gxBGkXHDmCzy9u11-4-1">
          <mxGeometry x="485" y="675" width="120" height="40" as="geometry" />
        </mxCell>
        <mxCell id="15gxBGkXHDmCzy9u11-4-41" value="新オンラインショップ&lt;br&gt;デジタルオンライン" style="rounded=1;whiteSpace=wrap;html=1;labelBackgroundColor=none;fontSize=9;" vertex="1" parent="15gxBGkXHDmCzy9u11-4-1">
          <mxGeometry x="139" y="395" width="120" height="60" as="geometry" />
        </mxCell>
        <mxCell id="15gxBGkXHDmCzy9u11-4-36" value="" style="shape=image;verticalLabelPosition=bottom;labelBackgroundColor=default;verticalAlign=top;aspect=fixed;imageAspect=0;image=data:image/png,iVBORw0KGgoAAAANSUhEUgAAAZ8AAABRCAIAAACCFTyzAAAYfmlDQ1BJQ0MgUHJvZmlsZQAAWIWVeQdUFEvTds/mXfIuOecMknPOOWcQgSUtSViigCKIKEERREBQVESiiooCKoIgBhQleEFERBAJKgqooBLkG4Le+973P/93vj6np5+prq7qru7q7poBgGvENzIyDMEIQHhEDNXB1IDfzd2DHzsFIIACNEANSPmSoyP17eysAJx+l/+ZlgZhbjg9l9mQ9d/1/99E9A+IJgMAecHYzz+aHA7juwCgTpEjqTEAYDboQvExkRt4P4yZqXAHYVywgYO2cPUG9tvCLZs8Tg6GMO4FAEfr60sNAoB+BKbzx5GDYDn0q3AdMcKfEgEACzxyjA452NcfAC47mEc6PHz3Bk6GsTjMHwnjChir+f1DZtB/yPf7I9/XN+gP3hrXZsIZUaIjw3z3/B9N87+n8LDY3zpE4UwbTDVz2Bg/bMOh0N2WG5gWxrMRfja2G7aG8Q+K/5bdAUAQgmPNnLf4EdzkaEPYfoAVxnL+vkaWMOaGsUlEmI3VNt0vkGJiDmPYZogESoy5E4zZYXw4INrYcZvnLHW3w7YuRGMg1VB/m/7Il7qpd0PXaGyos/62/C/BAebb8pH0icFOrjAmwFg4juJiA2N6GMtGhzpabvNoJQYb2vzmocY6bPRfGMYOARGmBlvykXGBVBOHbf6s8Ojf40WeDaaY22zjazHBTmZb9kF2kn03+w+PBdkbEKHv/FtOQLSb1e+x+AcYGW+NHTkTEOHsuC3nR2SMgcNWWxQhMsxumx8lGBBmukEXhLFSdJzjdluUSwy8OLfkowIjY+yctvqJSgzxtbDb6g/qGLAChsAI8INYOPuB3SAEUJ7NNs3Cb1s1JsAXUEEQCAAy25TfLVw3ayLgpyNIBJ9gFACi/7Qz2KwNAHEwfe0PdespAwI3a+M2W4SCKRiHA0sQBr/HbraK+KPNBbyDKZT/0u4LZzLc3zA4b9T/v+m/qX9T9GGK1TYl9rdGfobfnBhjjBHGDGOCkUBxonRQmigr+KkHZwWUGkr99zj+5kdPofvQb9ED6DH0y12UNOq/emkNxmD5Jtu28PunLVCisExllAFKG5YOS0axojiBDEoJ1qOP0oU1K8NUw+1+b1iF/1+y/2ME/5iNbT68HB6BZ8Pr4cX/3ZJekl75j5QNW//TPlt99ftjb8M/Nf/Wb/gP6/vDpeW/OZGHkQ3Ih8h2ZBeyBdkE+JFtyGZkN/LOBv6zut5trq7f2hw2+xMKy6H8lz7fbZ0bloyWq5N7L7e6VRcTkBCz4XiGuyP3UClBwTH8+vDpEMBvHkGWleZXkFNQAGDjrNnavr46bJ4hEGvP3zTyQQBU5wHAL/9NC/8KwBXY9/mt/6aJeMPuhwGgeoocS43boqE2Hmh4l2CAPY0D8AIhIA6PRwGoAE2gB4yBBbAFTsAdeMNWDobXORXEg2SQCjJANjgGToAScAacB9XgErgGmkALaAcPwBPQCwbAK3j1TIKPYB4sgRUIgrAQHUSCOCA+SASSghQgNUgHMoasIAfIHfKBgqAIKBZKhg5A2VA+VAKdg2qgq9BNqB3qgvqgl9A49B76Ai0jkAhaBDOCByGK2IFQQ+gjLBFOiJ2IIEQUIhGRjjiKKEaUIy4iGhHtiCeIAcQY4iNiEQmQNEhWpABSBqmGNETaIj2QgUgqch8yC1mILEdeRt6C5/k5cgw5i/yJwqBIKH6UDLyCzVDOKDIqCrUPlYMqQVWjGlGdqOeocdQ86heaDs2NlkJroM3RbuggdDw6A12IrkTfQN+HfWkSvYTBYFgxYhhV2BfdMSGYJEwO5jSmHnMX04eZwCxisVgOrBRWG2uL9cXGYDOwJ7EXsW3Yfuwk9geOBseHU8CZ4DxwEbg0XCGuFteK68dN41bwjHgRvAbeFu+P34PPxVfgb+F78JP4FQITQYygTXAihBBSCcWEy4T7hBHCVxoaGkEadRp7GgrNfppimis0j2jGaX7SEmklaQ1pvWhjaY/SVtHepX1J+5WOjk6UTo/Ogy6G7ihdDd09ulG6H/Qkell6c3p/+hT6UvpG+n76zwx4BhEGfQZvhkSGQoYGhh6GWUY8oyijIaMv4z7GUsabjC8YF5lITPJMtkzhTDlMtUxdTDNELFGUaEz0J6YTzxPvESdISJIQyZBEJh0gVZDukyaZMcxizObMIczZzJeYnzHPsxBZlFhcWBJYSlnusIyxIllFWc1Zw1hzWa+xDrIus/Gw6bMFsGWyXWbrZ/vOzsWuxx7AnsVezz7AvszBz2HMEcqRx9HE8ZoTxSnJac8Zz1nGeZ9zlouZS5OLzJXFdY1rmBvBLcntwJ3EfZ67m3uRh5fHlCeS5yTPPZ5ZXlZePd4Q3gLeVt73fCQ+HT4KXwFfG98HfhZ+ff4w/mL+Tv55AW4BM4FYgXMCzwRWBMUEnQXTBOsFXwsRhNSEAoUKhDqE5oX5hK2Fk4XrhIdF8CJqIsEiRSIPRb6Liom6ih4SbRKdEWMXMxdLFKsTGxGnE9cVjxIvF/9LAiOhJhEqcVqiVxIhqSwZLFkq2SOFkFKRokidluqTRkurS0dIl0u/kKGV0ZeJk6mTGZdllbWSTZNtkv28Q3iHx468HQ93/JJTlguTq5B7JU+Ut5BPk78l/0VBUoGsUKrwlyKdooliimKz4oKSlFKAUpnSkDJJ2Vr5kHKH8pqKqgpV5bLKe1VhVR/VU6ov1JjV7NRy1B6po9UN1FPUW9R/aqhoxGhc05jTlNEM1azVnNES0wrQqtCa0BbU9tU+pz2mw6/jo3NWZ0xXQNdXt1z3rZ6Qnr9epd60voR+iP5F/c8GcgZUgxsG3w01DPca3jVCGpkaZRk9MyYaOxuXGI+aCJoEmdSZzJsqmyaZ3jVDm1ma5Zm9MOcxJ5vXmM9bqFrstei0pLV0tCyxfGslaUW1umWNsLawPm49YiNiE2HTZAtszW2P2762E7OLsrttj7G3sy+1n3KQd0h2eOhIctzlWOu45GTglOv0ylncOda5w4XBxculxuW7q5FrvuuY2w63vW5P3DndKe7NHlgPF49Kj0VPY88TnpNeyl4ZXoM7xXYm7Ozy5vQO876zi2GX764GH7SPq0+tz6qvrW+576Kfud8pv3myIbmI/NFfz7/A/32AdkB+wHSgdmB+4EyQdtDxoPfBusGFwbMUQ0oJZSHELORMyPdQ29Cq0PUw17D6cFy4T/jNCGJEaETnbt7dCbv7IqUiMyLHojSiTkTNUy2pldFQ9M7o5hhm+FLfHSseezB2PE4nrjTuR7xLfEMCU0JEQvceyT2Ze6YTTRIvJKGSyEkdyQLJqcnje/X3ntsH7fPb15EilJKeMrnfdH91KiE1NPVpmlxaftq3A64HbqXzpO9PnzhoerAugz6DmvHikOahM4dRhymHn2UqZp7M/JXln/U4Wy67MHs1h5zz+Ij8keIj60cDjz7LVcktO4Y5FnFsME83rzqfKT8xf+K49fHGAv6CrIJvJ3ad6CpUKjxTRCiKLRortipuPil88tjJ1ZLgkoFSg9L6U9ynMk99P+1/ur9Mr+zyGZ4z2WeWz1LODp0zPddYLlpeeB5zPu78VIVLxcMLahdqKjkrsyvXqiKqxqodqjtrVGtqarlrc+sQdbF17y96Xey9ZHSp+bLM5XP1rPXZV8CV2CsfrvpcHbxmea2jQa3h8nWR66dukG5kNUKNexrnm4Kbxprdm/tuWtzsuKV568Zt2dtVLQItpXdY7uS2ElrTW9fbEtsW70benW0Pap/o2NXx6p7bvb867Tuf3be8/+iByYN7D/Uftj3SftTSpdF187Ha46YnKk8au5W7bzxVfnrjmcqzxh7VnuZe9d5bfVp9rf26/e3PjZ4/+Mv8rycDNgN9g86DQy+8XowN+Q/NvAx7uTAcN7zyav8IeiTrNePrwlHu0fI3Em/qx1TG7owbjXe/dXz7aoI88fFd9LvVyfQpuqnCab7pmhmFmZb3Ju97P3h+mPwY+XFlNuMT06dTn8U/X5/Tm+ued5ufXKAurH/J+crxteqb0reORbvF0aXwpZXvWT84flT/VPv5cNl1eXolfhW7WrwmsXbrl+WvkfXw9fVIX6rv5lUACWdEYCAAX6oAoHMHgATHbQTPrVhwOyHhywcCLl0gWegjIh0+UXtQGWgTDBLzBFuMi8BbESRosDSztP10TfRVDJWM9UzNxA7SE+ZeliHWN2wz7B85FjiXudZ4ELxYPgI/nQBRkCjEKswuwibKLsYtziPBL8kvJSgtLCMqK7ZDWk5OXlFBRVFDSVfZWMVc1VzNRN1Ew0TTUEtfW0tHQ1dJT1Zf1IDHkNmIYLRu/NVkyvSlWbd5i0W15XGrFOsQGzdbYztlezEHLkdGJ5wz0gVyRbih3PEejJ4cXsI7Zbwldgn78Ply+rGQSf7EAFIgaxBXsCBFOkQ11CTMJZwSkbw7P7Ii6iy1ODovJic2My4r/mhC8Z7qxNakV3vBPumUXftPpr46IJi++2D7IcxhoUyFLINsx5zAI4lH83Krj93NG85fLGA6IVNoURRYfOBkWcnN0v5T704vnsGe5TgnWa513rbC70JM5cGqwurqmpu1j+uGL3649LMed4Xtqvg13Qb361E3MhtPN9U3t93sutVzu7flyZ2O1qttpXdT2nd1aNwj3pvqvHm/9sGph9mPErr8Hps/ke2m7559ev/ZqZ7IXoM+Ut9E/7XnqX/ZD4gMogbfv+geqn+ZPxzzymVE7TXn69XR0TftYxfGM9/unnB+pzUpDK+ypem/Zq6/L/qQ8jFslvyJ/DlyLnv+xsLcV71v55ZI34t/Si0/W035pbG+/o/5V0DOoPLRlhgWzGtsAy4HH0QwopGkZaBdpZumH2IYYnzD9I74ifSVeYlljXWFbY39F8ca5xLXV+45nineEb5+/vsCNwUrhbKFw0SsRCXF8GIfxLskaiSzpCjSljIysnSyczv65K7LFykkK5KV7JUNVBRUBdSIauvqnzVGNLu0GrXLdXJ04/V89C0MFAw5jRBG742fmVwxzTOLNneyULFks1yxemN9z6bWNs8uyT7QwdFR30neWcCF5Ip1XXb76D7i0e15x6t+51nv47sO+ST7Uv0oZF9/jwCnQPsgm2BLimWIWahmmGy4QATLbppIRORq1A/qz+i1WHQcMV4oQWOPU2J0UmFyy96pFJr9fKkyadoHbNL9DsZnHDlUebgtczjrew7zEYWj9rkRx47k1eU/Ov6uYL2Qs0i52O5kaMnB0jOnmk/3ls2c+XWOuVzivHaF3QVyZWzVoepieJ/rrpu7RLysWO94Jepq7rW6hs7rIze+NGGaOW5K3tK4bdHidiewNaYt5W5q+4GOg/cyOg/dP/wg62HOoyNdRx4feXKkO+dp9rPMnkO96X2p/Xufx/0VNbB7MPJFzFDSy4PDx1+VjzS8fjD68s2ncfCWOCH4Tn5SZ8p82m/m7PtPH5Vnkz61fv41r7kQ9+Xy13eL7EuW31N+NPycXuFedVjL+tW5Pf/GCH3kDuRnVDv6EMYRK45dwN3EZxAcaLhpRmnP04XTqzMgGNoZ05ksiAzEXtIxZlsWBpanrFlsJuwQezNHBKcQ5xBXNrcO9yeeUl4z3m98Zfxm/J8FCgQ1BEeE9grzC7eKeIusihaLKYl1iweIr0ocl5SSbJNylJqSTpURkRmSzdlhsOObXJW8pwKdQptipJKAUr9ymoqCyrhqrpq22if1Ug1zjUXN81r2Wr+063TcdbG6N/TI+kT9uwaRhvyGvUZpxkrG0yYlprbwveO2eZSFlMU7yzIrD2tW6+c2+bYOdiS7QfuTDt6Owo4fnK46J7oYuzK4DrtVukd7GHjSeg56ndkZ7K3gvbLrvk+er5efhN8SudP/eIBvoGIQKmgwuJaSEuIUKh2GDnsTfiuieHd8pGuUBpU3GhU9GzMQ2x5XH1+WkLsnNTE+KTTZf+/OfW4pTvsdUu3T7A84pDsddM/YeSjgcGhmdFZK9uGc/CNlR2tyG4/dy+vLHz3++QSqUKLIq/jYyfslK6dkT/uVnTjz+OxqucL5gIqSCz1VqGqtmvja+rqPlyQvh9TXXpm7ptKw/3p3I0dTWHPnLb7bKS1vW63aWtrlOy52St2/+tDg0fDjhG6+p709R/qcnosOgMGPQ++GP7wGb0TGd03UTqFnEj+CTxXz5K+6S2o/nVeLN+Z/65vgRsKoAHDiEAAb33kcagDIuQiA2B4A2ODY044OACd1gBAwBdBiB4AstP+cHxtfTQmABHiAJFADZnB8GQbHlEWgHnSBCbAGsUPKkCMUDZ2AmqHXcMwnjXBBpCLqEaNIBqQBMh55CTkFR2leqFLUKzgS80FfQH/CqGBSMc+wPNhwbBuOhKPg2vGc+Fh8P0GRUERYpSHTPKVVp62mY6fLoUfQJ9F/Z4hlWGJMZIKYsoisxAqSGqmXOYQFy3KB1Zh1iu0wuxR7L0cMJwdnK5c/Nw33NR4PXiTvJT5POCLoE8gVtBViEnouXCTiKSogOiV2UTxaQkMSkuySypP2hFfnvGz/jha5Svl8hX2KFCVHZQ0VPlVIdUytRb1AI0RTW4tea0S7RidGV1cPp9en32Bw3bDJ6JZxq8k90y6zHvNBi1HLaasF6xVbnB2rvaiDmqOVE9k52aXYtdVtxoPkqe8VubPce8CH4Kvvl0Ru9v8eqBaUFNweQgh1DqsIX9xtFlkWNRetFZMdOxqvlHBsz0KSa/KDfdopramWaRPpmRnah0FmX/aVI6dy8/PMjiML7hfmFQeUGJ6SLhM8K1KuVGFTGVVdWvvkEqhXvWrT4H4juCn55onb1+70ty118HaaPYh5dPbxs+61Hpm+nc+PDtwdIg2TRy6Nzo5zT6hN6k3Lv6f/8GL26Ocdc+0LZl86vyksliwt/7D/eWF5YVVjLeXX3c39Y2v+ifD8SwBVYAJcQQjYBwpAHegEo+AHRILkIBsoAjoGNUAvEQAhAUf5aYiriLdwHG+FTEe2IVdQ2qgDqG40OzoQ3YjBY7wxjVhGbBj2CU4al4tbxHvhHxBkCUU0SJoomnFaZ9rHdIZ0rfRa9HfgKPYRoz3jKBynrhMLSLKkp8wRcOTZzOrLRsPWzB7IwcrxkHMPlzTXOHcRjy0vjreDbz+/gQBG4KlgoZCvsKzwqki3aJlYlLixBJfEF8nHUuelU2Q8ZTV3SMixy+PlVxXmFCeUXig/VrmtelGtRP2QBlXTU8tQW1KHUWdRd1ivVb/e4Kphg1GT8W2TNtNOs8fmvRYvLN9YTVsv2KzY4exZHcQc1Z2snf1d9rqWuN10H/ZY8xLcaeEds+usT48fRFbxjwioCZwKFqWEhFwNXQ43jSjcPROlRd0b3RaLirOKL0qYSlRPOpo8vc84pTqVPm3PgWl4P+k9bJH5MNssp/uoQ+5YXspx3oK7hYHF9CebS/1Pk8oenN1brnL+y4WrVbE1WnWYiwOXL1xJvuZ1XaWRvmni5vXbB+7YtLHfHe+o6aQ+0HqE7Rp8UvN0f49Xn85zkQGmwUdDzi8nXyW+Zh69NuY0vjpRPek+zTDT9eHwrOVnxrkXC2e/hiyqfEf86FkuXQ36pbg9/0iAAbSbO4A4UIFXgBsIBwfBGXAbDMP+LwhZQLFQBTSIoEEYwZ7fgcQh7ZFnkF9QFqgqNB5NRb/BOMHeboMdwJFxP/GFBHXCJM1JWj3aEboken76LoZ4RknGCaYzRD+SBOk780OWMtYkNk92PQ4pTnYuGm4E9yrPMu8qPxDAwjdQHmFZEW1RB7Eg8f0SJyVvwHH3vCzjDgU5V/l9ChWKPUorKhKq7mr56v2azFru2hU6c3ra+kcM3hgpGmebjJtpmRdafLGys75kS2sXZv/YUdIp2/mDq4VbrQfek+L10Ft010GfST9DcmUAMtA/6B5FNCQjdCbcKqI+kiUqgToWYxR7OZ49Yd+ej0lusJ+qpFSlcqQdTUcdTM74ctgj82rWeo7Tkaqjy8cc8y4fJxRQTjwokirOOTlX6nrqTpnomTx47/c/331Bs7KqmqkmsXbqouOllnrRK7lXlxq8rz9olGk61jx/y/725TuE1sC21nZiR8C9xvuoB3YPSx9NPJZ4QumufDrew9lr33ew//rztwOEQbkXDkPUl0eHa17dGxl4PTW68GZ1HHqLncC8w0yCyeWpT9OjM0/fN38o/3h4NuKT9WepOezcm/nmhcwvHl8lvn751rKYtmT0HfO980fKT82fC8sXVjxWCauNa+RfdL+urbtvzH90oKLC5vEB0RoAgB5dX/8qCgA2H4C1vPX1lfL19bXzcLAxAsDdsK3/TJtnDSMAZ7k2UN+Vxf/6x7P1D+ofccy/S7B5Em1qhU+izRI+lcD/AAKw5Fg7ETA/AAAAOGVYSWZNTQAqAAAACAABh2kABAAAAAEAAAAaAAAAAAACoAIABAAAAAEAAAGfoAMABAAAAAEAAABRAAAAAOFSbO0AACg1SURBVHgB7Z0HmBRF2sd3NrEscUEkiiBIjpIkiBhQF5GkwOqZwYB6hjOdd5533z3qGTAHRE8xoYJ7kkSSIAhKPhEkCYgIi4BHRti8349tr7avqrunpmeG3R2qH56lurriW1X/elPVBIqKiuLMYyhgKGAoEEMUANYKCwvjY6hHpiuGAoYChgIlFDDoVkILEzIUMBSIJQoYdIul0TR9MRQwFCihgEG3ElqYkKGAoUAsUcCgWyyNpumLoYChQAkFDLqV0MKEDAUMBWKJAgbdYmk0TV8MBQwFSihg0K2EFiZkKGAoEEsUMOgWS6Np+mIoYChQQgGDbiW0MCFDAUOBWKKAQbdYGk3TF0MBQ4ESChh0K6GFCRkKGArEEgUSy2dniuKKCvnHf4G4+LhAIC6QUD47YlptKGAoEC0KlDd0K8ovKsgtyt2Xf3hT/uGNhXmHEyrWS0itl5TWKS4+OZBQIS4uEC1SmXINBQwFyhUFyhO6FRUczdu7LPunj3N2z40ryrfTOZCcllJ/YGrj6wMppwbik+2fTNhQwFDg5KRAoJzc71ZUmHvw6OYx2dvGFxVkuwxVQnzKKZXOvLNCg0HFTJxLKhNtKGAoEOsUsO53KxPolp+fn5uTk19QkJuby51zgvLJycmJiYmpqalxObsPrbovb99KiWUTKUUgkFi1cssHK5w2KBCPlGoeQ4EyR4FjxQ9zPj4+vmLFipUqVYp4Eyk8Ozu7oKBAKrlC8RNATx3rj4VupSmZ5mRn//rrr4z1tm3bVq5YkZWVtW7t2oMHDwrKt27Tpl27dhkZVyTufC3/wOqg0EbGovxDRzaOjkuqnFI3PS5gLMKCliZQJiiwd+/eyZMnz549+6effqpaterFF1+ckZFRp04dkC6C7fvhhx9mzJixdetWqUyqO+eccypXrizFx+prKaAbsHr0118PHDjw9ddfz5wx46uvvsravp3dBhInJCTAr1m0zisoAPLu/sMfsnfNTdo5s6jgmOYYFOUdPLrp5eQaneJT6mhmsScDbZmC/LVHhh9u2rTpybBnhk8ozRL279+/b98+O6evmZFkDERSUhIzjXWOZMCs088bTsrDhw/ffffdH330kTXbKWrOnDnvvffepEmTGjVqFE7JUt4dO3Z8/PHHrCwpHjzt3LmzQTeJLBF7hWHO2rFj9qxZ77777nfffZefmwtznpaWxt8KKSm1atWqX78+7DP1/fLLLwcOHsgYfkWFgy/n5x8OoQXcqJ69O3vH5NSmt4aQ679Jly9f/te//nX+/Pn/jYjM/zk5OQK4I1PiyV3KuHHjHnnkEXh/H2RgIBo0aNCsWbMLL7ywZ8+eTZo0qVGjxgnAuAkTJnzyyScC2mg5Oz2r4Omnn37llVd8dMRk8abAiePdGEg22y8XLBjz6quLFy8uKiioWq1ajbS0jp06nX/Bhe3bt2veooWqg8g/tO7g8s1xhbne3ZC+FuUfzf1lQWqTkXGBE9dBqQ3mtcxSAPUushvPzJkzTznllCuuuOKGG25o2bJllSpVotpmtsy8vDypCrRjU6dONegmkSUirydo8efn5aFoeOuf/3zv/fd/2bOnerVqZzZrlt6v3+AhQ5o0bYrpwK0z+Yc2xBXkuH11jS/KLzy2p+DY7oTU+q5pzAdDgbi4//znP6+99toXX3xx7733DhkypGbNmtGjCpwme7xUPjFIrFKkeY0IBVxhJSKlW4UgjWIueO6ZZyZPmZIQCJx55pmDBg++/oYbGp9xRtBaCnMPFBXJpp+guUhQVJRXlLs3zqCbDrFO+jQbN278+9//DtLdfvvtKKeiRA9EE1X3SgyamSjVeJIXG3V0w9Vj6ZIlzz377Bdz51asUKHb2Wffettt551//nE/D43nOEL5QjeNsk0SQ4ESCqCJf//9908//fRhw4Z5CBMlGUIP9e3bFyFUEk7R9w0dOjT0wkyO4BSIpB1arQ2TFkrTF194YdaMGVWqVh00ZMijjz9+af/+mtBGgfEV6wXi/UDwcZcec/hUHRIT406BdevWffDBB6ojhXuO0L6g4Dv33HMxnQkOrlq1ahgxb73Vj/krtLpPytR+gMONUJgFsdPjxWYlSEhMxDi19rvvdu/ahXLtsgEDbhk1KlTLdyCpqk+Qiq8Qn1zDrak+4kHkZk2bpdX0KURE1qHJR/tPkixYP9u3b+/WWVT4uCLt3LkTIdQxzZo1a/DSQHni+DXMSCTTN998EzXfggULLAXcWWedddttt52hoaIJs+qTM3sE0I1xOnL4MEaD9evXr1y+fM+ePRYpUytVQrPWqlWrh/70p+ycnE6dOoUKbZSTXKPz0aTqcTn74+JC0b7FJydUOi2+Yt0IDmrDhg2ffPrJiy66KIJlmqIiSwF4IlihWbNmuRXLBrx69erMzExcar///ns12c8//wzAHT16VF+8UAvxiDn11FNxZPFIYD5FkALhohvOO/ivzZk9O3PixCVLljB7pMad3rjxgAEDBg4aVPOUU6RPOq/xKXWT0joUHsvS9+al2Pikqsm1++qUb9KcVBTAlbJLly7suPB3999/P0yc1H2UYj/++OOWLVvatm0rfTKv5Y4CYendgDbmwcsvvfTwn/8Ms61CG+TYtnXrSy+88Kc//vHzOXP8Wb5TGg6PT22gf6wqEJ+SmNaxAiexzGMo4EQBJMTzzz//d7/7ndPHOERXIX84JjCR5YUC/nk3BFK4trFjxrz11ls5wc4tLVu69IXnn0uIj7+gb1/VZdebWElpHVMaDDm29e3CbHQlweTTQGJClSapja+NT67uXWxZ+4oFBvTftWsX58BwjDpy5Dcv/KSkRHwUcDRFqEEhrXnggULwnba7xdPflJSUunXr8pcwiieUCSxj/HUsH6yaNWvg2tq8eXPhtY+qQaISn0iDbot4dFhUkZW1kzNRBw78djqY1qIpx2uMitwcHahx9+7dVF184u03LW1qakUrI4dVoiQV2vsCJTlxySEBe6QVhmiO+7TVYCk9Q2MNCrnoFGelSZaXd/xYYWJiAoRCp8bAWSTleB80l06PIU1Tgo6fHVVAMWYIZD9y5Eh+/vG1EB8fgFyQjlo4r2oNrtRIH6/0hcNCHPrmr3DRq1TpeEW0lsHlcBHF0hcS0B57FXSWZLVr17ZHuoWZDExFqqMQ6FNQ8NslGlWqVGb+QJZwOuUf3Q4dPDht6lQdaLM6tnTxkjGvjKlRs2aPnj1DVbFXbHRNXMGx7B1TCo5tP34rr9sTSEys1qpio2uTanZ3S1IG44EJ1D0Y7FAJrVixAn0QM5gYq6nM3dOKHy4UQHfZunVrFkxQr3rOGH766aewIfb+4u6APxfTBUM2yqm5c+d+++23pLHWG7jWvXt3nOYFuHAizZ6dcMWKKcOGDb/kkkss/RS6CA4Lw78LOyN50a5SVI8ejHNPDgBUr16yzYAayH0rV66keatWraKnQrsPaJKxRYsWffr06dq1K8dyrfUjNSBSr6xANyDAHcQ6CyjVxdF3/DmkyLPPPnv48OEUxQE+zBFQg0FEbUcySEEvMBpcffXV1o4OtD3++GPHjv3PFV60hBIGDRoklWx/RV4GNyl56dKl//73vzds2AD9LQimtZCucePGTI9evXqhdvSh3bbXhWcMu9qXX35JdQzr2rVrBRwDoFTEDGSAeNq0aUPDPvvsM07s20ug4+edd951111nj1TDQOemTZso/5vihzCTQbjLcFQO6jGRrIo4NgdiCluzWppjjE90o8OQ+N233w7KtdlrXfT1IjR0rVq3tjZ/+yfvcCAhpWKTm+Mr1Mr+eWbBoXWFuYcUJi4hoWLdhKqtsqv2Xb25eteax6K6Nrxbq/8V/hc2jSXB/Jg2bRowoeZlqeBryvP5558zwEDGwIEDgQBOR7Iw1PRWDMBBgaCkPQGGkcsuu4zlAYRRKdum/StVMC+BWhHJSWwRtgKgatu27Zh5b7/9Nkudw0xSAloLTPMw6Tt06MDCvvTSS1kSJMOevmjRIs6QgwJs+FJGZjYP4E6x9O7aa6/lECj9lZJF6hU+SHDHUplUCnsiRfLKalcJwghi98QQ8eqrr7I+7dSDFGRhI+Hgl4VudHDSpMmSfobz/B5GXsoHBZYtW8YBVSYJ+Cg1jI4wyjycbvzXv/51wQUXQHNH3lPKqL7COoHR0J9yVB6T9LClPCAsh8Sp6MYbbwR6wEGJLBAQtssD3YAwrgVityAjNToeFgZkeTi7xkyjFo6RsKeyr2vKLlbvfKIbjDEXeDCoKo08YjgzT67NmzZ17dbNI5njJwAu5fQrUajl7pqTd3BtYc6euMLfjuwFkqolpNROqN5xf1zrDzM//yQz86VXXunUubNjOWUnkonLpJwyZQpYwxrQaRgTHdRgQgAZHI1EQR4SiDNlmVLTp01f/d1qsSHb6wXd7K9qmNXLrgYGcSBc/WqPYYGxDJjEMGvwL7QTM+Ubb7zBPm1PpoYPHTrEAgPoQYHBgwdHCeAAmiVLFqu1gzWIxsC3+skxhpUJFsAm003HBLQ/VElFlMMMAU2AAO4RAeBEvFuATjEumzdv7tixo4ShbllEvEX2Z599lkUNYop4xwAJmEgw/qNGjWInc0zjFsnEYA7gGcMo0zu3ZCKe9AsXLmSfgNkfOXIkzKkb0y2yiIBPdDuwfz+qNFGKfmDN6tVMXB/oZlWRWLUF/wqzd+Uf2cJR+eLIwPGfVqh8RlEgee+aNU898QR+vJzVL+PoxsRFuBgzhisFXpXUFkGJCeODVz3AgdUPNickgGOdsAYcoY164Vm8lyJTDQ5CNTW6tRn4Hj9+vKVaws9LCLBu6UU8Asvo0aNB2379+kX2xh4oD8HpBfcOiepEAAog4unLFmA9a1VlRUWBaANATPEaUgClAVwSiAMZ9TMi+ANwdFM/C9A2ceLExx57zJFlcyyH8lGWPfXUUyExU8wf9ubnnnuO/QCW1rFkx0j29XfeeYepe99996EN0AQ4n+j269Gj+jPV3lzQGudeWFPfQ05pXNyWrNzdBqg1OO00VAPbt2+Ha7BXGpEwU40rJVTRwK1wXApQk7md6WFrBdcYZktH41aIWzybJxsaqAEYoePQn2He7ceL1Rvd4N30oc1qPCsTLAaCQ50wABxcLZo4KKmvcGGhInq70Q1YRzEPH8RiRpCUkqFu69atG/SU4j1eg3aKjus33l4RE4P5Fiq0WSWABfaigobBenBKH9qsAgE4WFeeoOVbCVj17AQ+oE2UP336dHCDNc6s8J6oVhaf6MYsEWcSRN2aAXZO1rb+9qhZLMnoOYDyw5Yt32/cGCaAqpWyShkYNd4t5p577kH/6sh3gE2IM76hzaqRQlB5YLNjsJFE3JpRFuJDYj3sDWaX4kHb4khGe0orzHpDMvBwlwWdd+3ctX7jepgIKTurBR02Cn54N+lTOK8YVTzUo24lM7hIiM8//7xv0rmVrMbDfo4dOxbJ2o2jV7P4i0HaQCB149rYWmCcgQW2atAZK4rjxg8QM0B33nmnjpXZJ7r5656VCyaLf9F4khIT23fsOHHCBNATo+NpDRtGo5Ywy2QFovJHCnAcPFYCYwwsYnRnYcC9w+2yYnnU9KwB3AzRN2NTxXAWUsOwrGHQxM5gMdEoUmHKcHPVXIrwIyBOk8ZN6p9Wn+nIXoIOmH6pjVRbRVMBLP4yobFswGvDATmyAGAQiwEFtia6URdCIju8Wql3DC1p2bzlDSNu8H0WBTLC+UJA+mUx7FhRICmIaVHYuwHSV5Y3GjQ3XRsCO8OHGRGvCwoHsmFIYUWZJLCuUlHerwwc94Ci0iLgmJJasF8xXow4UxfyUgvIG5JcSclMDOaqI7SxQzMVMc5Avfr1G1SokMycR52HXg8Nr6S3YUrQYIYJLttNMBId8YlurAEclEQp+gEadGrt2vRHP4t+Sk62WuZwxhulQNlEN9rGDsYUUfvFrGXMONqBZwZTinXC4kdeYDJhZ8SHQ1Vds4TYzdBEYGdQC3SLwdWLmzB69+4Nh29JtcjdGEBBSZ2lyOijTrr88su7d+/RrNmZQANzDl0PLQRZPIRfMrZt3XbQkEE0GOU92hMmPbZaekdGR5kX2y7zm9Xl1peIxMMI0Korr7zSzUfPuxZMB0AwXh0QFouEteqsbYnXUCVTeCi2Crh7x0qZFfw8AsONfp1RYPjY5NDhIvRBRuBDnSSO5ViREB/HIEdJlpIxUzLKmHRhl6xe0DCgEJMCY81m5lGy9IlZQUUqK8peTl+uuuoqTGR25yHQE1MbDmcYVaCkvTS2Q/wHgMKgg+UT3SqlpjZu0nTx4iX2WnXCNWvVOqVWLWBIJ7GPNKw0chUWFYW6t/ioy18WYPfDDz9U8wJt7Ejcu881EuIr65/Nkwe8Y4WjWFVNVHgnoalFW0QJIqNHgE3ygQceYDXazRFMLOI9colPSHCAIAYNZqR9l4LfBJoRk1GWof0V6UUAaEOCpoPAt91fj5VjzWwsHurspyhWFGksFBalRTYA58I6Z8UCT0BGSIWzH/Tv35/LL/H/su8NkIInpKKsxHhm4N7huEmABUAwd4rA7IiSAVNGhAfysmeACKpKUSSWApjgAQtVJoXaGRnDH3jgQSqya7gAax72Rdx9UNVBNKlAx1fKX79+A5pi6SszNj39EuYSUCV9ogFMSLaNw4cPqW40NPuaa64Jim4+T2IhHvc6pzd3gEhtCvrapnVry/spaEofCRiGWsUCWiG8utMC81FmZLPA27PvsdNKxTJBWcAPPvigHdrsaerVq4cLCK5Mqr4S9oddTnU9s2cXYRyvbrnlFmqxQ5v4qhMgI44aNMYObVZG/IRpoZtwx/Lj8JMEbVZGOO6bbroJZgQEVNuACkZyzVPThBmDwIWdAe9lfe8cUSPr//rrr5egTXz1EUBLABemZmTsOECGyskObfZkUBgvM1SHmqgKBwCMwrbbC7HCOBv++c8PS9AmkjH07G2///3v7buU+KoGqGLNmtXsUtInyh8+PEOFNpEMCSYj40pLIBORBNAVMmQqKNvTEPaJbpUqV+7atUunTlq7vaiyWvXq5/TuzZ3jIibigdxi9QF6PfsuGvFafBcIumEIU7PDOrHykdfUTyKGfTs9vR/evCJGBJARHEVdkUAE4JLYeDUnpchlD7CdjhgxwuKR7fFWmAWG3ORIfCZxnz7nuVWN0goJSF+/plYdZgwaA3YIdDrYslk8+qUhvsG3OnZZvxB7Sng3R40bTCVOzix4e2IpjLoWx1fcX6V4x1fECBBHlXIAr7vuugtZwc61SSUwARBa3XYyKbGlR5MieeU0AkCMtcHjqVu3nl1itQpBvQhvq7ZcqsK/hIhW67rrrt+69cc9es44sCc9e/W6sG/foPyk1ET9V7DcEtGRfJF/9TPqpGRVAw2w5TqJSUNidcaDburERaOBMgWGKGjJTZs2YfdGfyEp7xlpGJyg2UmA5KVjbHIrCt6K1cVidkvApEc4QtutbtRYMJo08VKfWXPdUQfkVp0aT/OQWdR4EcMkYW0gUqGochSE8YNjycEiqWyyKEQEGGJAmeETMWEGmCHwbir1kNTYHtxYe3ulMER4DvBLEY6GGntKVKXUZY+xwki4Hs5MVhomLfSB1G76QXuxaIfBL3uMFUapArOsxksxjppEVBYoHKWU0qt/dAPgL05Ph0Dj3nyT1kvlSq/Hoa1nzxtHjGipCNhSynBeEUj5SRpKCMQH3JgL3+Uzg9k5YXw0S4A+jqoidaggDtI6oBC0ZFgbuHTgSUI3EMFRvlALBGI01XNqXmJoatB2Qnl2AnV9Ili5MW5WXVAszFFjyYFu6vFYe19AN0zqaKbYJD764KNVq1fZvxIG8ixDDUyZ9El9BcfhqdVtTE2pGcOKVUlHXqgHM8XfoOVYulqGKajWn55iDlILxEVcZyDoNfI4oxbUUItiwTENJxB41AboxLCdu9l5RXb/6EYR6FlGjBwJ+zopM3OLcuRQ1IGmpnuPHrfdcYf+zymIvCEFmBmW0j0pIfgiDKlkEjOWTOVQVc46tTAd3TQpanagDekPTbD6SSeGIdOZuDpFldM0TFfAFx0frCK7xaOPPqpycPAUqMB1tJMUxfBFkBQIyI42GXCNcdesiJ1Yh/FEsoNVVMsERtnG1Hgphr2EViHNqJYuKWU0Xj2kZlFd8D6IpGqACho1bjzq9ttRmsyaOXPp0iVZO/5HPqLznJk/t0+fS9LTO551Vjhcg1q7GpOXn//NypUMDK3iMhI1QdmMgZtgTmu2DZANB54YEZ2Jq9mYcp0MbQ4/4wKKqWdmYe7QY6KWUvXZpdVloER/4EjpaJ/RbDwTjOp0EpPMUUDRyRtmGuxsQVnmsNCN9gFwVDN0+PBOXbrwEwpbNm8WzinsabDHoFvbdu3g3sPsTNDsYMSO7dvZRhgb3+dYg9YSjQSwnI6uXo51IYGy6hw/mchQKQAzjnpURTfKYRozKCce3cALR2YQU4P+uOPcq6mpcKQYyhPmpM4mSjJHzxXHYiMbiZYjKIKHi25Wi5E90TTzoA/igD1yE4cEEcjbd+gAWxfZXrmVhhDO9b9oUrEn9La5jLmlL614OHlJscIUwVkf3RlijnerYPEQo1SxFKbYt4eHd42x/RUccdt3QRNHjXu0CQLbhW5UrQV2EksIarKgoMNCQOOmAzowH45IikUCBx3YfLUZ9hgqwhVJOktgTyDCwFByooP3GCZXruQSyUIK4FwZlG2MDLqJZrHMeDjmOXXKFCZHxpXHfVWCMpAiezgB9Opswhwrr1O7ducuXcIpKnp52Znxa5PQDcxCRcqFjtyH4V01GXHcZaJLybDxRdBsJxUew69AGG5TZaqDAAGAi3pU0gaCa/ipcP8H14J6NxiDCeZgdZKoubDAOEIYZn00j/gneTNHsDLc1qcWq8awbXNiTzXg1KlTm8sK9fWJasneMT793bwLrVylCpokrm3lrkqQzjtxRL7C/uBozk4CDzNw8GDVQSYitYRfCOjGqQO1HDZA7j6TJrSUjMnEZX4ctZHiecXkyqPGmxhvCrCpwKc4pmFLDsoaOGYMPxI2HJ8MtRxUgdYtQOonEYNpkoWgeh2JBPYAGIpsrqrzcIF4/fWxiLeONgerBCwS+KVzZsBeoFuY3dfRZXfRoq84UxXU9OlWbND4qKBbs+bNsSTA9C5ftmzB/PnhtB5b8rq1a2dMnw4zyL/PZ8/mOkSV6Ih1r7/2WkFeHr+8NXTYsKDdLsUE6enpsLdSA9iZ582bx9EWN4AD2pgH3AenShysQ/hBTmtJZZpXbwoAbdyexjlWx2SwG+E4BjqWqRkJujm644Jc7G1ck+doVKVwEuB9xmW2mmpcKuK0ExoktWGsNu6wAebUtUZimAmm6+OPPy6U7GoJ9hgoyRRVxQuc4GgtcAwTbU/vEcaDBM0MDfBIIz5FWDK1yoVe3Xv2PKtzZ26aZjw6dOzIHfuiSs0AuAaoca8Ad/kynDCDZGQ/ZR/Alt+jV69BgwfDChFJV98YO3bVt9+Cp8jCZ3g6c2vWHqVkNBjnDwBO9YFElOCgJUwcXnVIH0IhgtwKonGRKXI3gonaMDSbpC+tpai2p3RjULwiVXm3IScnd/36dfAduLw5umrCzqBR4fEuJ0pfkRbx2X7xxRfVtrH5cQUDFgPOCeBwK7hLlgC6NvyQMydmovLWN8FzQpY7ZlTdGewCFcG+WdeLC/cLwA7jBj8Iy1zlOL0mBWgnSnkgW+L1aCe3gOCUg9SFAo77VFRG0qoCREPcRnvD5X0ZGRlDhw51BGWpPVFBN+rAzY8fn9+4fv2KZcsyP/6YeyUddaVSa8Trxg0b3h43DsF26w8/gOvSBgLvM2/uXC4xv/mWWyiXm3hfHzu2ID+/dcuWI2+++cSo+URTQw0AW3fccQf+orBj9rz0ERDnRgQWZ4sWDHQLUjL8bI/cEYJGGaWbumXRWY4f4CntrSKxVxTDYWgI9SCvdx8hI1TFMuh2fBWHL5ait++xdxXhfGWFc3cLB3KRQ6VycAxgq+O4GOdDkfVgiDh6BQiCDjwo5oAefWijcA5aMH/ADlVPh0Zy/PjxYCX8HUCPpyfzE6JREZGqU7rUVOmVPRgkRWSWGE9WAQBHA5BzuaaUec8+LSYzraIZHBlg8sNrUykxEIeiShPdqDu9Xz98RCDQZC4ga9iQgwpBbYIWRb5dteqZp5+mt/zsloRrVgIogudH1s6dKPWeGj36x61buc0NmfSue+6JnoZSGi3fr2yDeCFwIf0zzzyjFkLXmAFsU4wxs5yZSgwbqZrSiqEojnChQHFLcLLFw4YgNIXTa8gOtOmceQqnFu+8nFbkZD6+eOrlCAAcfUSghovB/gAEs/0DGSo8eVdhfWUHRVYAK8EsSpayMPeoCB4NRTYPryCpx2yUsttfcZzmWhqAjIuapfOhTHJEaR6+Mu1pkmAV0dhQKSykPQsbGJH2wt3C0eLdqA+85yKBbVu3zZ8/j9Na4N1xfjKY0wPw/Ozo0Z9Nn46I4dZoKx4j6YyZM+Hj7r3/fk5BdOnatb9f67J3RRH/Spv5IRWUxPyQimPhaCrdFHD29Ni8OHuPWCr2OvtXE/ZHAdgZLr8LeuDMX+GauWDJ4Zj4eca//OUvbisZxhOWR7NAj2RUxM0iTz75pJsSjQbwgD4eheh8AhA4l4quDYWAY3oAWgejQXxNPV0U0Y09EM+MUXfcdizn6LKly/hFen6CeNjw4XXq1nXsmxX5zrhxn8+dGxTarMT8yNan06b16t37iaeegner4qQf9airtD6hfWOkuSCbQUKl6q8ZSE/c84X+pbQEKH/NLuO5UA9xsQ+MW6lvGDA7gCxyGQo4wCV6dINXYo8EKzEjSGJjZCtF+4aowQV/zH8uzbezYyFVxAViubl5OlmiiG5Un1qsH923d9/+ffvRer704ovIz6jG3Ax8q775Bo/c/f/709be3WDgX3r+uYHzF7i5ZXpnL62v8N4oTf7xj39gZHj99ddDmr7Wxs41bVxqio2ltLoQY/WyyHHWgV1CgNLR6US7+8wQdGqMMjjLpUyqhcGtAYAI+hlkOtaaWxopHr8QfkyPSLQlqoVBSixe8StG4QtPp39hFAYTrllF7sZU6mjNEIV7BIqZ1p9atWopjCpuiaOLbtSK79uAgQPwpX/l5Zf5kUDUcJu+/z7jqqv6XnSRetB30cKFWTt2FCnyv1vriUcx9+OP2zAsXH7FFR7JyuAnZi1CEHe6sqFh5kfJotNIjjpwgZd1H7SmHlOn2JM5DauUH1W4bCBmsAFsNo4OrqVCH2YIOIWKFk6fH3ZBLRW0GUwPGDEOR7LQ9NGNYtkmOZ+A6Y+9ll/q8WasYL5QkCHPctk6P8EXtFX2BJCXCY/gjzWDS6oxg+pIo6IEVKLcTow/IKKhiHQLBE/hllM/ngPt/fr35y/C6Ty8J+fNwyS6EDwaOpR+An+iqMVff/3L3r3iVTOAVhKvukihGxIBHifqMT1mWMRlQPZnpiNmgVatWq9YsRwplYnlqEyhaszQXE3Dg/TEXPQ2DcPJkky1NtA7TaqSjNulpcTslkFvSalcuQpWLbV5LDmpNOkVvTUZ1VmLn5QqJ9JBmF9N/YtUkfVKmSxRjHS4VrRv36Fevbq8qhWJvHBSKkE0byWyCqlUqTKDKLWZ/now4LQHunHdLhshQDBt2jS8glS9PtSmJdwbyq1NrHyU1ximVISiCyp5RQchKRsnfWSjxaaHMxarQDLrgWsIXrg0ca6GCYYhIqj/jShfBJhFrCaqA6qwjQAJWNJQQ7vpo+D12HVoGMw1ldJTloOwPIhi1cDx37lRY6MRAz/JGfvMiRM/GD8eqzbMPwq45i1asFzP7t6dAKB+Wb9+SKah1s7pq3790jMnOWvoQy0NEmNWV88YIrkwOSIOcFbzGAWEU+pF8ZGVtXP79p9oAIZwqMRYAkkcRWANMCEYaRU41D6ir6Eo1Y/aKk1N7xiD56QUz5SiSd7OPRAQ4z3DLeWl8RBQirS/smihgJqRfZ5eS7OZ3oXq/WCvizAFssygLaiq+ldLiXlF3QNVpXhmBc3TZPegDLgjeWyAFwiGHgBn1QiOwOPQBnrN8iHAA35BUh4QkD8UA0DTKSYPyVSwoCISeACcVRcVkR1LJX5IDArzkBi2fCY/jh116tQtbu+pTFosqqpxGZGCi+k1fx4TrGcokbuRiOkXeAqRqR1Yh29ldKzeMQEoFmkPgkMxaRTUV9oGxU4cutEC6oNkHGD4eOKEObPn8NMHCAU10tKqpqWxD98yatT/PfLIwi+/VNvqHQO6XXTxxZOnTvVOVi6+MipAEiscnyxmJ0DGwmOkcSuXlne56I5pZMQpwCJCp8YM4S9hVhALnr9BMctHS9hxrXkIIjMPqQIcF+wtwIeJAA2aVDLbGDcbP/zww1K89yt9saY9/QK1gTD6RY10DbzWQTR7+awjnhMhmYpaWZ/0/IILL2zXvv2NI0bCps2aMQNrw8+7dnEfFYCsw5WI0mIywCgyljz0TtVLxmSXTadCogCLiK2OJ6Rc/hJbLK2jjQUkQmvG6Qi1ZNK3bt1GjfeOoV86HLR3IdLXE4puVt2AMcomVEJc/XbNtdfivYKpFMsLvymDjZWdQWLdpRarr/HFvxysxpsYQwFDAU0KwG2hf0RtB//hLSXAEyFL/u1vfwPaVA0g1SH89ujhcFWEZksikszi9UoB3azWw3NCBZ7TGzXiqib4bEup/NXChfrGb6uoQEICh/YjQhRTiKHASUgBPGyxIXAK8IknnsC5F1sf+n7UXqgU7UjHKX3U//jicqEDKjlHWycCB4dkgciyQMZSQzfReaRRuDbr2sY+5503berUUNGterVqIf0Su6jaBAwFDAWgABp9tPscj+FBtY/BFCGRhcmDmMmp50AgnosF0cGhiQPUeFCTqaRD8MKiiqeIHRPVZCcmBvat9NHN3lV+ErDXOefszMqCfPZ4jzAmhauvucb7/INHdvPJUMBQAO0QejSLDuAXj6AJOMURVF7tkeKrFMC+iTs01lUpvrReo3K/m+/OYCUZedNN/CqgsMsELQr/lz8+9FBZ2CuCNtUkMBQomxRAWoIvc2wbPFox3JXgnWMyIvFK4S4jPOaiYb11q9Q7vmyhG21t07btgw89xH0r3u22vuLj9+GECQi2OolNGkMBQwFHCuDYqDrHOaZ0jIS34EIHLrPkYGzE7Z6ONWpGljl0A/j5vfpx773HEbbEYscIt55063525qRJkNUtgYk3FDAU0KEAHkihOpSJYpG3OMHGoVEOVJwYPxVRddDACfXmDdoakQCnEK5s+wiPmvc/2Pj9Bolt5gf9uC1uwKBBmFl9j4qoywQMBU5yCnC2gcu4OOY1XePmMUErXLvANS7v5Q4uDhWUQe1QGUU3KIhbDS7LOC5zKJX7KbkOFCf+Ll278UvMjRs3YpewXF4FrU3AUMBQwDcFWFwsNx7O6nPOlOugOVbErZYSY8FxKE68crII+x8/msUR4Cgdk/DdEXvGsotuopXoNY8/BQUciMXawBZRBncJ0VoTMBQo1xRAbALRWHCwFxK00S9EJWsNokEiUMYlp3KAbuV6rpjGGwoYCpQWBcqcVaG0CGHqNRQwFIgxChh0i7EBNd0xFDAU+I0CBt3MVDAUMBSITQoYdIvNcTW9MhQwFDDoZuaAoYChQGxSwKBbbI6r6ZWhgKGAQTczBwwFDAVikwIG3WJzXE2vDAUMBf4fGEVPuqeCHd8AAAAASUVORK5CYII=;" vertex="1" parent="15gxBGkXHDmCzy9u11-4-1">
          <mxGeometry x="254" y="555" width="130" height="25.37" as="geometry" />
        </mxCell>
        <mxCell id="15gxBGkXHDmCzy9u11-4-42" value="" style="endArrow=classic;html=1;rounded=0;fontSize=9;" edge="1" parent="15gxBGkXHDmCzy9u11-4-36">
          <mxGeometry width="50" height="50" relative="1" as="geometry">
            <mxPoint x="66" y="-170" as="sourcePoint" />
            <mxPoint x="65.5" y="110" as="targetPoint" />
          </mxGeometry>
        </mxCell>
        <mxCell id="15gxBGkXHDmCzy9u11-4-38" value="" style="shape=image;verticalLabelPosition=bottom;labelBackgroundColor=default;verticalAlign=top;aspect=fixed;imageAspect=0;image=data:image/png,iVBORw0KGgoAAAANSUhEUgAAA00AAACgCAYAAADQMYftAAAAAXNSR0IArs4c6QAAAERlWElmTU0AKgAAAAgAAYdpAAQAAAABAAAAGgAAAAAAA6ABAAMAAAABAAEAAKACAAQAAAABAAADTaADAAQAAAABAAAAoAAAAACWvfsfAAA9pUlEQVR4Ae2dB5xU1fn+z1AVwYYiNgREsSBFUBSlqbF3DBoLTaKG2GKNGuNaozGoiVH/xiiif02MvXeaFEU6CoKUBVGkWhCRtvN7nl0GlmVmdsq959zyvHweZuaW877ne2dn7nvaGCMTAREQAREQAREQAREQAREQAREQAREQAREQAREQAREQAREQAREQAREQAREQAREQAREQAREQAREQAREQAREQAREQAREQAREQAREQAREQAREQAREQAREQAREQAREQAREQAREQAREQAREQAREQAREQAREQAREQAREQAREQAREQAREQAREQAREQAREQAREQAREQAREQAREQAREQAREQgWgSSESzWsGp1YHG1PnsU9PF/ISYEqYd/q9vkviXsgS2lpnV+H+EqWmSi0rNpMa9zMrUbj2KgAiIgAiIgAiIgAiIgAi4JaCkyVv+tZOfmmOQ8nRDWtQFRR8EbZO3i4RZg/M/hCaZGmbogsVm5J49zaq8y9EJIiACIiACIiACIiACIiACRRNQ0lQcwkTyY9MI6cxZKOZ06Jjiist49jrsGYOeqCcWLTVvNT7TLM54pHaIgAiIgAiIgAiIgAiIgAh4SkBJU2E4ayXHmeMw5K4feoPOLKyIgs9ah96nUd98awbufrZ5veBSdKIIiIAIiIAIiIAIiIAIiEBOBJQ05YSp4qAWxtT9cqy5xPxsbkSy1CiPU/069CvMhbp7/AzzWIeLzVq/nKhcERABERABERABERABEYgzASVNuV39WslPzMlIlh7D4TvldorFo2qaeV8tNDc0Odv8x6JXuRIBERABERABERABERCBWBBQ0pT9MtfAnKVW5hczCD1LB2c/1PHeJNbgq2nGI3nq1+Qc85njaOS+MAINcNqJUFtodWFF5HxWbRw5D3oW4tqOMhEQAREQAREQAREQgQwElDRlAIPNddG7dAN6l/7I55kPC9yenzDn6Y5hZWZg9+6GC0hktfbtTe1xj5uO5jvTFQe2gpphyN9BSBLrpTmRN/JTsH8J9g9FkjaxdLYZ1awv0kqZFwR2RyEPQmd4UVgOZYzHMadAC3M4VoeIgAiIgAiIgAiIQGwJKGlKc+mTY82eSJZeCXzvUprYyzdV9DqNnfWV+fU+55sFVQ8rT5SeMJ3NcnM5EqDDUc/C52dxeXRjRiJRGzRzgXmn5blmaVV/ep0zASVNOaMKzIHsHeSqmSdAe0H8iYG9NzxOxSN/c+0baAj0FqS/D0CQiYAIiIAIiEDYCChp2vyK1UiOwe8r/WLew2YOXwq31TTLSr8y5zU7z7zLiuy2m6n39RtIlH4w1+HlDp5XLoFUs6Z5evpc888DemmIYAF8lTQVAM3RKYfC7w3QcdDWOcawFsd9AN0DDc/xHB0mAiIgAiIgAiIQAAJKmjZdhDqYvzQAv7l0/6ZNkXi2Ej1J/0KP0mzoNjzf0UKtViN5emHmXHN9y97mawv+ouJCSVPwryQXgrkVGlBEqGU4938Qk65SSCYCIiACIiACIhBwAjUCHp+t8KKaMJHfNkiW/oDHf1pKmOizrllvztu3ifksOdJcmSzB4D2ZCISfQEdUgT1ExSRMpMC/h3Mg9jodD8lEQAREQAREQAQCTkA3sxiGF9EepiC89bbHr0fdZ442Qz4fZBoHISDFIAIFEmDC9AR0QIHnpzuNc5/+DfVIt1PbREAEREAEREAEgkMg7kmTEib/34sJrOHX9YAWZuLnT5ij/HcnDyLgOYHWKJGrGnqZMKWC5JDMq6D9Uhv0KAIiIAIiIAIiEDwCcU6aUgnTA8G7LBGMaJ1pfMA+5tVpT5o/RbB2qlJ0CXA1vL7QIT5WsRPKZuIkEwEREAEREAERCCiBuCZNNbCseCcs+qCEyeYbc52pv//e5nolTjahy1eRBA7H+RcUWUYup5+IgzRMLxdSOkYEREAEREAEHBCIZdKUHIXfYVpZPgnbAfKYu9yQOE19wtwUcxKqfvAJsJfpJKihhVA5TI++ZCIgAiIgAiIgAgEkELukaeedTX38AtNLuBa1Ang94hESEqdW+5jfTx1kusWjwqplSAlwDtOxFmNvA1/tLfqTKxEQAREQAREQgRwJxC1pqrP4DXM1epkOzpGPDvOLwDqza6sW5smpTxquICYTgSAS2BNB+bH4Q6a67oUdB2baqe0iIAIiIAIiIALuCMQpaUokPzH7m581LMzd262K53WmSavm5uEqW/VSBIJCYDfLgXAY4EGWfcqdCIiACIiACIhADgRikzRhWB5/5JW/s1I7By46xA6BBK7JoVOeMJfacScvIpAzAc5nctELSr8yERABERABERCBgBGIS9JUc/Hr+IlVDcsL2NsP4awz2x+0j7lGw/SCd2kUkRMCWznxKqciIAIiIAIiIAJZCcQiaUIv09bo0RiYlYR2uiTQ2JSZa10GIN8iEBACSpoCciFiEkZH1PMIaOuY1FfVFAEREIGCCcQhaaq9+DX8OOXPTobaFHxhYnXiOlMXq+kdr96mWF11VTY9ge/Tb9ZWEfCEwC4o5UxoELQU+hg6C4rDvQCqKRMBERCBwglEftlt9DLVRS/T5YUj0pmWCKR6my6x5E9uRCAbgZXYOTvbAT7to1+ZCHhFIIGCOkH88eSjoLaQejMBQSYCIiAC+RKIetJUE71MR5lVpkW+YHS8ZQIVvU1HjXvU1O5wsVlr2bvciUA6At+k2+jjtp9Q9hwfy1fR8SDQBNU8HToBYsK0LSQTAREQAREokkDQk6YayTFoGVtttsOcl7KVq8zy+ieZqXnUuQ56mXrlcbwOdUtg5zq1zEUI4SG3Yci7CJQT+Ar/T4Ns/VbTTPgaW+5Z/4lA7gS44mJ3iEnSMRAbCTXcDhBkIiACIuAlgSAkTUyMjjK/mK5IcJqYpGmGxzZ4rGgd+2VDdTHIYJt6xiSHlr9O4v/l0ERoMlT602oztMHx5nM832jJcWZns8L02LhBT4JOYHsEyC9+JU1Bv1LxiI8J03uQraRpBnyNjwda1bIIAjVxbivoVOgkqA2kIXeAIBMBERABPwm4SJoSyVGmOQZgnYnEiB/6RyJhqjCmQrTUY8WrdP9znDZ/CJKtapSpX9ckkVAtw9MPoVegd8xP5jQ8ysJCYB1+2bOlaaEhemG5YJGPk/OLPoB+B9X1ubZfo/wXffah4sNLYCeEfhz0a4hzkxpAMhEQAREQAYsEbCZNNZEs9TNrTG+IS5x6bUyk+MVydrmSGNBnzHxIFi4C29euVd7b9Fq4wla0ESUwDPV6BLrS5/q9hfKVNPkMOUTF10esHaBToJOhFpCG3AGCTAREQARcEfA9aUp+gh6hleZqDLm7DMkSvwjsWKL8C6apHWfy4iGBeuhpPBDlKWnyEKqKKpgAe5sGQWzoOaTgUrKfOBq778t+iPbGjMBfUV/2cMpEQAREQAQCQsDPlquayZHmTvw+0lwkTDegvvYSpoDAVRgFEeDiHVz9SSYCQSEwBYFcA/nRc81lzW+HvoBkIiACIiACIiACASXgR09TAsnSMZiz9AS0R0DrrbCCS4BzR7hMrkwEgkRgBILpCT0BebUwxASUxdUix0MyERABERABERCBABPwtKcJCzHsBL2OZIkrTilhCvCFV2giIAJ5E/gEZ3COSbFzj7jUzZPQ8ZASJkCQiYAIiIAIiEDQCXiVNHFFPI73nwRxCVSZCBRGAD9r27qlqcsV9AorQGeJgK8E5qD0s6BDobfz9MT5Uc9AXCK6L7QEkomACIiACIiACISAgBfD82okR5SvivdYCOqrEMNBoE6d2mZPhMobVJkIBJHApwjqRGh3iKubdYS4wtl20EHQD9B0aDn0JTRkg5g4yURABERABERABEJGoNikqSYSpgfMenNpyOqtcEVABETACwL8faVHN8iL8lSGCIiACIiACIhAAAkUkzQxYXoSCdP5AayXQoo4gcP3MFuPfhPDnJaaelhcvmyz6tYxZZOmmoXtLilv4d9sl16IgAiIgAiIgAiIgAiIQL4ECk2alDDlS1rH505grfm5dT8zJ/mB2cXUxFy5BIY7lZlmSI7a4Dec9kJBu5QXxoFP6WblrTGmbUtjsCiJwblrcA6H+c3C8ymYKVU6YbL5pP0APJeJgAiIgAiIgAiIgAiIQA4ECkmaUkPy1MOUA2AdUgCBhGmGhGcqzmxVfjbXGktAfMzXkqYOTtmvXEnMPUFCdfD+5QnVL9j2MZKooWM/M+93vMSMybdoHS8CIiACIiACIiACIhAPAuna6bPVPIEheX01hykbIu0rmkASQ+5SCVPRhWUsYCvs6Ybl8W89tKUZnRxmfoAeTY42xw8tMYU0JmR0pB0iIAIiIAIiIAIiIALhJpBP0pRIfmQORsKkVfLCfc0VfToCSbMterIuMqvN2926mWVYQv+hUQ+VL6Of7mhtEwEREAEREAEREAERiBGBnJMmzC/Z0awzL8eIjaoaVwJMoNaYAZ0OQA/UUPMpep96JZPlAwTjSkT1FgEREAEREAEREIFYE8g1aaqBuR+DQIq/nSMTgbgQ4DC9Duh9GmyGofdppLnx3XvNNnGpvOopAiIgAiIgAiIgAiJQQSCXuRucx3QGhuWdImgiEGMCO2D+053HdjDXoOfp3vdGmX8cd63RD5XG+A2hqlshwJUy94Z2hlpA20PrIVpN6HuIPx68BJoNLYZkIlAMAS4exB+o5rzX9hDfe3zPrYY6VHpdG89nQgsg7ufxY6EV0HjoO0gWHAKNEUpziJ8hbaG6UGp5KS41xe/zyRB/wmQktAqSFU6gAU5tB5HtthueV+2o4b75EFc4ppE//25S14XbAmXVJk3lw/LWm/sDFbWCEQF3BHbAV+ddSJ6uVfLk7iLIcyQJcAEY3qQeA3WEeIPaEMrHfsbBvHH9BPoQ+gjiSpkyEUhHgDfQnaBDoDYQ33O7Q1Vv7rAprR2RdmvFRqzVamZAvAEfAnGF1oUQb8pl/hJgAns4dBTEBOloaGsoH/sWB0+F+BkyFOJnylpItiWBA7CpG8QkqSnUHWKjVqFG5qUQk6hh0AQoEIkUs7xsViM53NyKP/E/ZTtI+0QgxgQWor3qGnw8/yeRKPqPml/WD0JnWOLJ1tBTIH6R+2E7oNATIS4dz1ZaF5Zq/X2pAOc74ZyToP0gv+OvCx+fQYzTyxbOliiP7ycOK2VruJfGFvl50BvQ10UUzJub30MnQ9sVUU66U7/HxtegJ6ExkKsEisngcRBv3Kq7DitwzDkQb+Bt2Mdwwpt6vsdzTRYyxcUW5UEQbzaDaGwobgedBh0PHQTxfWzLZsAR34/PQ5OgMN2EkxWZNYC8Tvx4g70UGgzxb7YQ43Xk39jp0NkQP/O8tCUo7B1oIMT3t9cMUGRojGxPgcj6aKghVF0+gUMKtq9w5nCIfzsvQs7YZ60kepkaIleciwD5RyITARFImJ+RGk2E5uD2YjqALMVX7ri3x5lpJ15e9I111JKm/uDzmOM3zXj47wMxIcnXmHA8AnXP98QCj38L5/H3774r8Px0p3XBxn9D+6Tb6cG2L1DG76BheZbFm9dfQ7dCfsVWNSTesP4ZYmK6rupOn19fhPIHQvV99hOE4s9DEM8GIZBKMRyE532hXhBv8IJgCxEEk6eHIA7zC7r9BgE+ADXyKdA5KJc9Q/PyLJ+Nc7+Ffg/tCSUgv+0jOCCLNyE2NsTFjkVFe0M9IX6Gu7AVcPo0dB/E94zVHqhslebiD1cin1PChKsiixmBJN75Ncy3+HNkl/wIJEbTxk02sw4ZsHHsbcyA5F3dw3HGnXmf5e0JTJQuhQpJmLyNxF1p38M1W3D9SkyY6DfJo3oukqVUeEyCn4O+hK6C3oBk0SZwJqpXAjFpCprtioAuh3izPxIqgXgzXl1PJA6JpLGXuWYeNWOvKPmVQF73UKPIrNYZe6nR0BXQBKgMiqKxd5zv0f4Qv0eK7Y1GEUUZc5IBG/QMHkug2ZCV5KkWHKU19DLtgLcA3wwyEYgDAQ7bGYM2qo/QWDBhzHTzUaf+ZnkcKu5DHfdAmX+A/GqRzCXkb3HQ3dDHuRysY6wQ4LyRv0FdrHjL7IRf/K9Dg6HroUWQLDoEtkJVLoZugHYJQbWYKHSFhkK8Cb8RGgnFLXliD2A9KBdjMnwP1CKXg308hvPheM0eh/hZ8iMUFUslS9egQvwut9GDly879mpTTJ6uhNhA6KtlSpoSuHE8Xb1MvrJX4W4JsFViAdom3sGcpFfHTjQfd7zULHMbUmS8H4+acOiVK/sOjksgfpDK/CXAVr/9qnHBL99roT9CfB4U641AeNOjXqegXJHi4zgdRdwHNSu+KCcl8P04DHoP4s3qVCgoNgaB/AC5bAwjCyYovFGuyxcBsNqI4RKoM3QGxJ7ssNvRqMA/oP2hICZLVfny/XAqdAc0EPKtwSFz0lTR5QjfMhGIDAEmSvMx1O65CZPNy+0HqBfChyt7GMq804dycy1yLQ78F/RorifoOF8J8OaVvUtsGQ6i7YOgXoAugx4LYoCKKScCvI68fl1zOjr4Bx2LEKdAJRCTQM7jiIO1QiWnQ+luepmsvQu1hYJoByKoT6FzoPehdHXA5kDbzoiOc2C5gFOm/CCoFWAD3j0QRzKwQWwZ5LmlHZuY/Airy5QFcgyw5wBUYAwIcPEGzmWoa04YP9PskzjCXK+EyZfrvjtKdTksby388waDPRoyewR2zODqYGx/DgpqwpQKmy3WD0AczsWhXbJwEWAv5lgoKglTZfoleMFEoV3ljRF+zrlJ6W7WuUDEZCioCVPqkjD+t6HjoHzmZ6XOd/lIxhMg9tikuwYuY8vH90k4eBLUAfK8lyxd0pRAwnR6PhHqWBEIKIEf0Kt086jZpnGiuzkn0cm82+HiUC3xGlCsGcPisLyeGff6v4PzVG7z302oPCxEtKU+R8ykiTcLle0YvHgeOqTyxgA/51yKu6DfBjhGhbY5gcZ4yYTir9D2m++K1KvDURv2XJwL1Y5UzbaszJ7YVKfK5m54/QzE6x0WexOBhilxugXxvgVxPnIUjPUYAvWAPE2c0iVNBHYa/5OJQEgJzMLHbl+s6r8jepXuOPLC2AxtcHm5DoPzOx0G8BJ8XwCxV1G2icAqPLXNhAnTo1DzTWGE5tm9iFSJU/Av1wkIcTTEYWxxsIaoJBOHGyEOQ4qqNUHFKidN3fD6WShMCRPCLTcmTpwTFGSrjeBehv4E1Q1yoAXExr8TNtxdCGXKdfIudouCkqPLV807KO+SdIIIuCaQMIvRqdwbyVJLJEtPJkrQZyqzQSA1LG8XG87S+OCQghLIdnKQJpRYbmqBWqcWg+BNAr+Aw5gw8eLxxqEE4k25LJgE+iGsJyHOl4ublaDCd0A7xKDi3VBHJky7hriu7Al19b1YHbZaOIDxhX04XnX1fAwH8DNji3ynuhPT7d+ykDWRHBecru7aFh0CK9E2NXDKfNM80dk8pWTJ+oV1OSyPCVMfaKr1WsthZQKr8YJD3G6Hwj63ZDfU4WqoJSQLFoFbEc6DUKNghWU1msvhrQSynTiVwudKyE/rhMI5r5B1uw8Kc8KE8A0/S+6Hqg5f5j6XxoTpPYiLJmyZB7iMzB/ffC9xjm3RQ/WqwmKBQZ9o5w9SlRo+AvwB2jpm+ITZpi16lq5p08v3D/TwMfI/YpfD8uajerxJV8Lk/3XO5oE3BGxNvRTqke3AEO07GrH+JkTxxiFUrsJ4I8TkPO7GxInzUGwnTut8Bp9E+Rwh8jQUlXtRfo5wcQIOhQuCVU6YagYhIAsxcKjeUKh5sb6qJk3Mw8LeSlgsE50fBgIJ/PBsXfyYWSfTvX1/MysMIUcwRpfD8haB583QKxHkGrYq8QvpOuiisAVeTbxXYH/QV/6rpgqR2c1k6XcQb/hkFQT4/nSROPnJnwt6/AU6HCq6V8DPQPMsm4uVcMEc1xbHhCnFvD6evAxtmfekjsjhccuTk6ZpDufpEBFwQyDVuzTLdETv0oOJBH6eVuaCAD98fw31dOCcc5fY3f6UA99yuSWBnbHpKGjvLXeFegtv4E6GmBTK3BHoC9dMENTDtOU1IJcLIQ5pi4LthEr0hoKQYHjJkw2M/aCtvSy0gLIexTlHQnHpYaqKiOs1PABtmftUPTLD66onMrPfK8Ox2iwCrgmUz11CstRNvUuuL4VxNSxvLWr+T4gtd7LqCfyCQ/yeh1B9FOE94gyEfnR4ww995LzBYy9mo9DXxL8KcMVHDv+SBZvAXQivmcMQmWBzqGBQhgm6QnEZHHeHmO/kbVWTprwL0AkiYIVAbbN08ixzSeLI8i9QKy7lJCOBptjzR8hFy+9/4fd6SJYbAc5BmJfboToqDQH1NqWBYmkTE6W7of0s+Quzm8cRfJswVyAmsZ+GerrobWoLv7c58h3ES3s/gio+aUoON9002CmI11cxgcB6DMX7QSScE+CwvLMgFy2br8DvJc4JKIC4EeDiFuptsn/VeWNzhH23ofS4HaL+E7RrKKOPT9Ccm8eGGJvG5OBFaFubTgPui8P0/gDlnTippyngV1bhbSSwU1nSnL3xlZ64IsBheSUOnH8An+dCnM8kEwGbBHiT09GmQ/kyHEJzojjkRYCNWadAbNiSBZMAFyPgkF+bPyT7GPzt6QDH1/D5CMS5z8dAnK/GnIOJCpc6Z68bE/1PIRe/qclFVPKeO6ekCdRkISCw1tRsu585eGiJvhAcXq2m8M1hedtYjmEi/F0FrbLsV+5EIEXgBDxR4pSi4e9jcxTfC7LdIp+pVrz5ewriqm59IN7w9YXYa8BhcXOhJBQE41zP/YMQiGLISICLy9ga2t4GvphM25zH9DH8scGD6yMMgF6APoSWQam/k4/w/DXoTuhQqAn0/6D1kC1rAEdXQnnlQWqRsHV55Kd4Agmz7XZ7YJFxY0YUX5hKyJMAPytcDMubDr+XQvotpjwvmA73lABvPg6APvG0VBWWjgCHzXRIt8PiNjbQPAQ9AqVLinjTV9n4/mAixWRvh8o7LD/fDv4Yx23Q9z74/tGHMuNWJBtgdoe+s1Bx9jLZGpa3CL76Q29D+SY/bJj4HcT37UtQR4g9Un7bFXDwAMSELifLK8PKqUQdJAL+EWiAdgomTTL7BFwMy+OH8D3QaPvVlUcR2IJAW2xRQ+MWWDzdcBxKYyu1S3sKzltA10JzoFTrOJ5mtMnYw1brdtB/oDWQK/Mz6fwclVrtqmIR8sveSr+H6DGBZ0OPjeSDw+f53n8DyjdhwikbbSGeHQ7Z6nVib1MfKGdGSppASxYaAmwxUdJk/3I1hUvbw/KYMF0PDYZk0STAFvz7oHOgfSEOIeGXV2PoMOh86HnIjxZzFJu38Qaked5nVZzwLzzwC5r1y0Xs4bBlbGnlXItc4srlmGeLCPwCnFso4yLclp/6A/7n/Is+0DdQITYPJ50LMXHJufW6EEfVnHMR9sdpUYgRqO+fISbcXG0x9VlCBuy14PUYDrlMZuF+o3GI3tYbX3n/hH+n5GFjKP2L8HMqxITHKxuAgviZWUwClmss7G3KORfa7MBEVzOs/GMzV1c6TgQsE8AnwZ6WXcbdnYtheWsB/WlocNzhR7T+vMHpDjWHroaeg76E1kE0JsyfQM9APaE9ICbtyyGXxiFjTJxk/hA4DsUyWXZhK+D0bIjzL3LpWaouxodxAG9aXSVOTP7i8F3JHg7OieHnye3Q29AMKPVZ8i2ej4XYMNAN2gW6E1oJubTOcO5nT9NlKN9G0kz+7NFaBXltTJzeh8q8LrhKefw76VZlW8aXNTLu0Q4RCBoB3Eq33d9sO/kxpz8QFzQqfsfDm5gSv51UKp8J09+haytt09NoEGBL5PlQV2gYlKvxBuceiDdHr+Z6kg/HbY8ymejJ/CFwAYrd25+is5bKhIlJxrtZj8p/p+vE6RyEzPdsFI3JUDeIiXY+q699j+P/BLEBZDrkytizy/c62oF9sUtRaj1fSt5U6BI87Qv9vGmT58/6oUT68dt6w0FO16Jq0sQWlnl+R6fyRaAIAnXXJ2LRglYEIs9O3QslsYXfRhd/KuhX8EQJU4pGdB7HoyqnQew9KtRm48Se0EOFFuDBefyb0LwmD0BWKaI1Xreqss3Wyz5w5HXClIqdidOjkB8t8SkfmR6vxI5mmXaGePsQxN4OGg4V2gvxBc49GvoccmV8z9fxwTmHyjX2odyqRfbHBjaE+Wksn42oqZ5Dv3ydnmvBVZMm5lqluZ6s40TAAYG6NZLly1M6cB0rl7wx7AGdZLHW7EXoa9GfXNkhwCEcTHY+9cAd5yTcAb3uQVmFFNEUJ+1WyIk6JysBvj8OzHqEPztLUOzb/hS9sVT2bPAG37Yl4LA9FKUknwnTeRB7moo13pD/CnKVODFpql1sJdKcz6F5fvcyvQgfHDq3Po1/rzc9gAKXeV1olfIa4HVOidOWSVPSyR93lfj1UgQyEqiJpiW+wWX+EmArXIm/LjYrfRxe8beYVm62VS/CTqAUFbgPmuNhRXjDNBByMbyGPU025gp4iCvwRW2NCA+HbN/cT4TP5yG/e4E4goe9TV9Dto3DmzhnIwo2HpXoBXmRMKV4MHEqgZanNlh87AxfdT32x88nJso1PS63anG3YcMvVTf69Jp/n09CfidoHAnBhoasVjVp4h/3pKxnaKcIuCVQL5FwNozDbc3teW8BVzdAtpLTKfDVH/LyxhrFyRwT4JCKuyE/WvLZcv+ig/opafIe+okoch/vi622xAdxxLRqj/LmgFdQzBBvisqrFCajO+d1RjAP5g36xZAfiecLKJf3vbz/tWn8LPG6oeAClMlGCD/tJRT+JWST12D48ztp6gYf1VrVpIkjLPllJBMBEYgnAX6Inwp1tVR9JkrXQ5Mt+ZMbewSegasnfHTHIXoTfCw/XdHbY+MO6XZoW8EEuuDMPQs+u7ATR+C0kYWdWvBZ/8SZvNm0bUfC4Va2nXrs72aU52eCy8adpR7HXF1xbJT0Omnid7fXvVdV6/EPbFhddaPPr6ejfN4r+JmoMYltVl09tkiaEp3wK8U1zNTqTtR+ERCBSBI4FLW6zVLNFsPPHdA7lvzJjT0CpXD1HLTWR5djUfYwH8vPVLSSpkxk8t/OVnEXC0A8C7+2Exi+X2fmj6joM36FEnYquhR3BcyG6/9BHKbll72Pguf7VXiWcnmjnsiyP59dLKuFh+Wl881rwYaqsnQ7fd7GDh2//XaFj6zXY4ukqbzSCSdfRD7zVvEiIALVEOCHLoflbVPNcV7s/h6FMGEa5EVhKiNwBDgkj/LbRsPBIr+dqHzfCByMknf1rfT0BTNZ+iT9Lt+38m9iue9eNnfAIXphTvTvRfxezmPanM6mV+wZX7HppZVn/M71qrfpApTFRgg/7TUU7mdDWLbYORolme0AD/a1qa6MdElTEnnW4OpO1H4REIHIEeiGGp1soVb80H0c4pwCWfQIMIn50FK1ZsDPLEu+Um4OwBNb8/1SPqP62BkV442jTRsGZ37MjcmlDk/hIA4zsmnbwdnuNh166IvfFUMgrprpt42Cg5/9duJj+V1Rdm0fy2fR7O1xlTRx3pnfPU1tWclsli5pMonOmBRXw3yV7UTtEwERiBQBtrDcZKlGg+DnGku+5MY+AQ7vnmjJrYukyVLVYuGGPU31LNd0GPwtsewz5Y49GQtSLyw+MtEP47ymtxD3D5Y4jYUf20kTGwy8WumON/xelZUJOZOm9Zl2+rydo1P8tsKSJkTFbO7vfken8kVABJwT4AcgG09Oh/axEM3r8HGVBT9y4Y4AW/FtNbqx1dPFTag7utHxzKFEDS1Xh8O8bPdMVq3iB9hge4jeYfAZxiF6HH77U1WAPr6ehLJtJgVN4M+L4Xnssa3jIxcWPRuyyaZqdaZjg989TeyVzfp3kuliJdEB9yRy1ltQgIYhVL10eu2SwHr82dhqeXJZT1u+V8NRO+haCw7fgI/fQPotJguwHbpgEmNzCAd7m36EtnVYZ7nOnwAbaWwnTePhc3H+oXp6xqcobRm0o6elZi+MPU31sx8SyL38rrd5oz4P/vjZ5XePjdewOVIk0/28V754HbgSI3vjEl4Vmkc5vC5pR8flUUYuh7K3aUimAzNCThxjvksOR29TmflTppO1XQQcEPgZv9M0zYHfKLrkh9CeUG/I78UfpsLHzZASJkCQiYAIlPds20wciJxJE+fcuTS2mNtu+NsDPsM4PG8U4mbDni37DI7oL2ysuiBmv3ua9oUPDpeMurG3KaNly9rKkG8/gDNXZDxbO0RABMJMIIngOWzjIp8rwZZdfpZw6IMs+gRszwtgT9Os6GONXA1d9DTxvbLKMUneU7Fn1KbxRlCjhmwSt+urNdxl7ASxG0rovbGnKWNPWrakybC3CZ1hfw89AlUgSgR+xLuZrU+y4gm0QBFMmPz+MbxG8HFS8eGqhBAQ4M2grflMIcChELMQ2BX76mXZ78euhX4UWkCZY3HOLwWcV8wpGr5aPT2OiGBPU9jMdo9t2Ph4Fm/WpAle1NvkGWoV5AmBpFm9/GvdlHnC0pidUc4hHpVVXTHH44CbqjtI+0VABGJDgEmTTeMiEEEZHszGBQ6Ptmmc1xS2YWc2+dCX7TlUXtRPvUxeUNxUBlc0zGjVJU3sbVqOKXF9M5agHSJgi0BtjO/6wizpXmLW2XIpP54RYIvyhRCTJ5kIiIAI+D0Hoyph9jIFJWn6ArHYHqJXlYdeR4MAh15Wey8fjapaqUXTbF5yAZ1MdDEv45K8nq0g7RMBCwRWY6QpJ2rKwkmgGcK+DvL7V8vDSUdRi0B8CLCXu6Hl6n4Df0FJmixXXe4iTIAr56FJWWaDQC5JE+PgMD32NnECo0wEXBFYkUiaMa6cy68nBDqjFK6iJxMBERCBuBJwsYIeh+eFcdnxuL5HVO8AEsg1aUoN0zsjgHVQSPEhoEUgwn+tucLP2ZCG6YX/WqoGIhAmAkHqaWIDtO05TVwIQiushekdm1usHJ6H9bFkNgjknDQhGA7TG4L5Tb+1EZh8iMBmBDifabpZ0Oa3Zu5m2/UijASaI2j+/htX1ZOJgAiIgA0CnNP0kw1H8iECFgloeJ5F2PkkTQyLidMgJE7/32KMciUCJLACPyr0tlBEhsARqMntkamNKiICIiACIiACIhBpAvkmTYSxHolTHyVOkX5fBLFy32M+0ztBDEwxFUzgRJx5VsFn60QREAEREAEREAERsESgkKSJoSlxsnSB5AYEMDRvygwzr91FZpJ4RIrAHqjNlZCG6UXqsqoyIiACASTAJc71cx0BvDAKKTwECk2aWEMlTuG5zmGPdGkyaf4V9koo/rQEOEzv/rR7tFEEREAEvCOwL4rawbviQlfSNESsOV2hu2wK2DKB4dn8FZM0sVwmTr21OEQ2xNrnAYFl69ab/3pQjooIJgEO07ssmKEpKhEQgYgQaIB62P5B3Uzo9sMOrnomEwERCBGBYpMmVrUMidPj+Cg6FM+/DlHdFWoYCNQ2K6Z8YQZ3uNj68qxhoBOVGLdHRXpBzaNSIdVDBERABLIQ4PLfGHguE4GiCZSihPVFl6ICciLgRdJER8nEEeZTPLaF3uQGmQh4ROCbtevN3zwqS8UEl0AHhHZbcMNTZCIgAiEnsBvi3yYgdWCvl+3fTOLwvF8CUn+F4R2B+ShKSZN3PDk8D4s1pzevkqby0hPdzVLoVHwU9MSGBeldaqsI5EhAvUw5gorMYfzx7D9GpjaqiAiIQCYCS7CDv5tk03aFs6AkTfsjFtvD87gQhEwERKAIAp4mTRviKEt0Ns+beuh1Spi7sI2/fC0TgUIIqJepEGrhPaceQucwPS4OIRMBERABLwk0RmFBWQhid8SylZeVq6YstpyvquYY7Q4ngR8Qdlk4Qw9k1MOyReVb93Cio1kGxzclPzH3mZXmaiRQnOhdP1sw2icCGwnUNksnf2Hu1FymjURsPmF3/3tQJ+gAm47hiy2wV0CjLPuVOxEQAbsEZsIdl8D27T4kTXUaptnmYhOTJpvGkT8ammeTuD1fk+FqrQV37ADhz75EeShgAvXLODSPjH3/sNqQPN2YHGUeMGvMMPjkTZFMBDITwPTYqTPMJ237m6czH6Q9PhHgTczLEH8/ibofsm0nwSGH6d1t27H8iYAIWCPA5a/XQL7fh1SqEedOct41W+ddGRMm28nbx/D5vasKy6+vBOahdBuJDP9WT4ZiPczTj+F5ad8dWCjie6wVoz/atHS0sQqBueiZvLzKNr20Q+BDuLl5g6v38DjRjtvNvHCYXn/ouM226oUIiECUCPCzxfa8pvbw2cgxRK40vJPlGNjTpOF5lqFbcscGABtJExN9azmDJXZ5u4k9gLyJ6QR/CVQMy7uldT8zx19HKj0NAXbzcxgtu+FpXG2J8xJd2N5weh20tQvn8ikCIuA7gS/hgcP4bRqTpl1sOkzji0kTb0BtGj/L2bMniyYBfnfbSJy6wk/NaCLMrVZKmnLjpKNsEKhl1k+Zad7TsDwbsLfwwS5+9jDxRqayjcaL/1beYPF5F/i6yaI/uRKBOBJgEsHfDbJtbBiznTRx9bwDbVe0ir8j8NrmIhB0PwXi0GtZNAkwabJxfU+FnzrRRJhbrWwmTUkMuSrNLSwdFVMC49r0M+fFtO4uq83u/Qeh19ME8Q22PQStTLPP702c63AOdKzfjlS+CMSYAFeVc5E0EXnVRhobl6EbnOxmw1EaH+xlIm+b9jmcfWfToXxZJzAVHm0kTafBT6x/lNlu0pQ0bM2WicCWBGqbiVPm4je+ZLYJ8IOWC24MzOJ4fDX7s5xa9C4O02Nv085Fl6QCREAE0hFojo2N0u2wsG0CfCyy4Keyi1PwgnV2YUfDqe2kiYtAKGlycbXt+RwOV1yowW/jsNK+UGwTJ7tJk1FPk9/v6FCWX8sswLC8/m16mcWhjD/cQQ9B+DdWUwVOIP4fxInbLozD9EpcOJZPEYgBgb1QR1eNEvxM+dYyYw7R+xXkYr4kGwYbWK4vF/RZatmn3NklMN/iNeYw/rp2qxccb3aTJvU0BefKByWSWmbhZ7PMBRiWxxZHmV0Cs+HuL9CKHNxyiMeDORzn1yFc6vRMvwpXuSIQcwL7Oqo/59qUOvB9EXweZNnv7+HPNmcOvZ5uuZ5y54bAa3C72oJr9jbdCsUycbKZNJUlOpth8e3Us/BWDpuLioTp3IP64n0hc0GAPwEwIw/HQ3Hsm3kc7+WhTVDYFZCrFnEv66KyRCBoBDohoKaOgvoAfm3/HAmHyJ0E2extOh/+doRs2gtwttCmQ/lyRmAEPNsYoscKXgWdDXHecazMZtJEsPylXf0Bx+otlqGytcznU2ebU5QwZeATzM2lCGugw9A4TM+lf4dVl+uYEZiK+tpcIvoU+DvYEWPe7M1z4Ptq+Gxnye/18ONi1T4NzbN0gQPgxlZPU6qqj+HJ4ZDtPCLl38mj7cqWYQW9YU5qKqfBIVDLTMKiD0e17mPGBycoRZIjAU4qvi3HY/04jMP0BvhRsMoUgZgT6IP6N3XAYAp8fubAL+c23QBxTpef1hKFXwA18NNJmrI5pNrVPNQ04WiTBQKD4cPGED1WpQ70LsTv49gsDGE/aUqa4QAsiyeB1ejMfQLDNNtp0YfQvgG4KMTLkIulggltB6gX1IwvZCIQUQIrUS9bNz8phOxt6ge5GHLzPvzaXkWP9WYjTB/Ir2F6CZT9AOSil0lD8wA+ZvY66mvzc4N/Nw9Cj0C2f3sMLu2b/aSphpIm+5c5AB5rmeWfzzcXI2G6MADRKITiCEzC6X8proiizu6Is28tqgSdLALBJlCK8FwkEVwZ6z6oIWTTBsOZq8WASuCb30t+JIsPo9xjINvGqRCvQjaHeNquo/xtSWA4Ns2AeP1tGv9+SiE2QtSEgmptEVizYoKznTQlE53MHHw0TS8maJ0bIgJJU4brPXLGTNOpVW/DL0ZZNAgMRTXecliVHvB9nUP/ci0CfhLgzy/YXhwhVZ/L8GQkxL+vXVIbc3jcG8c0hQpNPkbg3J8hF8bW8kugQmNPFzNb3/t7XGY6P+m2sXdrbrod2hZ5Aneghi6SZX5WvA6NhE6AgpI8cZn/gRBXC+Zw1TOhBFSQefkBkWsA63Egb57vzvUEHRdSArXM3Gmzze0H9jGDQloDhZ2ZQCl2cSLoiZkP8XVPPZTeG/oIGuOrJxUuAvYJsJfJVdLE2u4H3QPxBowt119AcyAOG2RjK4cAtYF2hXhzxOFn20P3QiUQfzQ7X3scJ5wEHZnviR4dz8SJqwheA31TRJl74NxnIC5c48KScPo05PL946Le8llBgIkLG11sz6FL8T8MT9igyr8hvg9fgsZBZZDfth0ctIa6Q103PFZNkPi5xW38O8nbXCRNZfiIfRUfqUqa8r5coTnhJ7TXPTBnmvnbgRcb/k6ELJoEhqJabNG80lH1DoBftooraXJ0AeTWNwLfoeR5vpWee8Gc4N1qg3I/q7Ajl+C0f0P7Qo0KK6Los36DEpg4MWHkDV++LfZX4BwOcWwIuTImfRrN44q+e79MBm6DHoa2cRjObvB9/QYtwONwaBhUCvHegR0ohVoTnNgMagrtBTERagtxWwLKZk2z7axun4ukiUP0ZidHmrfN2vIuvOpi1P7wENiYLO2tZCk8V63wSJkQPwfxRoNd8y7sNDi9FmILt0wEokRgLirDHhsX39OuOA6G41OgHq4CgF/ehPGGswRibzoXVJgGrYHSWTtsPAO6CHL1OZiK6ys8eRv6JbVBj7Ek8BRqfSnUAaouibABiL2v521Qyt+PeDIJYg8Un0/e8BwP5caeMv5tpeLncd0g9nQXY51xcqrMvMtx9WHMDJMfjifkHbFOCBoBXsup6D3817SZ5rkD+5vlQQtQ8fhK4GOUfivEmwwXlhqmNxLO1ePk4grIp18E5qDgRdDufjkIaLnsbeLNUnPH8TWC/5s2iAnTVOgHiDdtvIHbCuJQoPpQUOwPCGR6UIJRHE4JsDHxNWhbp1Fkds64ulTafWql534/Za/UBCiZr6NiM7Z8/aWOL0scaV7Byu4LUxv0GDoCK9D+OXDmV6Zbortpl+hiHlHCFLpr6FXA76Cgt7wqrIByDsQ5JRBvYmQiEBUCn6Mi86JSmTzqwc8T9mCzly0oVgeBtIeOgrpteOQwviAlTIMQzwhIJgIkMBx6HlrLF7LNCDBpKshcJU0Mlh+IbKGWhY1ALbPmy6/M81g+/JqWvcpXSglbDRSvtwQ4jGiwt0XmXRpvZm7I+yydIALBJfAFQpsR3PB8jex2lP6Rrx6iVTiH5f0NWhKtaqk2RRL4Lc6fX2QZUTydc6AShVTMZdK0Hr1NT6K36dtCAtc5TgksWZ8snyjrNAg5DxSBoYjmcYcRcajxudCvHMYg1yLgNYFhKHCZ14WGoLxViJFDzaaEIFbXIXKoYG+I865kIlCZQBIvLoRWVN6o5+WLRhSEwWXSxIDXIde7raDIdZIbArXMqpml5n/79zYz3QQgrwElwBZOzkXgHAxX1gKOuXKUhum5ugLy6zWBsSgwrr1Nk1H3ByAunyzLTKA/dqlXLjOfuO/hML2bITZEyCoIdMZD6HqaGPr6xBHmCVPHfFxRD/0fAgIz6tUtnxwbglAVomUC4+BvoGWfVd0diw0cpiITgSgQ4BA9TliOqw1CxdmDHaT5TUG6Fn9HMK+IT5AuSSBj4fvkEYgLmsgqCHBeU96Jk+ueJobOi3gVn8gCTqCWWfzlHHPtnj3VYhHwK+UqPN7YvAq5bvXkksVcilwmAlEgwMnccR56dSPqz5s+TWjf/N1MJrdC322+Wa9EIC2B67F1FLQ+7d74bSxoMYggJE1J9DaNQ2/TX+N3zUJU41pm5cxS8/C+vc0HIYpaodonwGGbD9t3u5nHJnh1BbTTZlv1QgTCSWAEwh4WztA9i5rDbv8BqcepAilZKGGqYKH/cyPAvx2OxODniRInY5qCQyh7mhC3WYvE6RYkThyKIAseAf6xvd/yAq12GLxLE8iIhiCqJxxH1h3+/+w4BrkXAa8I/A8Fxbm3iRyZOD0IxT1xYsJUAqmHCRBkeRFQ4rQJV9dNT3N/FoSeplS0q/GkH6TJaikiwXhchx+ufRPLi58RjHAURQgIcOL2U9DPjmM9H/4vdhyD3IuAFwSGo5AXvSgo5GVwKP9dkOvPFlcYWf8/QkqYXF2B8Ptl4nQCxAaIOM9xCu2cptRbkMP0xqK36erUBj06J5DED9iOmVJqznMeiQIIG4FPEfD9joPeAf57QU0dxyH3IuAFgTtRCCf9x91uAYA+0IIYgeCy8/we/iekhuUYXXifqspOij9A10G/+OQj6MU2QIBN8w0ySD1NjJ2r6f0bv930aL4V0fGeE2AP02voYerSppdZ6XnpKjDqBNgS/Bw0yXFFO8G/huk5vghy7wkB3ujcAI3xpLRwF8LFMY6ChoW7GjlFz+vN3597FtJiGDkh00E5EuBiIkdCn0H8Tae4Wd69TUFLmnjB1uJHby83dQ3HcMvcEFiFhOmRRBdzuhv38hoRAlNRj3sCUBe+jzVMLwAXQiEUTYDzfvtBSpyM+RIcmEzcDUW1Ya8EdTsOmgjJRMAPAuNRaAeIc+XiNlwvEkkT3xRrEp3Q/V5HP6BKGFatpvl+1jfmMiRMl1v1K2dRJTASFWOrsEvjML1LocNcBiHfIuARASVOm0ByfgZ737pAUUok30N9WkO3QisgmQj4SYC92FdCR0D8zo7L6np5LwYRxJ4mXK9yW4XL1g3PZlS81P++EkighaGm+c/sr03rfc4r/zFBX92p8NgQ4LyDhyDXE7dbIYbLYkNdFY06ASZOp0IvRb2iOdZvAo7jUNwzoLk5nhPEw+YhqBMhTtRnT71MBGwS4A/Ud4Z6QtOhqA/Zm4Q65mVBTpoMejsWmq0NM0HOjYiLzcLblGNMB1upcNKUIVmaMHuBOR28z23xG/OVFb9yEicCQVgUgrw5TE8LzcTpnRftui5F9XpAAyA+l1UslHEAQHCVuVlQWG76ePPWF2LjzttQGSQTAVcE2BjDv6MoJk9TUC/eBzSHLofy+lsLdNKEypjEYWZRorvpHfk5TkxeaphxC5eYoxNHmVGocz+zAz5Ak1gWkr1A3ttarIw3dM5CcwqSpfYtzi//oPbei0oUgYpeppcBYrZjGPXgvw/U0XEcci8CXhJ4BIW1hv4Gfe9lwSEt6xfEzZU794F40zcaCuICCkzo3oDYSHoI9CT0EyQTgaAQeAGBMHk6HHoYWgKFpSECoW40JkrXQEyU2kD3QXOhvC3wSdOGGq3GHKfzzVbmprxrGI4T1qK353kz1HTcraeZvyHkskRb8zkSqMub9THb4V9vbOeNJ78QCjWOU/0MydnNX35j9sPKeEftfZ55q9DCdJ4I5EGAk005Ydu1sSX3Fmgr14HIvwh4SGAhyroW4vu7BFoEyYzhTR/naTApuQOaCbm+6ZuIGK6AGkKnQKMgzs2SiUBQCXyCwH4PNYPOhR6FgpxAMUl6CroQ4t8ZE6WBUEGJEs7baImNz8LxpEZyFFqJ15QnD7uEI+RqoqxhVn67xFy/61nl8z6qOdiY9sbUHjcRXwDfmW44uBV6ofbEI98U+0OVjclVxYS+pBmCXqXJpd+ayc16mm8rH6TngSJQF9G0gBpDTHD9tBoo/AdoKuRHT2a62LfFxoMg1jOvLvF0hRW4jfVma+6X0HfVlMGeqX0h/n35fT1qwQdvdKdDXt9A8TOCrYWc7Oun8fuEsfPG1OZNewP443XaHvL7OtWGj/nQLAu+4KJg2wZncnGEftDxUH3ID2OyNgH6GHoJ4vvXdVKCELIaP2M5VPc4iC3oZOWnLUDhI6DhEJO45VBYjb13u0L8HPXb6sABE8qVfjuqVD4/89tC/I7y+31MhnxvzIb8/tyCC1+M3yv8WyKz7hC/K23nFUyQSiE+DoP4eVTddzsOKcxsV66wKKuclRyLm8qV5Vnkr6rsCs/LirlEk79eZvrucaaZHJ7AFakIiIAIiECICDDR2xtiEtUJ2hlqD+Xa8Mgbu1LoZ4gJ8QyI23hDy9bmsNt+qMBhEG/8yKk1tAeUb2LAxqdpEBl9DY3ZoG/w6KqRCK5lImCNABvo9oKYQDG/4GcOH9nTs+OG53jI2ebjyFTv0Dw8L4XY2DsJYmLER7+TW7jYZKxMWK1WcjTGK68u73Jjy3x4LIEvn4S5a9oic++BPa218oeHjyIVAREQARGwRYAJQjNoK2gxxF5YJkhxN/Z0sGd8OyhT0lML+76FyMzvnly4kIlAJAhsi1qwkSLVMMHHYVCmvzPsCoaFOWkqJ4jheo3wUXUNkpAB2OB3N3uxV20t3iKvL15qrt2lh5lTbGE6XwREQAREQAREQAREQAREwH8CoU+aNiBKJEdiTPtaczte/9p/bHl7YLL01jdLzK27n6Vf9s6bnk4QAREQAREQAREQAREQAYcEopI0pRAmkh+j52nVhp6npOGkPnfGpcIT5j8Ll5sHdzvDjHcXiDyLgAiIgAiIgAiIgAiIgAgUSiBqSVNlDrWTY0x/LNB9KjYeX3mHr8+5wEMCKwjVMPctWWTeaqTV6nzFrcJFQAREQAREQAREQAREwG8CUU6aUuwSyRFmJyzo2ANrbHRBQsPVPHZP7fTocS3KfR96ddkSM2Kns8wXHpWrYkRABERABERABERABERABBwTiEPSVBVxDay61xwD59qhT6gdEp0jcQA58DG7VfQicQGHuUjAJuEHaectWmrGN+5R/hsV2c/VXhEQAREQAREQAREQAREQgVASiGPSlO1CJZLj8ONcP2JN+cSGHxurYcqWLzVzGvYo/12KbOdqnwiIgAiIgAiIgAiIgAiIgAiIgAiIgAiIgAiIgAiIgAiIgAiIgAiIgAiIgAiIgAiIgAiIgAiIgAiIgAiIgAiIgAiIgAiIgAiIgAiIgAiIgAiIgAiIgAiIgAiIgAiIgAiIgAiIgAiIgAiIgAiIgAiIgAiIgAiIgAiIgAiIgAiIgAiIgAiIgAiIgAiIgAiIgAiIgAiIgAiIgAiIQLAI/B/xCPd8bZhmiwAAAABJRU5ErkJggg==;" vertex="1" parent="15gxBGkXHDmCzy9u11-4-1">
          <mxGeometry x="258" y="605" width="131" height="24.8" as="geometry" />
        </mxCell>
        <mxCell id="15gxBGkXHDmCzy9u11-4-45" value="致知電子版" style="rounded=1;whiteSpace=wrap;html=1;labelBackgroundColor=none;fontSize=9;" vertex="1" parent="15gxBGkXHDmCzy9u11-4-1">
          <mxGeometry x="379" y="395" width="120" height="60" as="geometry" />
        </mxCell>
        <mxCell id="15gxBGkXHDmCzy9u11-4-47" value="" style="sketch=0;points=[[0,0,0],[0.25,0,0],[0.5,0,0],[0.75,0,0],[1,0,0],[0,1,0],[0.25,1,0],[0.5,1,0],[0.75,1,0],[1,1,0],[0,0.25,0],[0,0.5,0],[0,0.75,0],[1,0.25,0],[1,0.5,0],[1,0.75,0]];outlineConnect=0;fontColor=#232F3E;gradientColor=#F54749;gradientDirection=north;fillColor=#C7131F;strokeColor=#ffffff;dashed=0;verticalLabelPosition=bottom;verticalAlign=top;align=center;html=1;fontSize=12;fontStyle=0;aspect=fixed;shape=mxgraph.aws4.resourceIcon;resIcon=mxgraph.aws4.amplify;labelBackgroundColor=none;" vertex="1" parent="15gxBGkXHDmCzy9u11-4-1">
          <mxGeometry x="491" y="1105" width="78" height="78" as="geometry" />
        </mxCell>
        <mxCell id="15gxBGkXHDmCzy9u11-4-48" value="" style="endArrow=classic;html=1;rounded=0;fontSize=9;" edge="1" parent="15gxBGkXHDmCzy9u11-4-1">
          <mxGeometry width="50" height="50" relative="1" as="geometry">
            <mxPoint x="199" y="855" as="sourcePoint" />
            <mxPoint x="629" y="855" as="targetPoint" />
          </mxGeometry>
        </mxCell>
        <mxCell id="15gxBGkXHDmCzy9u11-4-49" value="&lt;ul&gt;&lt;li&gt;『致知』カード決済&lt;/li&gt;&lt;li&gt;&amp;nbsp; 書籍&lt;/li&gt;&lt;li&gt;&amp;nbsp; 音声配信/CD/DVD&lt;/li&gt;&lt;/ul&gt;" style="text;html=1;align=left;verticalAlign=middle;resizable=0;points=[];autosize=1;strokeColor=none;fillColor=none;" vertex="1" parent="15gxBGkXHDmCzy9u11-4-1">
          <mxGeometry x="94" y="230" width="160" height="70" as="geometry" />
        </mxCell>
        <mxCell id="15gxBGkXHDmCzy9u11-4-50" value="&lt;ul&gt;&lt;li&gt;『致知』振込用紙&lt;/li&gt;&lt;/ul&gt;" style="text;html=1;align=center;verticalAlign=middle;resizable=0;points=[];autosize=1;strokeColor=none;fillColor=none;" vertex="1" parent="15gxBGkXHDmCzy9u11-4-1">
          <mxGeometry x="230" y="245" width="150" height="40" as="geometry" />
        </mxCell>
        <mxCell id="15gxBGkXHDmCzy9u11-4-51" value="&lt;ul&gt;&lt;li&gt;致知電子版&lt;/li&gt;&lt;/ul&gt;" style="text;html=1;align=center;verticalAlign=middle;resizable=0;points=[];autosize=1;strokeColor=none;fillColor=none;" vertex="1" parent="15gxBGkXHDmCzy9u11-4-1">
          <mxGeometry x="373" y="245" width="120" height="40" as="geometry" />
        </mxCell>
        <mxCell id="15gxBGkXHDmCzy9u11-4-52" value="&lt;div style=&quot;text-align: left;&quot;&gt;&lt;span style=&quot;background-color: initial;&quot;&gt;・現行のデータベース&lt;/span&gt;&lt;/div&gt;&lt;span style=&quot;background-color: initial;&quot;&gt;&lt;div style=&quot;text-align: left;&quot;&gt;&lt;span style=&quot;background-color: initial;&quot;&gt;　＝パブリス&lt;/span&gt;&lt;/div&gt;&lt;/span&gt;" style="text;html=1;align=center;verticalAlign=middle;resizable=0;points=[];autosize=1;strokeColor=none;fillColor=none;" vertex="1" parent="15gxBGkXHDmCzy9u11-4-1">
          <mxGeometry x="510" y="250" width="130" height="30" as="geometry" />
        </mxCell>
        <mxCell id="15gxBGkXHDmCzy9u11-4-53" value="Technical" parent="0" />
        <mxCell id="15gxBGkXHDmCzy9u11-4-54" value="" style="endArrow=classic;html=1;rounded=0;fontSize=9;" edge="1" parent="15gxBGkXHDmCzy9u11-4-53">
          <mxGeometry width="50" height="50" relative="1" as="geometry">
            <mxPoint x="438.5" y="385" as="sourcePoint" />
            <mxPoint x="438" y="665" as="targetPoint" />
          </mxGeometry>
        </mxCell>
        <mxCell id="15gxBGkXHDmCzy9u11-4-55" value="" style="endArrow=classic;html=1;rounded=0;fontSize=9;" edge="1" parent="15gxBGkXHDmCzy9u11-4-53">
          <mxGeometry width="50" height="50" relative="1" as="geometry">
            <mxPoint x="198.5" y="385" as="sourcePoint" />
            <mxPoint x="198" y="665" as="targetPoint" />
          </mxGeometry>
        </mxCell>
        <mxCell id="15gxBGkXHDmCzy9u11-4-56" value="" style="sketch=0;points=[[0,0,0],[0.25,0,0],[0.5,0,0],[0.75,0,0],[1,0,0],[0,1,0],[0.25,1,0],[0.5,1,0],[0.75,1,0],[1,1,0],[0,0.25,0],[0,0.5,0],[0,0.75,0],[1,0.25,0],[1,0.5,0],[1,0.75,0]];outlineConnect=0;fontColor=#232F3E;gradientColor=#4D72F3;gradientDirection=north;fillColor=#3334B9;strokeColor=#ffffff;dashed=0;verticalLabelPosition=bottom;verticalAlign=top;align=center;html=1;fontSize=12;fontStyle=0;aspect=fixed;shape=mxgraph.aws4.resourceIcon;resIcon=mxgraph.aws4.database;" vertex="1" parent="15gxBGkXHDmCzy9u11-4-53">
          <mxGeometry x="160" y="715" width="78" height="78" as="geometry" />
        </mxCell>
        <mxCell id="15gxBGkXHDmCzy9u11-4-57" value="" style="sketch=0;points=[[0,0,0],[0.25,0,0],[0.5,0,0],[0.75,0,0],[1,0,0],[0,1,0],[0.25,1,0],[0.5,1,0],[0.75,1,0],[1,1,0],[0,0.25,0],[0,0.5,0],[0,0.75,0],[1,0.25,0],[1,0.5,0],[1,0.75,0]];outlineConnect=0;fontColor=#232F3E;gradientColor=#4D72F3;gradientDirection=north;fillColor=#3334B9;strokeColor=#ffffff;dashed=0;verticalLabelPosition=bottom;verticalAlign=top;align=center;html=1;fontSize=12;fontStyle=0;aspect=fixed;shape=mxgraph.aws4.resourceIcon;resIcon=mxgraph.aws4.database;" vertex="1" parent="15gxBGkXHDmCzy9u11-4-53">
          <mxGeometry x="400" y="715" width="78" height="78" as="geometry" />
        </mxCell>
        <mxCell id="15gxBGkXHDmCzy9u11-4-58" value="" style="sketch=0;points=[[0,0,0],[0.25,0,0],[0.5,0,0],[0.75,0,0],[1,0,0],[0,1,0],[0.25,1,0],[0.5,1,0],[0.75,1,0],[1,1,0],[0,0.25,0],[0,0.5,0],[0,0.75,0],[1,0.25,0],[1,0.5,0],[1,0.75,0]];outlineConnect=0;fontColor=#232F3E;gradientColor=#4D72F3;gradientDirection=north;fillColor=#3334B9;strokeColor=#ffffff;dashed=0;verticalLabelPosition=bottom;verticalAlign=top;align=center;html=1;fontSize=12;fontStyle=0;aspect=fixed;shape=mxgraph.aws4.resourceIcon;resIcon=mxgraph.aws4.database;" vertex="1" parent="15gxBGkXHDmCzy9u11-4-53">
          <mxGeometry x="280" y="715" width="78" height="78" as="geometry" />
        </mxCell>
        <mxCell id="15gxBGkXHDmCzy9u11-4-59" value="" style="sketch=0;points=[[0,0,0],[0.25,0,0],[0.5,0,0],[0.75,0,0],[1,0,0],[0,1,0],[0.25,1,0],[0.5,1,0],[0.75,1,0],[1,1,0],[0,0.25,0],[0,0.5,0],[0,0.75,0],[1,0.25,0],[1,0.5,0],[1,0.75,0]];outlineConnect=0;fontColor=#232F3E;gradientColor=#4D72F3;gradientDirection=north;fillColor=#3334B9;strokeColor=#ffffff;dashed=0;verticalLabelPosition=bottom;verticalAlign=top;align=center;html=1;fontSize=12;fontStyle=0;aspect=fixed;shape=mxgraph.aws4.resourceIcon;resIcon=mxgraph.aws4.database;" vertex="1" parent="15gxBGkXHDmCzy9u11-4-53">
          <mxGeometry x="520" y="715" width="78" height="78" as="geometry" />
        </mxCell>
        <mxCell id="15gxBGkXHDmCzy9u11-4-60" value="" style="endArrow=none;html=1;rounded=0;" edge="1" parent="15gxBGkXHDmCzy9u11-4-53">
          <mxGeometry width="50" height="50" relative="1" as="geometry">
            <mxPoint x="200" y="855" as="sourcePoint" />
            <mxPoint x="200" y="795" as="targetPoint" />
          </mxGeometry>
        </mxCell>
        <mxCell id="15gxBGkXHDmCzy9u11-4-61" value="" style="group" vertex="1" connectable="0" parent="15gxBGkXHDmCzy9u11-4-53">
          <mxGeometry x="139" y="485" width="120" height="60" as="geometry" />
        </mxCell>
        <mxCell id="15gxBGkXHDmCzy9u11-4-62" value="" style="rounded=1;whiteSpace=wrap;html=1;" vertex="1" parent="15gxBGkXHDmCzy9u11-4-61">
          <mxGeometry width="120" height="60" as="geometry" />
        </mxCell>
        <mxCell id="15gxBGkXHDmCzy9u11-4-63" value="Stripe" style="rounded=1;whiteSpace=wrap;html=1;" vertex="1" parent="15gxBGkXHDmCzy9u11-4-61">
          <mxGeometry x="10" y="10" width="51" height="40" as="geometry" />
        </mxCell>
        <mxCell id="15gxBGkXHDmCzy9u11-4-64" value="Shopify" style="rounded=1;whiteSpace=wrap;html=1;" vertex="1" parent="15gxBGkXHDmCzy9u11-4-61">
          <mxGeometry x="61" y="10" width="51" height="40" as="geometry" />
        </mxCell>
        <mxCell id="15gxBGkXHDmCzy9u11-4-65" value="" style="group" vertex="1" connectable="0" parent="15gxBGkXHDmCzy9u11-4-53">
          <mxGeometry x="380" y="485" width="119" height="59.5" as="geometry" />
        </mxCell>
        <mxCell id="15gxBGkXHDmCzy9u11-4-66" value="" style="rounded=1;whiteSpace=wrap;html=1;" vertex="1" parent="15gxBGkXHDmCzy9u11-4-65">
          <mxGeometry width="119" height="59.5" as="geometry" />
        </mxCell>
        <mxCell id="15gxBGkXHDmCzy9u11-4-67" value="Stripe" style="rounded=1;whiteSpace=wrap;html=1;" vertex="1" parent="15gxBGkXHDmCzy9u11-4-65">
          <mxGeometry x="9.92" y="9.92" width="50.08" height="39.28" as="geometry" />
        </mxCell>
        <mxCell id="15gxBGkXHDmCzy9u11-4-68" value="AWS" style="rounded=1;whiteSpace=wrap;html=1;" vertex="1" parent="15gxBGkXHDmCzy9u11-4-65">
          <mxGeometry x="60.49166666666667" y="9.916666666666668" width="50.575" height="39.66666666666667" as="geometry" />
        </mxCell>
        <mxCell id="15gxBGkXHDmCzy9u11-4-69" value="" style="endArrow=none;html=1;rounded=0;" edge="1" parent="15gxBGkXHDmCzy9u11-4-53">
          <mxGeometry width="50" height="50" relative="1" as="geometry">
            <mxPoint x="318.5" y="855" as="sourcePoint" />
            <mxPoint x="318.5" y="795" as="targetPoint" />
          </mxGeometry>
        </mxCell>
        <mxCell id="15gxBGkXHDmCzy9u11-4-70" value="" style="endArrow=none;html=1;rounded=0;" edge="1" parent="15gxBGkXHDmCzy9u11-4-53">
          <mxGeometry width="50" height="50" relative="1" as="geometry">
            <mxPoint x="440" y="855" as="sourcePoint" />
            <mxPoint x="440" y="795" as="targetPoint" />
          </mxGeometry>
        </mxCell>
        <mxCell id="15gxBGkXHDmCzy9u11-4-71" value="" style="endArrow=none;html=1;rounded=0;" edge="1" parent="15gxBGkXHDmCzy9u11-4-53">
          <mxGeometry width="50" height="50" relative="1" as="geometry">
            <mxPoint x="558.5" y="855" as="sourcePoint" />
            <mxPoint x="558.5" y="795" as="targetPoint" />
          </mxGeometry>
        </mxCell>
        <mxCell id="15gxBGkXHDmCzy9u11-4-72" value="" style="sketch=0;points=[[0,0,0],[0.25,0,0],[0.5,0,0],[0.75,0,0],[1,0,0],[0,1,0],[0.25,1,0],[0.5,1,0],[0.75,1,0],[1,1,0],[0,0.25,0],[0,0.5,0],[0,0.75,0],[1,0.25,0],[1,0.5,0],[1,0.75,0]];outlineConnect=0;fontColor=#232F3E;gradientColor=#4D72F3;gradientDirection=north;fillColor=#3334B9;strokeColor=#ffffff;dashed=0;verticalLabelPosition=bottom;verticalAlign=top;align=center;html=1;fontSize=12;fontStyle=0;aspect=fixed;shape=mxgraph.aws4.resourceIcon;resIcon=mxgraph.aws4.aurora;" vertex="1" parent="15gxBGkXHDmCzy9u11-4-53">
          <mxGeometry x="630" y="805" width="115" height="115" as="geometry" />
        </mxCell>
        <mxCell id="15gxBGkXHDmCzy9u11-4-73" value="" style="shape=actor;whiteSpace=wrap;html=1;" vertex="1" parent="15gxBGkXHDmCzy9u11-4-53">
          <mxGeometry x="510" y="1010" width="40" height="60" as="geometry" />
        </mxCell>
        <mxCell id="15gxBGkXHDmCzy9u11-4-74" value="" style="shape=actor;whiteSpace=wrap;html=1;" vertex="1" parent="15gxBGkXHDmCzy9u11-4-53">
          <mxGeometry x="179" y="305" width="40" height="60" as="geometry" />
        </mxCell>
        <mxCell id="15gxBGkXHDmCzy9u11-4-75" value="" style="shape=actor;whiteSpace=wrap;html=1;" vertex="1" parent="15gxBGkXHDmCzy9u11-4-53">
          <mxGeometry x="300" y="305" width="40" height="60" as="geometry" />
        </mxCell>
        <mxCell id="15gxBGkXHDmCzy9u11-4-76" value="" style="shape=actor;whiteSpace=wrap;html=1;" vertex="1" parent="15gxBGkXHDmCzy9u11-4-53">
          <mxGeometry x="419.5" y="305" width="40" height="60" as="geometry" />
        </mxCell>
        <mxCell id="15gxBGkXHDmCzy9u11-4-77" value="&lt;ul&gt;&lt;li&gt;&lt;br&gt;&lt;/li&gt;&lt;/ul&gt;" style="text;html=1;align=center;verticalAlign=middle;resizable=0;points=[];autosize=1;strokeColor=none;fillColor=none;" vertex="1" parent="15gxBGkXHDmCzy9u11-4-53">
          <mxGeometry x="159" y="425" width="60" height="40" as="geometry" />
        </mxCell>
        <mxCell id="15gxBGkXHDmCzy9u11-4-78" value="&lt;ul&gt;&lt;li&gt;物販DB&lt;/li&gt;&lt;/ul&gt;" style="text;html=1;align=center;verticalAlign=middle;resizable=0;points=[];autosize=1;strokeColor=none;fillColor=none;" vertex="1" parent="15gxBGkXHDmCzy9u11-4-53">
          <mxGeometry x="174" y="790" width="100" height="40" as="geometry" />
        </mxCell>
        <mxCell id="15gxBGkXHDmCzy9u11-4-79" value="&lt;ul&gt;&lt;li&gt;振込DB&lt;/li&gt;&lt;/ul&gt;" style="text;html=1;align=center;verticalAlign=middle;resizable=0;points=[];autosize=1;strokeColor=none;fillColor=none;" vertex="1" parent="15gxBGkXHDmCzy9u11-4-53">
          <mxGeometry x="293" y="790" width="100" height="40" as="geometry" />
        </mxCell>
        <mxCell id="15gxBGkXHDmCzy9u11-4-80" value="&lt;ul&gt;&lt;li&gt;電子版DB&lt;/li&gt;&lt;/ul&gt;" style="text;html=1;align=center;verticalAlign=middle;resizable=0;points=[];autosize=1;strokeColor=none;fillColor=none;" vertex="1" parent="15gxBGkXHDmCzy9u11-4-53">
          <mxGeometry x="408" y="790" width="110" height="40" as="geometry" />
        </mxCell>
        <mxCell id="15gxBGkXHDmCzy9u11-4-81" value="&lt;ul&gt;&lt;li&gt;Publis&lt;/li&gt;&lt;/ul&gt;" style="text;html=1;align=center;verticalAlign=middle;resizable=0;points=[];autosize=1;strokeColor=none;fillColor=none;" vertex="1" parent="15gxBGkXHDmCzy9u11-4-53">
          <mxGeometry x="535" y="790" width="90" height="40" as="geometry" />
        </mxCell>
        <mxCell id="15gxBGkXHDmCzy9u11-4-82" value="新オンラインショップ&lt;br&gt;デジタルオンライン" style="rounded=1;whiteSpace=wrap;html=1;labelBackgroundColor=none;fontSize=9;" vertex="1" parent="15gxBGkXHDmCzy9u11-4-53">
          <mxGeometry x="139" y="395" width="120" height="60" as="geometry" />
        </mxCell>
        <mxCell id="15gxBGkXHDmCzy9u11-4-83" value="" style="shape=image;verticalLabelPosition=bottom;labelBackgroundColor=default;verticalAlign=top;aspect=fixed;imageAspect=0;image=data:image/png,iVBORw0KGgoAAAANSUhEUgAAAZ8AAABRCAIAAACCFTyzAAAYfmlDQ1BJQ0MgUHJvZmlsZQAAWIWVeQdUFEvTds/mXfIuOecMknPOOWcQgSUtSViigCKIKEERREBQVESiiooCKoIgBhQleEFERBAJKgqooBLkG4Le+973P/93vj6np5+prq7qru7q7poBgGvENzIyDMEIQHhEDNXB1IDfzd2DHzsFIIACNEANSPmSoyP17eysAJx+l/+ZlgZhbjg9l9mQ9d/1/99E9A+IJgMAecHYzz+aHA7juwCgTpEjqTEAYDboQvExkRt4P4yZqXAHYVywgYO2cPUG9tvCLZs8Tg6GMO4FAEfr60sNAoB+BKbzx5GDYDn0q3AdMcKfEgEACzxyjA452NcfAC47mEc6PHz3Bk6GsTjMHwnjChir+f1DZtB/yPf7I9/XN+gP3hrXZsIZUaIjw3z3/B9N87+n8LDY3zpE4UwbTDVz2Bg/bMOh0N2WG5gWxrMRfja2G7aG8Q+K/5bdAUAQgmPNnLf4EdzkaEPYfoAVxnL+vkaWMOaGsUlEmI3VNt0vkGJiDmPYZogESoy5E4zZYXw4INrYcZvnLHW3w7YuRGMg1VB/m/7Il7qpd0PXaGyos/62/C/BAebb8pH0icFOrjAmwFg4juJiA2N6GMtGhzpabvNoJQYb2vzmocY6bPRfGMYOARGmBlvykXGBVBOHbf6s8Ojf40WeDaaY22zjazHBTmZb9kF2kn03+w+PBdkbEKHv/FtOQLSb1e+x+AcYGW+NHTkTEOHsuC3nR2SMgcNWWxQhMsxumx8lGBBmukEXhLFSdJzjdluUSwy8OLfkowIjY+yctvqJSgzxtbDb6g/qGLAChsAI8INYOPuB3SAEUJ7NNs3Cb1s1JsAXUEEQCAAy25TfLVw3ayLgpyNIBJ9gFACi/7Qz2KwNAHEwfe0PdespAwI3a+M2W4SCKRiHA0sQBr/HbraK+KPNBbyDKZT/0u4LZzLc3zA4b9T/v+m/qX9T9GGK1TYl9rdGfobfnBhjjBHGDGOCkUBxonRQmigr+KkHZwWUGkr99zj+5kdPofvQb9ED6DH0y12UNOq/emkNxmD5Jtu28PunLVCisExllAFKG5YOS0axojiBDEoJ1qOP0oU1K8NUw+1+b1iF/1+y/2ME/5iNbT68HB6BZ8Pr4cX/3ZJekl75j5QNW//TPlt99ftjb8M/Nf/Wb/gP6/vDpeW/OZGHkQ3Ih8h2ZBeyBdkE+JFtyGZkN/LOBv6zut5trq7f2hw2+xMKy6H8lz7fbZ0bloyWq5N7L7e6VRcTkBCz4XiGuyP3UClBwTH8+vDpEMBvHkGWleZXkFNQAGDjrNnavr46bJ4hEGvP3zTyQQBU5wHAL/9NC/8KwBXY9/mt/6aJeMPuhwGgeoocS43boqE2Hmh4l2CAPY0D8AIhIA6PRwGoAE2gB4yBBbAFTsAdeMNWDobXORXEg2SQCjJANjgGToAScAacB9XgErgGmkALaAcPwBPQCwbAK3j1TIKPYB4sgRUIgrAQHUSCOCA+SASSghQgNUgHMoasIAfIHfKBgqAIKBZKhg5A2VA+VAKdg2qgq9BNqB3qgvqgl9A49B76Ai0jkAhaBDOCByGK2IFQQ+gjLBFOiJ2IIEQUIhGRjjiKKEaUIy4iGhHtiCeIAcQY4iNiEQmQNEhWpABSBqmGNETaIj2QgUgqch8yC1mILEdeRt6C5/k5cgw5i/yJwqBIKH6UDLyCzVDOKDIqCrUPlYMqQVWjGlGdqOeocdQ86heaDs2NlkJroM3RbuggdDw6A12IrkTfQN+HfWkSvYTBYFgxYhhV2BfdMSGYJEwO5jSmHnMX04eZwCxisVgOrBRWG2uL9cXGYDOwJ7EXsW3Yfuwk9geOBseHU8CZ4DxwEbg0XCGuFteK68dN41bwjHgRvAbeFu+P34PPxVfgb+F78JP4FQITQYygTXAihBBSCcWEy4T7hBHCVxoaGkEadRp7GgrNfppimis0j2jGaX7SEmklaQ1pvWhjaY/SVtHepX1J+5WOjk6UTo/Ogy6G7ihdDd09ulG6H/Qkell6c3p/+hT6UvpG+n76zwx4BhEGfQZvhkSGQoYGhh6GWUY8oyijIaMv4z7GUsabjC8YF5lITPJMtkzhTDlMtUxdTDNELFGUaEz0J6YTzxPvESdISJIQyZBEJh0gVZDukyaZMcxizObMIczZzJeYnzHPsxBZlFhcWBJYSlnusIyxIllFWc1Zw1hzWa+xDrIus/Gw6bMFsGWyXWbrZ/vOzsWuxx7AnsVezz7AvszBz2HMEcqRx9HE8ZoTxSnJac8Zz1nGeZ9zlouZS5OLzJXFdY1rmBvBLcntwJ3EfZ67m3uRh5fHlCeS5yTPPZ5ZXlZePd4Q3gLeVt73fCQ+HT4KXwFfG98HfhZ+ff4w/mL+Tv55AW4BM4FYgXMCzwRWBMUEnQXTBOsFXwsRhNSEAoUKhDqE5oX5hK2Fk4XrhIdF8CJqIsEiRSIPRb6Liom6ih4SbRKdEWMXMxdLFKsTGxGnE9cVjxIvF/9LAiOhJhEqcVqiVxIhqSwZLFkq2SOFkFKRokidluqTRkurS0dIl0u/kKGV0ZeJk6mTGZdllbWSTZNtkv28Q3iHx468HQ93/JJTlguTq5B7JU+Ut5BPk78l/0VBUoGsUKrwlyKdooliimKz4oKSlFKAUpnSkDJJ2Vr5kHKH8pqKqgpV5bLKe1VhVR/VU6ov1JjV7NRy1B6po9UN1FPUW9R/aqhoxGhc05jTlNEM1azVnNES0wrQqtCa0BbU9tU+pz2mw6/jo3NWZ0xXQNdXt1z3rZ6Qnr9epd60voR+iP5F/c8GcgZUgxsG3w01DPca3jVCGpkaZRk9MyYaOxuXGI+aCJoEmdSZzJsqmyaZ3jVDm1ma5Zm9MOcxJ5vXmM9bqFrstei0pLV0tCyxfGslaUW1umWNsLawPm49YiNiE2HTZAtszW2P2762E7OLsrttj7G3sy+1n3KQd0h2eOhIctzlWOu45GTglOv0ylncOda5w4XBxculxuW7q5FrvuuY2w63vW5P3DndKe7NHlgPF49Kj0VPY88TnpNeyl4ZXoM7xXYm7Ozy5vQO876zi2GX764GH7SPq0+tz6qvrW+576Kfud8pv3myIbmI/NFfz7/A/32AdkB+wHSgdmB+4EyQdtDxoPfBusGFwbMUQ0oJZSHELORMyPdQ29Cq0PUw17D6cFy4T/jNCGJEaETnbt7dCbv7IqUiMyLHojSiTkTNUy2pldFQ9M7o5hhm+FLfHSseezB2PE4nrjTuR7xLfEMCU0JEQvceyT2Ze6YTTRIvJKGSyEkdyQLJqcnje/X3ntsH7fPb15EilJKeMrnfdH91KiE1NPVpmlxaftq3A64HbqXzpO9PnzhoerAugz6DmvHikOahM4dRhymHn2UqZp7M/JXln/U4Wy67MHs1h5zz+Ij8keIj60cDjz7LVcktO4Y5FnFsME83rzqfKT8xf+K49fHGAv6CrIJvJ3ad6CpUKjxTRCiKLRortipuPil88tjJ1ZLgkoFSg9L6U9ynMk99P+1/ur9Mr+zyGZ4z2WeWz1LODp0zPddYLlpeeB5zPu78VIVLxcMLahdqKjkrsyvXqiKqxqodqjtrVGtqarlrc+sQdbF17y96Xey9ZHSp+bLM5XP1rPXZV8CV2CsfrvpcHbxmea2jQa3h8nWR66dukG5kNUKNexrnm4Kbxprdm/tuWtzsuKV568Zt2dtVLQItpXdY7uS2ElrTW9fbEtsW70benW0Pap/o2NXx6p7bvb867Tuf3be8/+iByYN7D/Uftj3SftTSpdF187Ha46YnKk8au5W7bzxVfnrjmcqzxh7VnuZe9d5bfVp9rf26/e3PjZ4/+Mv8rycDNgN9g86DQy+8XowN+Q/NvAx7uTAcN7zyav8IeiTrNePrwlHu0fI3Em/qx1TG7owbjXe/dXz7aoI88fFd9LvVyfQpuqnCab7pmhmFmZb3Ju97P3h+mPwY+XFlNuMT06dTn8U/X5/Tm+ued5ufXKAurH/J+crxteqb0reORbvF0aXwpZXvWT84flT/VPv5cNl1eXolfhW7WrwmsXbrl+WvkfXw9fVIX6rv5lUACWdEYCAAX6oAoHMHgATHbQTPrVhwOyHhywcCLl0gWegjIh0+UXtQGWgTDBLzBFuMi8BbESRosDSztP10TfRVDJWM9UzNxA7SE+ZeliHWN2wz7B85FjiXudZ4ELxYPgI/nQBRkCjEKswuwibKLsYtziPBL8kvJSgtLCMqK7ZDWk5OXlFBRVFDSVfZWMVc1VzNRN1Ew0TTUEtfW0tHQ1dJT1Zf1IDHkNmIYLRu/NVkyvSlWbd5i0W15XGrFOsQGzdbYztlezEHLkdGJ5wz0gVyRbih3PEejJ4cXsI7Zbwldgn78Ply+rGQSf7EAFIgaxBXsCBFOkQ11CTMJZwSkbw7P7Ii6iy1ODovJic2My4r/mhC8Z7qxNakV3vBPumUXftPpr46IJi++2D7IcxhoUyFLINsx5zAI4lH83Krj93NG85fLGA6IVNoURRYfOBkWcnN0v5T704vnsGe5TgnWa513rbC70JM5cGqwurqmpu1j+uGL3649LMed4Xtqvg13Qb361E3MhtPN9U3t93sutVzu7flyZ2O1qttpXdT2nd1aNwj3pvqvHm/9sGph9mPErr8Hps/ke2m7559ev/ZqZ7IXoM+Ut9E/7XnqX/ZD4gMogbfv+geqn+ZPxzzymVE7TXn69XR0TftYxfGM9/unnB+pzUpDK+ypem/Zq6/L/qQ8jFslvyJ/DlyLnv+xsLcV71v55ZI34t/Si0/W035pbG+/o/5V0DOoPLRlhgWzGtsAy4HH0QwopGkZaBdpZumH2IYYnzD9I74ifSVeYlljXWFbY39F8ca5xLXV+45nineEb5+/vsCNwUrhbKFw0SsRCXF8GIfxLskaiSzpCjSljIysnSyczv65K7LFykkK5KV7JUNVBRUBdSIauvqnzVGNLu0GrXLdXJ04/V89C0MFAw5jRBG742fmVwxzTOLNneyULFks1yxemN9z6bWNs8uyT7QwdFR30neWcCF5Ip1XXb76D7i0e15x6t+51nv47sO+ST7Uv0oZF9/jwCnQPsgm2BLimWIWahmmGy4QATLbppIRORq1A/qz+i1WHQcMV4oQWOPU2J0UmFyy96pFJr9fKkyadoHbNL9DsZnHDlUebgtczjrew7zEYWj9rkRx47k1eU/Ov6uYL2Qs0i52O5kaMnB0jOnmk/3ls2c+XWOuVzivHaF3QVyZWzVoepieJ/rrpu7RLysWO94Jepq7rW6hs7rIze+NGGaOW5K3tK4bdHidiewNaYt5W5q+4GOg/cyOg/dP/wg62HOoyNdRx4feXKkO+dp9rPMnkO96X2p/Xufx/0VNbB7MPJFzFDSy4PDx1+VjzS8fjD68s2ncfCWOCH4Tn5SZ8p82m/m7PtPH5Vnkz61fv41r7kQ9+Xy13eL7EuW31N+NPycXuFedVjL+tW5Pf/GCH3kDuRnVDv6EMYRK45dwN3EZxAcaLhpRmnP04XTqzMgGNoZ05ksiAzEXtIxZlsWBpanrFlsJuwQezNHBKcQ5xBXNrcO9yeeUl4z3m98Zfxm/J8FCgQ1BEeE9grzC7eKeIusihaLKYl1iweIr0ocl5SSbJNylJqSTpURkRmSzdlhsOObXJW8pwKdQptipJKAUr9ymoqCyrhqrpq22if1Ug1zjUXN81r2Wr+063TcdbG6N/TI+kT9uwaRhvyGvUZpxkrG0yYlprbwveO2eZSFlMU7yzIrD2tW6+c2+bYOdiS7QfuTDt6Owo4fnK46J7oYuzK4DrtVukd7GHjSeg56ndkZ7K3gvbLrvk+er5efhN8SudP/eIBvoGIQKmgwuJaSEuIUKh2GDnsTfiuieHd8pGuUBpU3GhU9GzMQ2x5XH1+WkLsnNTE+KTTZf+/OfW4pTvsdUu3T7A84pDsddM/YeSjgcGhmdFZK9uGc/CNlR2tyG4/dy+vLHz3++QSqUKLIq/jYyfslK6dkT/uVnTjz+OxqucL5gIqSCz1VqGqtmvja+rqPlyQvh9TXXpm7ptKw/3p3I0dTWHPnLb7bKS1vW63aWtrlOy52St2/+tDg0fDjhG6+p709R/qcnosOgMGPQ++GP7wGb0TGd03UTqFnEj+CTxXz5K+6S2o/nVeLN+Z/65vgRsKoAHDiEAAb33kcagDIuQiA2B4A2ODY044OACd1gBAwBdBiB4AstP+cHxtfTQmABHiAJFADZnB8GQbHlEWgHnSBCbAGsUPKkCMUDZ2AmqHXcMwnjXBBpCLqEaNIBqQBMh55CTkFR2leqFLUKzgS80FfQH/CqGBSMc+wPNhwbBuOhKPg2vGc+Fh8P0GRUERYpSHTPKVVp62mY6fLoUfQJ9F/Z4hlWGJMZIKYsoisxAqSGqmXOYQFy3KB1Zh1iu0wuxR7L0cMJwdnK5c/Nw33NR4PXiTvJT5POCLoE8gVtBViEnouXCTiKSogOiV2UTxaQkMSkuySypP2hFfnvGz/jha5Svl8hX2KFCVHZQ0VPlVIdUytRb1AI0RTW4tea0S7RidGV1cPp9en32Bw3bDJ6JZxq8k90y6zHvNBi1HLaasF6xVbnB2rvaiDmqOVE9k52aXYtdVtxoPkqe8VubPce8CH4Kvvl0Ru9v8eqBaUFNweQgh1DqsIX9xtFlkWNRetFZMdOxqvlHBsz0KSa/KDfdopramWaRPpmRnah0FmX/aVI6dy8/PMjiML7hfmFQeUGJ6SLhM8K1KuVGFTGVVdWvvkEqhXvWrT4H4juCn55onb1+70ty118HaaPYh5dPbxs+61Hpm+nc+PDtwdIg2TRy6Nzo5zT6hN6k3Lv6f/8GL26Ocdc+0LZl86vyksliwt/7D/eWF5YVVjLeXX3c39Y2v+ifD8SwBVYAJcQQjYBwpAHegEo+AHRILkIBsoAjoGNUAvEQAhAUf5aYiriLdwHG+FTEe2IVdQ2qgDqG40OzoQ3YjBY7wxjVhGbBj2CU4al4tbxHvhHxBkCUU0SJoomnFaZ9rHdIZ0rfRa9HfgKPYRoz3jKBynrhMLSLKkp8wRcOTZzOrLRsPWzB7IwcrxkHMPlzTXOHcRjy0vjreDbz+/gQBG4KlgoZCvsKzwqki3aJlYlLixBJfEF8nHUuelU2Q8ZTV3SMixy+PlVxXmFCeUXig/VrmtelGtRP2QBlXTU8tQW1KHUWdRd1ivVb/e4Kphg1GT8W2TNtNOs8fmvRYvLN9YTVsv2KzY4exZHcQc1Z2snf1d9rqWuN10H/ZY8xLcaeEds+usT48fRFbxjwioCZwKFqWEhFwNXQ43jSjcPROlRd0b3RaLirOKL0qYSlRPOpo8vc84pTqVPm3PgWl4P+k9bJH5MNssp/uoQ+5YXspx3oK7hYHF9CebS/1Pk8oenN1brnL+y4WrVbE1WnWYiwOXL1xJvuZ1XaWRvmni5vXbB+7YtLHfHe+o6aQ+0HqE7Rp8UvN0f49Xn85zkQGmwUdDzi8nXyW+Zh69NuY0vjpRPek+zTDT9eHwrOVnxrkXC2e/hiyqfEf86FkuXQ36pbg9/0iAAbSbO4A4UIFXgBsIBwfBGXAbDMP+LwhZQLFQBTSIoEEYwZ7fgcQh7ZFnkF9QFqgqNB5NRb/BOMHeboMdwJFxP/GFBHXCJM1JWj3aEboken76LoZ4RknGCaYzRD+SBOk780OWMtYkNk92PQ4pTnYuGm4E9yrPMu8qPxDAwjdQHmFZEW1RB7Eg8f0SJyVvwHH3vCzjDgU5V/l9ChWKPUorKhKq7mr56v2azFru2hU6c3ra+kcM3hgpGmebjJtpmRdafLGys75kS2sXZv/YUdIp2/mDq4VbrQfek+L10Ft010GfST9DcmUAMtA/6B5FNCQjdCbcKqI+kiUqgToWYxR7OZ49Yd+ej0lusJ+qpFSlcqQdTUcdTM74ctgj82rWeo7Tkaqjy8cc8y4fJxRQTjwokirOOTlX6nrqTpnomTx47/c/331Bs7KqmqkmsXbqouOllnrRK7lXlxq8rz9olGk61jx/y/725TuE1sC21nZiR8C9xvuoB3YPSx9NPJZ4QumufDrew9lr33ew//rztwOEQbkXDkPUl0eHa17dGxl4PTW68GZ1HHqLncC8w0yCyeWpT9OjM0/fN38o/3h4NuKT9WepOezcm/nmhcwvHl8lvn751rKYtmT0HfO980fKT82fC8sXVjxWCauNa+RfdL+urbtvzH90oKLC5vEB0RoAgB5dX/8qCgA2H4C1vPX1lfL19bXzcLAxAsDdsK3/TJtnDSMAZ7k2UN+Vxf/6x7P1D+ofccy/S7B5Em1qhU+izRI+lcD/AAKw5Fg7ETA/AAAAOGVYSWZNTQAqAAAACAABh2kABAAAAAEAAAAaAAAAAAACoAIABAAAAAEAAAGfoAMABAAAAAEAAABRAAAAAOFSbO0AACg1SURBVHgB7Z0HmBRF2sd3NrEscUEkiiBIjpIkiBhQF5GkwOqZwYB6hjOdd5533z3qGTAHRE8xoYJ7kkSSIAhKPhEkCYgIi4BHRti8349tr7avqrunpmeG3R2qH56lurriW1X/elPVBIqKiuLMYyhgKGAoEEMUANYKCwvjY6hHpiuGAoYChgIlFDDoVkILEzIUMBSIJQoYdIul0TR9MRQwFCihgEG3ElqYkKGAoUAsUcCgWyyNpumLoYChQAkFDLqV0MKEDAUMBWKJAgbdYmk0TV8MBQwFSihg0K2EFiZkKGAoEEsUMOgWS6Np+mIoYChQQgGDbiW0MCFDAUOBWKKAQbdYGk3TF0MBQ4ESChh0K6GFCRkKGArEEgUSy2dniuKKCvnHf4G4+LhAIC6QUD47YlptKGAoEC0KlDd0K8ovKsgtyt2Xf3hT/uGNhXmHEyrWS0itl5TWKS4+OZBQIS4uEC1SmXINBQwFyhUFyhO6FRUczdu7LPunj3N2z40ryrfTOZCcllJ/YGrj6wMppwbik+2fTNhQwFDg5KRAoJzc71ZUmHvw6OYx2dvGFxVkuwxVQnzKKZXOvLNCg0HFTJxLKhNtKGAoEOsUsO53KxPolp+fn5uTk19QkJuby51zgvLJycmJiYmpqalxObsPrbovb99KiWUTKUUgkFi1cssHK5w2KBCPlGoeQ4EyR4FjxQ9zPj4+vmLFipUqVYp4Eyk8Ozu7oKBAKrlC8RNATx3rj4VupSmZ5mRn//rrr4z1tm3bVq5YkZWVtW7t2oMHDwrKt27Tpl27dhkZVyTufC3/wOqg0EbGovxDRzaOjkuqnFI3PS5gLMKCliZQJiiwd+/eyZMnz549+6effqpaterFF1+ckZFRp04dkC6C7fvhhx9mzJixdetWqUyqO+eccypXrizFx+prKaAbsHr0118PHDjw9ddfz5wx46uvvsravp3dBhInJCTAr1m0zisoAPLu/sMfsnfNTdo5s6jgmOYYFOUdPLrp5eQaneJT6mhmsScDbZmC/LVHhh9u2rTpybBnhk8ozRL279+/b98+O6evmZFkDERSUhIzjXWOZMCs088bTsrDhw/ffffdH330kTXbKWrOnDnvvffepEmTGjVqFE7JUt4dO3Z8/PHHrCwpHjzt3LmzQTeJLBF7hWHO2rFj9qxZ77777nfffZefmwtznpaWxt8KKSm1atWqX78+7DP1/fLLLwcOHsgYfkWFgy/n5x8OoQXcqJ69O3vH5NSmt4aQ679Jly9f/te//nX+/Pn/jYjM/zk5OQK4I1PiyV3KuHHjHnnkEXh/H2RgIBo0aNCsWbMLL7ywZ8+eTZo0qVGjxgnAuAkTJnzyyScC2mg5Oz2r4Omnn37llVd8dMRk8abAiePdGEg22y8XLBjz6quLFy8uKiioWq1ajbS0jp06nX/Bhe3bt2veooWqg8g/tO7g8s1xhbne3ZC+FuUfzf1lQWqTkXGBE9dBqQ3mtcxSAPUushvPzJkzTznllCuuuOKGG25o2bJllSpVotpmtsy8vDypCrRjU6dONegmkSUirydo8efn5aFoeOuf/3zv/fd/2bOnerVqZzZrlt6v3+AhQ5o0bYrpwK0z+Yc2xBXkuH11jS/KLzy2p+DY7oTU+q5pzAdDgbi4//znP6+99toXX3xx7733DhkypGbNmtGjCpwme7xUPjFIrFKkeY0IBVxhJSKlW4UgjWIueO6ZZyZPmZIQCJx55pmDBg++/oYbGp9xRtBaCnMPFBXJpp+guUhQVJRXlLs3zqCbDrFO+jQbN278+9//DtLdfvvtKKeiRA9EE1X3SgyamSjVeJIXG3V0w9Vj6ZIlzz377Bdz51asUKHb2Wffettt551//nE/D43nOEL5QjeNsk0SQ4ESCqCJf//9908//fRhw4Z5CBMlGUIP9e3bFyFUEk7R9w0dOjT0wkyO4BSIpB1arQ2TFkrTF194YdaMGVWqVh00ZMijjz9+af/+mtBGgfEV6wXi/UDwcZcec/hUHRIT406BdevWffDBB6ojhXuO0L6g4Dv33HMxnQkOrlq1ahgxb73Vj/krtLpPytR+gMONUJgFsdPjxWYlSEhMxDi19rvvdu/ahXLtsgEDbhk1KlTLdyCpqk+Qiq8Qn1zDrak+4kHkZk2bpdX0KURE1qHJR/tPkixYP9u3b+/WWVT4uCLt3LkTIdQxzZo1a/DSQHni+DXMSCTTN998EzXfggULLAXcWWedddttt52hoaIJs+qTM3sE0I1xOnL4MEaD9evXr1y+fM+ePRYpUytVQrPWqlWrh/70p+ycnE6dOoUKbZSTXKPz0aTqcTn74+JC0b7FJydUOi2+Yt0IDmrDhg2ffPrJiy66KIJlmqIiSwF4IlihWbNmuRXLBrx69erMzExcar///ns12c8//wzAHT16VF+8UAvxiDn11FNxZPFIYD5FkALhohvOO/ivzZk9O3PixCVLljB7pMad3rjxgAEDBg4aVPOUU6RPOq/xKXWT0joUHsvS9+al2Pikqsm1++qUb9KcVBTAlbJLly7suPB3999/P0yc1H2UYj/++OOWLVvatm0rfTKv5Y4CYendgDbmwcsvvfTwn/8Ms61CG+TYtnXrSy+88Kc//vHzOXP8Wb5TGg6PT22gf6wqEJ+SmNaxAiexzGMo4EQBJMTzzz//d7/7ndPHOERXIX84JjCR5YUC/nk3BFK4trFjxrz11ls5wc4tLVu69IXnn0uIj7+gb1/VZdebWElpHVMaDDm29e3CbHQlweTTQGJClSapja+NT67uXWxZ+4oFBvTftWsX58BwjDpy5Dcv/KSkRHwUcDRFqEEhrXnggULwnba7xdPflJSUunXr8pcwiieUCSxj/HUsH6yaNWvg2tq8eXPhtY+qQaISn0iDbot4dFhUkZW1kzNRBw78djqY1qIpx2uMitwcHahx9+7dVF184u03LW1qakUrI4dVoiQV2vsCJTlxySEBe6QVhmiO+7TVYCk9Q2MNCrnoFGelSZaXd/xYYWJiAoRCp8bAWSTleB80l06PIU1Tgo6fHVVAMWYIZD9y5Eh+/vG1EB8fgFyQjlo4r2oNrtRIH6/0hcNCHPrmr3DRq1TpeEW0lsHlcBHF0hcS0B57FXSWZLVr17ZHuoWZDExFqqMQ6FNQ8NslGlWqVGb+QJZwOuUf3Q4dPDht6lQdaLM6tnTxkjGvjKlRs2aPnj1DVbFXbHRNXMGx7B1TCo5tP34rr9sTSEys1qpio2uTanZ3S1IG44EJ1D0Y7FAJrVixAn0QM5gYq6nM3dOKHy4UQHfZunVrFkxQr3rOGH766aewIfb+4u6APxfTBUM2yqm5c+d+++23pLHWG7jWvXt3nOYFuHAizZ6dcMWKKcOGDb/kkkss/RS6CA4Lw78LOyN50a5SVI8ejHNPDgBUr16yzYAayH0rV66keatWraKnQrsPaJKxRYsWffr06dq1K8dyrfUjNSBSr6xANyDAHcQ6CyjVxdF3/DmkyLPPPnv48OEUxQE+zBFQg0FEbUcySEEvMBpcffXV1o4OtD3++GPHjv3PFV60hBIGDRoklWx/RV4GNyl56dKl//73vzds2AD9LQimtZCucePGTI9evXqhdvSh3bbXhWcMu9qXX35JdQzr2rVrBRwDoFTEDGSAeNq0aUPDPvvsM07s20ug4+edd951111nj1TDQOemTZso/5vihzCTQbjLcFQO6jGRrIo4NgdiCluzWppjjE90o8OQ+N233w7KtdlrXfT1IjR0rVq3tjZ/+yfvcCAhpWKTm+Mr1Mr+eWbBoXWFuYcUJi4hoWLdhKqtsqv2Xb25eteax6K6Nrxbq/8V/hc2jSXB/Jg2bRowoeZlqeBryvP5558zwEDGwIEDgQBOR7Iw1PRWDMBBgaCkPQGGkcsuu4zlAYRRKdum/StVMC+BWhHJSWwRtgKgatu27Zh5b7/9Nkudw0xSAloLTPMw6Tt06MDCvvTSS1kSJMOevmjRIs6QgwJs+FJGZjYP4E6x9O7aa6/lECj9lZJF6hU+SHDHUplUCnsiRfLKalcJwghi98QQ8eqrr7I+7dSDFGRhI+Hgl4VudHDSpMmSfobz/B5GXsoHBZYtW8YBVSYJ+Cg1jI4wyjycbvzXv/51wQUXQHNH3lPKqL7COoHR0J9yVB6T9LClPCAsh8Sp6MYbbwR6wEGJLBAQtssD3YAwrgVityAjNToeFgZkeTi7xkyjFo6RsKeyr2vKLlbvfKIbjDEXeDCoKo08YjgzT67NmzZ17dbNI5njJwAu5fQrUajl7pqTd3BtYc6euMLfjuwFkqolpNROqN5xf1zrDzM//yQz86VXXunUubNjOWUnkonLpJwyZQpYwxrQaRgTHdRgQgAZHI1EQR4SiDNlmVLTp01f/d1qsSHb6wXd7K9qmNXLrgYGcSBc/WqPYYGxDJjEMGvwL7QTM+Ubb7zBPm1PpoYPHTrEAgPoQYHBgwdHCeAAmiVLFqu1gzWIxsC3+skxhpUJFsAm003HBLQ/VElFlMMMAU2AAO4RAeBEvFuATjEumzdv7tixo4ShbllEvEX2Z599lkUNYop4xwAJmEgw/qNGjWInc0zjFsnEYA7gGcMo0zu3ZCKe9AsXLmSfgNkfOXIkzKkb0y2yiIBPdDuwfz+qNFGKfmDN6tVMXB/oZlWRWLUF/wqzd+Uf2cJR+eLIwPGfVqh8RlEgee+aNU898QR+vJzVL+PoxsRFuBgzhisFXpXUFkGJCeODVz3AgdUPNickgGOdsAYcoY164Vm8lyJTDQ5CNTW6tRn4Hj9+vKVaws9LCLBu6UU8Asvo0aNB2379+kX2xh4oD8HpBfcOiepEAAog4unLFmA9a1VlRUWBaANATPEaUgClAVwSiAMZ9TMi+ANwdFM/C9A2ceLExx57zJFlcyyH8lGWPfXUUyExU8wf9ubnnnuO/QCW1rFkx0j29XfeeYepe99996EN0AQ4n+j269Gj+jPV3lzQGudeWFPfQ05pXNyWrNzdBqg1OO00VAPbt2+Ha7BXGpEwU40rJVTRwK1wXApQk7md6WFrBdcYZktH41aIWzybJxsaqAEYoePQn2He7ceL1Rvd4N30oc1qPCsTLAaCQ50wABxcLZo4KKmvcGGhInq70Q1YRzEPH8RiRpCUkqFu69atG/SU4j1eg3aKjus33l4RE4P5Fiq0WSWABfaigobBenBKH9qsAgE4WFeeoOVbCVj17AQ+oE2UP336dHCDNc6s8J6oVhaf6MYsEWcSRN2aAXZO1rb+9qhZLMnoOYDyw5Yt32/cGCaAqpWyShkYNd4t5p577kH/6sh3gE2IM76hzaqRQlB5YLNjsJFE3JpRFuJDYj3sDWaX4kHb4khGe0orzHpDMvBwlwWdd+3ctX7jepgIKTurBR02Cn54N+lTOK8YVTzUo24lM7hIiM8//7xv0rmVrMbDfo4dOxbJ2o2jV7P4i0HaQCB149rYWmCcgQW2atAZK4rjxg8QM0B33nmnjpXZJ7r5656VCyaLf9F4khIT23fsOHHCBNATo+NpDRtGo5Ywy2QFovJHCnAcPFYCYwwsYnRnYcC9w+2yYnnU9KwB3AzRN2NTxXAWUsOwrGHQxM5gMdEoUmHKcHPVXIrwIyBOk8ZN6p9Wn+nIXoIOmH6pjVRbRVMBLP4yobFswGvDATmyAGAQiwEFtia6URdCIju8Wql3DC1p2bzlDSNu8H0WBTLC+UJA+mUx7FhRICmIaVHYuwHSV5Y3GjQ3XRsCO8OHGRGvCwoHsmFIYUWZJLCuUlHerwwc94Ci0iLgmJJasF8xXow4UxfyUgvIG5JcSclMDOaqI7SxQzMVMc5Avfr1G1SokMycR52HXg8Nr6S3YUrQYIYJLttNMBId8YlurAEclEQp+gEadGrt2vRHP4t+Sk62WuZwxhulQNlEN9rGDsYUUfvFrGXMONqBZwZTinXC4kdeYDJhZ8SHQ1Vds4TYzdBEYGdQC3SLwdWLmzB69+4Nh29JtcjdGEBBSZ2lyOijTrr88su7d+/RrNmZQANzDl0PLQRZPIRfMrZt3XbQkEE0GOU92hMmPbZaekdGR5kX2y7zm9Xl1peIxMMI0Korr7zSzUfPuxZMB0AwXh0QFouEteqsbYnXUCVTeCi2Crh7x0qZFfw8AsONfp1RYPjY5NDhIvRBRuBDnSSO5ViREB/HIEdJlpIxUzLKmHRhl6xe0DCgEJMCY81m5lGy9IlZQUUqK8peTl+uuuoqTGR25yHQE1MbDmcYVaCkvTS2Q/wHgMKgg+UT3SqlpjZu0nTx4iX2WnXCNWvVOqVWLWBIJ7GPNKw0chUWFYW6t/ioy18WYPfDDz9U8wJt7Ejcu881EuIr65/Nkwe8Y4WjWFVNVHgnoalFW0QJIqNHgE3ygQceYDXazRFMLOI9colPSHCAIAYNZqR9l4LfBJoRk1GWof0V6UUAaEOCpoPAt91fj5VjzWwsHurspyhWFGksFBalRTYA58I6Z8UCT0BGSIWzH/Tv35/LL/H/su8NkIInpKKsxHhm4N7huEmABUAwd4rA7IiSAVNGhAfysmeACKpKUSSWApjgAQtVJoXaGRnDH3jgQSqya7gAax72Rdx9UNVBNKlAx1fKX79+A5pi6SszNj39EuYSUCV9ogFMSLaNw4cPqW40NPuaa64Jim4+T2IhHvc6pzd3gEhtCvrapnVry/spaEofCRiGWsUCWiG8utMC81FmZLPA27PvsdNKxTJBWcAPPvigHdrsaerVq4cLCK5Mqr4S9oddTnU9s2cXYRyvbrnlFmqxQ5v4qhMgI44aNMYObVZG/IRpoZtwx/Lj8JMEbVZGOO6bbroJZgQEVNuACkZyzVPThBmDwIWdAe9lfe8cUSPr//rrr5egTXz1EUBLABemZmTsOECGyskObfZkUBgvM1SHmqgKBwCMwrbbC7HCOBv++c8PS9AmkjH07G2///3v7buU+KoGqGLNmtXsUtInyh8+PEOFNpEMCSYj40pLIBORBNAVMmQqKNvTEPaJbpUqV+7atUunTlq7vaiyWvXq5/TuzZ3jIibigdxi9QF6PfsuGvFafBcIumEIU7PDOrHykdfUTyKGfTs9vR/evCJGBJARHEVdkUAE4JLYeDUnpchlD7CdjhgxwuKR7fFWmAWG3ORIfCZxnz7nuVWN0goJSF+/plYdZgwaA3YIdDrYslk8+qUhvsG3OnZZvxB7Sng3R40bTCVOzix4e2IpjLoWx1fcX6V4x1fECBBHlXIAr7vuugtZwc61SSUwARBa3XYyKbGlR5MieeU0AkCMtcHjqVu3nl1itQpBvQhvq7ZcqsK/hIhW67rrrt+69cc9es44sCc9e/W6sG/foPyk1ET9V7DcEtGRfJF/9TPqpGRVAw2w5TqJSUNidcaDburERaOBMgWGKGjJTZs2YfdGfyEp7xlpGJyg2UmA5KVjbHIrCt6K1cVidkvApEc4QtutbtRYMJo08VKfWXPdUQfkVp0aT/OQWdR4EcMkYW0gUqGochSE8YNjycEiqWyyKEQEGGJAmeETMWEGmCHwbir1kNTYHtxYe3ulMER4DvBLEY6GGntKVKXUZY+xwki4Hs5MVhomLfSB1G76QXuxaIfBL3uMFUapArOsxksxjppEVBYoHKWU0qt/dAPgL05Ph0Dj3nyT1kvlSq/Hoa1nzxtHjGipCNhSynBeEUj5SRpKCMQH3JgL3+Uzg9k5YXw0S4A+jqoidaggDtI6oBC0ZFgbuHTgSUI3EMFRvlALBGI01XNqXmJoatB2Qnl2AnV9Ili5MW5WXVAszFFjyYFu6vFYe19AN0zqaKbYJD764KNVq1fZvxIG8ixDDUyZ9El9BcfhqdVtTE2pGcOKVUlHXqgHM8XfoOVYulqGKajWn55iDlILxEVcZyDoNfI4oxbUUItiwTENJxB41AboxLCdu9l5RXb/6EYR6FlGjBwJ+zopM3OLcuRQ1IGmpnuPHrfdcYf+zymIvCEFmBmW0j0pIfgiDKlkEjOWTOVQVc46tTAd3TQpanagDekPTbD6SSeGIdOZuDpFldM0TFfAFx0frCK7xaOPPqpycPAUqMB1tJMUxfBFkBQIyI42GXCNcdesiJ1Yh/FEsoNVVMsERtnG1Hgphr2EViHNqJYuKWU0Xj2kZlFd8D6IpGqACho1bjzq9ttRmsyaOXPp0iVZO/5HPqLznJk/t0+fS9LTO551Vjhcg1q7GpOXn//NypUMDK3iMhI1QdmMgZtgTmu2DZANB54YEZ2Jq9mYcp0MbQ4/4wKKqWdmYe7QY6KWUvXZpdVloER/4EjpaJ/RbDwTjOp0EpPMUUDRyRtmGuxsQVnmsNCN9gFwVDN0+PBOXbrwEwpbNm8WzinsabDHoFvbdu3g3sPsTNDsYMSO7dvZRhgb3+dYg9YSjQSwnI6uXo51IYGy6hw/mchQKQAzjnpURTfKYRozKCce3cALR2YQU4P+uOPcq6mpcKQYyhPmpM4mSjJHzxXHYiMbiZYjKIKHi25Wi5E90TTzoA/igD1yE4cEEcjbd+gAWxfZXrmVhhDO9b9oUrEn9La5jLmlL614OHlJscIUwVkf3RlijnerYPEQo1SxFKbYt4eHd42x/RUccdt3QRNHjXu0CQLbhW5UrQV2EksIarKgoMNCQOOmAzowH45IikUCBx3YfLUZ9hgqwhVJOktgTyDCwFByooP3GCZXruQSyUIK4FwZlG2MDLqJZrHMeDjmOXXKFCZHxpXHfVWCMpAiezgB9Opswhwrr1O7ducuXcIpKnp52Znxa5PQDcxCRcqFjtyH4V01GXHcZaJLybDxRdBsJxUew69AGG5TZaqDAAGAi3pU0gaCa/ipcP8H14J6NxiDCeZgdZKoubDAOEIYZn00j/gneTNHsDLc1qcWq8awbXNiTzXg1KlTm8sK9fWJasneMT793bwLrVylCpokrm3lrkqQzjtxRL7C/uBozk4CDzNw8GDVQSYitYRfCOjGqQO1HDZA7j6TJrSUjMnEZX4ctZHiecXkyqPGmxhvCrCpwKc4pmFLDsoaOGYMPxI2HJ8MtRxUgdYtQOonEYNpkoWgeh2JBPYAGIpsrqrzcIF4/fWxiLeONgerBCwS+KVzZsBeoFuY3dfRZXfRoq84UxXU9OlWbND4qKBbs+bNsSTA9C5ftmzB/PnhtB5b8rq1a2dMnw4zyL/PZ8/mOkSV6Ih1r7/2WkFeHr+8NXTYsKDdLsUE6enpsLdSA9iZ582bx9EWN4AD2pgH3AenShysQ/hBTmtJZZpXbwoAbdyexjlWx2SwG+E4BjqWqRkJujm644Jc7G1ck+doVKVwEuB9xmW2mmpcKuK0ExoktWGsNu6wAebUtUZimAmm6+OPPy6U7GoJ9hgoyRRVxQuc4GgtcAwTbU/vEcaDBM0MDfBIIz5FWDK1yoVe3Xv2PKtzZ26aZjw6dOzIHfuiSs0AuAaoca8Ad/kynDCDZGQ/ZR/Alt+jV69BgwfDChFJV98YO3bVt9+Cp8jCZ3g6c2vWHqVkNBjnDwBO9YFElOCgJUwcXnVIH0IhgtwKonGRKXI3gonaMDSbpC+tpai2p3RjULwiVXm3IScnd/36dfAduLw5umrCzqBR4fEuJ0pfkRbx2X7xxRfVtrH5cQUDFgPOCeBwK7hLlgC6NvyQMydmovLWN8FzQpY7ZlTdGewCFcG+WdeLC/cLwA7jBj8Iy1zlOL0mBWgnSnkgW+L1aCe3gOCUg9SFAo77VFRG0qoCREPcRnvD5X0ZGRlDhw51BGWpPVFBN+rAzY8fn9+4fv2KZcsyP/6YeyUddaVSa8Trxg0b3h43DsF26w8/gOvSBgLvM2/uXC4xv/mWWyiXm3hfHzu2ID+/dcuWI2+++cSo+URTQw0AW3fccQf+orBj9rz0ERDnRgQWZ4sWDHQLUjL8bI/cEYJGGaWbumXRWY4f4CntrSKxVxTDYWgI9SCvdx8hI1TFMuh2fBWHL5ait++xdxXhfGWFc3cLB3KRQ6VycAxgq+O4GOdDkfVgiDh6BQiCDjwo5oAefWijcA5aMH/ADlVPh0Zy/PjxYCX8HUCPpyfzE6JREZGqU7rUVOmVPRgkRWSWGE9WAQBHA5BzuaaUec8+LSYzraIZHBlg8sNrUykxEIeiShPdqDu9Xz98RCDQZC4ga9iQgwpBbYIWRb5dteqZp5+mt/zsloRrVgIogudH1s6dKPWeGj36x61buc0NmfSue+6JnoZSGi3fr2yDeCFwIf0zzzyjFkLXmAFsU4wxs5yZSgwbqZrSiqEojnChQHFLcLLFw4YgNIXTa8gOtOmceQqnFu+8nFbkZD6+eOrlCAAcfUSghovB/gAEs/0DGSo8eVdhfWUHRVYAK8EsSpayMPeoCB4NRTYPryCpx2yUsttfcZzmWhqAjIuapfOhTHJEaR6+Mu1pkmAV0dhQKSykPQsbGJH2wt3C0eLdqA+85yKBbVu3zZ8/j9Na4N1xfjKY0wPw/Ozo0Z9Nn46I4dZoKx4j6YyZM+Hj7r3/fk5BdOnatb9f67J3RRH/Spv5IRWUxPyQimPhaCrdFHD29Ni8OHuPWCr2OvtXE/ZHAdgZLr8LeuDMX+GauWDJ4Zj4eca//OUvbisZxhOWR7NAj2RUxM0iTz75pJsSjQbwgD4eheh8AhA4l4quDYWAY3oAWgejQXxNPV0U0Y09EM+MUXfcdizn6LKly/hFen6CeNjw4XXq1nXsmxX5zrhxn8+dGxTarMT8yNan06b16t37iaeegner4qQf9airtD6hfWOkuSCbQUKl6q8ZSE/c84X+pbQEKH/NLuO5UA9xsQ+MW6lvGDA7gCxyGQo4wCV6dINXYo8EKzEjSGJjZCtF+4aowQV/zH8uzbezYyFVxAViubl5OlmiiG5Un1qsH923d9/+ffvRer704ovIz6jG3Ax8q775Bo/c/f/709be3WDgX3r+uYHzF7i5ZXpnL62v8N4oTf7xj39gZHj99ddDmr7Wxs41bVxqio2ltLoQY/WyyHHWgV1CgNLR6US7+8wQdGqMMjjLpUyqhcGtAYAI+hlkOtaaWxopHr8QfkyPSLQlqoVBSixe8StG4QtPp39hFAYTrllF7sZU6mjNEIV7BIqZ1p9atWopjCpuiaOLbtSK79uAgQPwpX/l5Zf5kUDUcJu+/z7jqqv6XnSRetB30cKFWTt2FCnyv1vriUcx9+OP2zAsXH7FFR7JyuAnZi1CEHe6sqFh5kfJotNIjjpwgZd1H7SmHlOn2JM5DauUH1W4bCBmsAFsNo4OrqVCH2YIOIWKFk6fH3ZBLRW0GUwPGDEOR7LQ9NGNYtkmOZ+A6Y+9ll/q8WasYL5QkCHPctk6P8EXtFX2BJCXCY/gjzWDS6oxg+pIo6IEVKLcTow/IKKhiHQLBE/hllM/ngPt/fr35y/C6Ty8J+fNwyS6EDwaOpR+An+iqMVff/3L3r3iVTOAVhKvukihGxIBHifqMT1mWMRlQPZnpiNmgVatWq9YsRwplYnlqEyhaszQXE3Dg/TEXPQ2DcPJkky1NtA7TaqSjNulpcTslkFvSalcuQpWLbV5LDmpNOkVvTUZ1VmLn5QqJ9JBmF9N/YtUkfVKmSxRjHS4VrRv36Fevbq8qhWJvHBSKkE0byWyCqlUqTKDKLWZ/now4LQHunHdLhshQDBt2jS8glS9PtSmJdwbyq1NrHyU1ximVISiCyp5RQchKRsnfWSjxaaHMxarQDLrgWsIXrg0ca6GCYYhIqj/jShfBJhFrCaqA6qwjQAJWNJQQ7vpo+D12HVoGMw1ldJTloOwPIhi1cDx37lRY6MRAz/JGfvMiRM/GD8eqzbMPwq45i1asFzP7t6dAKB+Wb9+SKah1s7pq3790jMnOWvoQy0NEmNWV88YIrkwOSIOcFbzGAWEU+pF8ZGVtXP79p9oAIZwqMRYAkkcRWANMCEYaRU41D6ir6Eo1Y/aKk1N7xiD56QUz5SiSd7OPRAQ4z3DLeWl8RBQirS/smihgJqRfZ5eS7OZ3oXq/WCvizAFssygLaiq+ldLiXlF3QNVpXhmBc3TZPegDLgjeWyAFwiGHgBn1QiOwOPQBnrN8iHAA35BUh4QkD8UA0DTKSYPyVSwoCISeACcVRcVkR1LJX5IDArzkBi2fCY/jh116tQtbu+pTFosqqpxGZGCi+k1fx4TrGcokbuRiOkXeAqRqR1Yh29ldKzeMQEoFmkPgkMxaRTUV9oGxU4cutEC6oNkHGD4eOKEObPn8NMHCAU10tKqpqWxD98yatT/PfLIwi+/VNvqHQO6XXTxxZOnTvVOVi6+MipAEiscnyxmJ0DGwmOkcSuXlne56I5pZMQpwCJCp8YM4S9hVhALnr9BMctHS9hxrXkIIjMPqQIcF+wtwIeJAA2aVDLbGDcbP/zww1K89yt9saY9/QK1gTD6RY10DbzWQTR7+awjnhMhmYpaWZ/0/IILL2zXvv2NI0bCps2aMQNrw8+7dnEfFYCsw5WI0mIywCgyljz0TtVLxmSXTadCogCLiK2OJ6Rc/hJbLK2jjQUkQmvG6Qi1ZNK3bt1GjfeOoV86HLR3IdLXE4puVt2AMcomVEJc/XbNtdfivYKpFMsLvymDjZWdQWLdpRarr/HFvxysxpsYQwFDAU0KwG2hf0RtB//hLSXAEyFL/u1vfwPaVA0g1SH89ujhcFWEZksikszi9UoB3azWw3NCBZ7TGzXiqib4bEup/NXChfrGb6uoQEICh/YjQhRTiKHASUgBPGyxIXAK8IknnsC5F1sf+n7UXqgU7UjHKX3U//jicqEDKjlHWycCB4dkgciyQMZSQzfReaRRuDbr2sY+5503berUUNGterVqIf0Su6jaBAwFDAWgABp9tPscj+FBtY/BFCGRhcmDmMmp50AgnosF0cGhiQPUeFCTqaRD8MKiiqeIHRPVZCcmBvat9NHN3lV+ErDXOefszMqCfPZ4jzAmhauvucb7/INHdvPJUMBQAO0QejSLDuAXj6AJOMURVF7tkeKrFMC+iTs01lUpvrReo3K/m+/OYCUZedNN/CqgsMsELQr/lz8+9FBZ2CuCNtUkMBQomxRAWoIvc2wbPFox3JXgnWMyIvFK4S4jPOaiYb11q9Q7vmyhG21t07btgw89xH0r3u22vuLj9+GECQi2OolNGkMBQwFHCuDYqDrHOaZ0jIS34EIHLrPkYGzE7Z6ONWpGljl0A/j5vfpx773HEbbEYscIt55063525qRJkNUtgYk3FDAU0KEAHkihOpSJYpG3OMHGoVEOVJwYPxVRddDACfXmDdoakQCnEK5s+wiPmvc/2Pj9Bolt5gf9uC1uwKBBmFl9j4qoywQMBU5yCnC2gcu4OOY1XePmMUErXLvANS7v5Q4uDhWUQe1QGUU3KIhbDS7LOC5zKJX7KbkOFCf+Ll278UvMjRs3YpewXF4FrU3AUMBQwDcFWFwsNx7O6nPOlOugOVbErZYSY8FxKE68crII+x8/msUR4Cgdk/DdEXvGsotuopXoNY8/BQUciMXawBZRBncJ0VoTMBQo1xRAbALRWHCwFxK00S9EJWsNokEiUMYlp3KAbuV6rpjGGwoYCpQWBcqcVaG0CGHqNRQwFIgxChh0i7EBNd0xFDAU+I0CBt3MVDAUMBSITQoYdIvNcTW9MhQwFDDoZuaAoYChQGxSwKBbbI6r6ZWhgKGAQTczBwwFDAVikwIG3WJzXE2vDAUMBf4fGEVPuqeCHd8AAAAASUVORK5CYII=;" vertex="1" parent="15gxBGkXHDmCzy9u11-4-53">
          <mxGeometry x="254" y="555" width="130" height="25.37" as="geometry" />
        </mxCell>
        <mxCell id="15gxBGkXHDmCzy9u11-4-84" value="" style="endArrow=classic;html=1;rounded=0;fontSize=9;" edge="1" parent="15gxBGkXHDmCzy9u11-4-83">
          <mxGeometry width="50" height="50" relative="1" as="geometry">
            <mxPoint x="66" y="-170" as="sourcePoint" />
            <mxPoint x="66" y="-15" as="targetPoint" />
          </mxGeometry>
        </mxCell>
        <mxCell id="15gxBGkXHDmCzy9u11-4-85" value="" style="shape=image;verticalLabelPosition=bottom;labelBackgroundColor=default;verticalAlign=top;aspect=fixed;imageAspect=0;image=data:image/png,iVBORw0KGgoAAAANSUhEUgAAA00AAACgCAYAAADQMYftAAAAAXNSR0IArs4c6QAAAERlWElmTU0AKgAAAAgAAYdpAAQAAAABAAAAGgAAAAAAA6ABAAMAAAABAAEAAKACAAQAAAABAAADTaADAAQAAAABAAAAoAAAAACWvfsfAAA9pUlEQVR4Ae2dB5xU1fn+z1AVwYYiNgREsSBFUBSlqbF3DBoLTaKG2GKNGuNaozGoiVH/xiiif02MvXeaFEU6CoKUBVGkWhCRtvN7nl0GlmVmdsq959zyvHweZuaW877ne2dn7nvaGCMTAREQAREQAREQAREQAREQAREQAREQAREQAREQAREQAREQAREQAREQAREQAREQAREQAREQAREQAREQAREQAREQAREQAREQAREQAREQAREQAREQAREQAREQAREQAREQAREQAREQAREQAREQAREQAREQAREQAREQAREQAREQAREQAREQAREQAREQAREQAREQAREQAREQAREQAREQgWgSSESzWsGp1YHG1PnsU9PF/ISYEqYd/q9vkviXsgS2lpnV+H+EqWmSi0rNpMa9zMrUbj2KgAiIgAiIgAiIgAiIgAi4JaCkyVv+tZOfmmOQ8nRDWtQFRR8EbZO3i4RZg/M/hCaZGmbogsVm5J49zaq8y9EJIiACIiACIiACIiACIiACRRNQ0lQcwkTyY9MI6cxZKOZ06Jjiist49jrsGYOeqCcWLTVvNT7TLM54pHaIgAiIgAiIgAiIgAiIgAh4SkBJU2E4ayXHmeMw5K4feoPOLKyIgs9ah96nUd98awbufrZ5veBSdKIIiIAIiIAIiIAIiIAIiEBOBJQ05YSp4qAWxtT9cqy5xPxsbkSy1CiPU/069CvMhbp7/AzzWIeLzVq/nKhcERABERABERABERABEYgzASVNuV39WslPzMlIlh7D4TvldorFo2qaeV8tNDc0Odv8x6JXuRIBERABERABERABERCBWBBQ0pT9MtfAnKVW5hczCD1LB2c/1PHeJNbgq2nGI3nq1+Qc85njaOS+MAINcNqJUFtodWFF5HxWbRw5D3oW4tqOMhEQAREQAREQAREQgQwElDRlAIPNddG7dAN6l/7I55kPC9yenzDn6Y5hZWZg9+6GC0hktfbtTe1xj5uO5jvTFQe2gpphyN9BSBLrpTmRN/JTsH8J9g9FkjaxdLYZ1awv0kqZFwR2RyEPQmd4UVgOZYzHMadAC3M4VoeIgAiIgAiIgAiIQGwJKGlKc+mTY82eSJZeCXzvUprYyzdV9DqNnfWV+fU+55sFVQ8rT5SeMJ3NcnM5EqDDUc/C52dxeXRjRiJRGzRzgXmn5blmaVV/ep0zASVNOaMKzIHsHeSqmSdAe0H8iYG9NzxOxSN/c+0baAj0FqS/D0CQiYAIiIAIiEDYCChp2vyK1UiOwe8r/WLew2YOXwq31TTLSr8y5zU7z7zLiuy2m6n39RtIlH4w1+HlDp5XLoFUs6Z5evpc888DemmIYAF8lTQVAM3RKYfC7w3QcdDWOcawFsd9AN0DDc/xHB0mAiIgAiIgAiIQAAJKmjZdhDqYvzQAv7l0/6ZNkXi2Ej1J/0KP0mzoNjzf0UKtViN5emHmXHN9y97mawv+ouJCSVPwryQXgrkVGlBEqGU4938Qk65SSCYCIiACIiACIhBwAjUCHp+t8KKaMJHfNkiW/oDHf1pKmOizrllvztu3ifksOdJcmSzB4D2ZCISfQEdUgT1ExSRMpMC/h3Mg9jodD8lEQAREQAREQAQCTkA3sxiGF9EepiC89bbHr0fdZ442Qz4fZBoHISDFIAIFEmDC9AR0QIHnpzuNc5/+DfVIt1PbREAEREAEREAEgkMg7kmTEib/34sJrOHX9YAWZuLnT5ij/HcnDyLgOYHWKJGrGnqZMKWC5JDMq6D9Uhv0KAIiIAIiIAIiEDwCcU6aUgnTA8G7LBGMaJ1pfMA+5tVpT5o/RbB2qlJ0CXA1vL7QIT5WsRPKZuIkEwEREAEREAERCCiBuCZNNbCseCcs+qCEyeYbc52pv//e5nolTjahy1eRBA7H+RcUWUYup5+IgzRMLxdSOkYEREAEREAEHBCIZdKUHIXfYVpZPgnbAfKYu9yQOE19wtwUcxKqfvAJsJfpJKihhVA5TI++ZCIgAiIgAiIgAgEkELukaeedTX38AtNLuBa1Ang94hESEqdW+5jfTx1kusWjwqplSAlwDtOxFmNvA1/tLfqTKxEQAREQAREQgRwJxC1pqrP4DXM1epkOzpGPDvOLwDqza6sW5smpTxquICYTgSAS2BNB+bH4Q6a67oUdB2baqe0iIAIiIAIiIALuCMQpaUokPzH7m581LMzd262K53WmSavm5uEqW/VSBIJCYDfLgXAY4EGWfcqdCIiACIiACIhADgRikzRhWB5/5JW/s1I7By46xA6BBK7JoVOeMJfacScvIpAzAc5nctELSr8yERABERABERCBgBGIS9JUc/Hr+IlVDcsL2NsP4awz2x+0j7lGw/SCd2kUkRMCWznxKqciIAIiIAIiIAJZCcQiaUIv09bo0RiYlYR2uiTQ2JSZa10GIN8iEBACSpoCciFiEkZH1PMIaOuY1FfVFAEREIGCCcQhaaq9+DX8OOXPTobaFHxhYnXiOlMXq+kdr96mWF11VTY9ge/Tb9ZWEfCEwC4o5UxoELQU+hg6C4rDvQCqKRMBERCBwglEftlt9DLVRS/T5YUj0pmWCKR6my6x5E9uRCAbgZXYOTvbAT7to1+ZCHhFIIGCOkH88eSjoLaQejMBQSYCIiAC+RKIetJUE71MR5lVpkW+YHS8ZQIVvU1HjXvU1O5wsVlr2bvciUA6At+k2+jjtp9Q9hwfy1fR8SDQBNU8HToBYsK0LSQTAREQAREokkDQk6YayTFoGVtttsOcl7KVq8zy+ieZqXnUuQ56mXrlcbwOdUtg5zq1zEUI4SG3Yci7CJQT+Ar/T4Ns/VbTTPgaW+5Z/4lA7gS44mJ3iEnSMRAbCTXcDhBkIiACIuAlgSAkTUyMjjK/mK5IcJqYpGmGxzZ4rGgd+2VDdTHIYJt6xiSHlr9O4v/l0ERoMlT602oztMHx5nM832jJcWZns8L02LhBT4JOYHsEyC9+JU1Bv1LxiI8J03uQraRpBnyNjwda1bIIAjVxbivoVOgkqA2kIXeAIBMBERABPwm4SJoSyVGmOQZgnYnEiB/6RyJhqjCmQrTUY8WrdP9znDZ/CJKtapSpX9ckkVAtw9MPoVegd8xP5jQ8ysJCYB1+2bOlaaEhemG5YJGPk/OLPoB+B9X1ubZfo/wXffah4sNLYCeEfhz0a4hzkxpAMhEQAREQAYsEbCZNNZEs9TNrTG+IS5x6bUyk+MVydrmSGNBnzHxIFi4C29euVd7b9Fq4wla0ESUwDPV6BLrS5/q9hfKVNPkMOUTF10esHaBToJOhFpCG3AGCTAREQARcEfA9aUp+gh6hleZqDLm7DMkSvwjsWKL8C6apHWfy4iGBeuhpPBDlKWnyEKqKKpgAe5sGQWzoOaTgUrKfOBq778t+iPbGjMBfUV/2cMpEQAREQAQCQsDPlquayZHmTvw+0lwkTDegvvYSpoDAVRgFEeDiHVz9SSYCQSEwBYFcA/nRc81lzW+HvoBkIiACIiACIiACASXgR09TAsnSMZiz9AS0R0DrrbCCS4BzR7hMrkwEgkRgBILpCT0BebUwxASUxdUix0MyERABERABERCBABPwtKcJCzHsBL2OZIkrTilhCvCFV2giIAJ5E/gEZ3COSbFzj7jUzZPQ8ZASJkCQiYAIiIAIiEDQCXiVNHFFPI73nwRxCVSZCBRGAD9r27qlqcsV9AorQGeJgK8E5qD0s6BDobfz9MT5Uc9AXCK6L7QEkomACIiACIiACISAgBfD82okR5SvivdYCOqrEMNBoE6d2mZPhMobVJkIBJHApwjqRGh3iKubdYS4wtl20EHQD9B0aDn0JTRkg5g4yURABERABERABEJGoNikqSYSpgfMenNpyOqtcEVABETACwL8faVHN8iL8lSGCIiACIiACIhAAAkUkzQxYXoSCdP5AayXQoo4gcP3MFuPfhPDnJaaelhcvmyz6tYxZZOmmoXtLilv4d9sl16IgAiIgAiIgAiIgAiIQL4ECk2alDDlS1rH505grfm5dT8zJ/mB2cXUxFy5BIY7lZlmSI7a4Dec9kJBu5QXxoFP6WblrTGmbUtjsCiJwblrcA6H+c3C8ymYKVU6YbL5pP0APJeJgAiIgAiIgAiIgAiIQA4ECkmaUkPy1MOUA2AdUgCBhGmGhGcqzmxVfjbXGktAfMzXkqYOTtmvXEnMPUFCdfD+5QnVL9j2MZKooWM/M+93vMSMybdoHS8CIiACIiACIiACIhAPAuna6bPVPIEheX01hykbIu0rmkASQ+5SCVPRhWUsYCvs6Ybl8W89tKUZnRxmfoAeTY42xw8tMYU0JmR0pB0iIAIiIAIiIAIiIALhJpBP0pRIfmQORsKkVfLCfc0VfToCSbMterIuMqvN2926mWVYQv+hUQ+VL6Of7mhtEwEREAEREAEREAERiBGBnJMmzC/Z0awzL8eIjaoaVwJMoNaYAZ0OQA/UUPMpep96JZPlAwTjSkT1FgEREAEREAEREIFYE8g1aaqBuR+DQIq/nSMTgbgQ4DC9Duh9GmyGofdppLnx3XvNNnGpvOopAiIgAiIgAiIgAiJQQSCXuRucx3QGhuWdImgiEGMCO2D+053HdjDXoOfp3vdGmX8cd63RD5XG+A2hqlshwJUy94Z2hlpA20PrIVpN6HuIPx68BJoNLYZkIlAMAS4exB+o5rzX9hDfe3zPrYY6VHpdG89nQgsg7ufxY6EV0HjoO0gWHAKNEUpziJ8hbaG6UGp5KS41xe/zyRB/wmQktAqSFU6gAU5tB5HtthueV+2o4b75EFc4ppE//25S14XbAmXVJk3lw/LWm/sDFbWCEQF3BHbAV+ddSJ6uVfLk7iLIcyQJcAEY3qQeA3WEeIPaEMrHfsbBvHH9BPoQ+gjiSpkyEUhHgDfQnaBDoDYQ33O7Q1Vv7rAprR2RdmvFRqzVamZAvAEfAnGF1oUQb8pl/hJgAns4dBTEBOloaGsoH/sWB0+F+BkyFOJnylpItiWBA7CpG8QkqSnUHWKjVqFG5qUQk6hh0AQoEIkUs7xsViM53NyKP/E/ZTtI+0QgxgQWor3qGnw8/yeRKPqPml/WD0JnWOLJ1tBTIH6R+2E7oNATIS4dz1ZaF5Zq/X2pAOc74ZyToP0gv+OvCx+fQYzTyxbOliiP7ycOK2VruJfGFvl50BvQ10UUzJub30MnQ9sVUU66U7/HxtegJ6ExkKsEisngcRBv3Kq7DitwzDkQb+Bt2Mdwwpt6vsdzTRYyxcUW5UEQbzaDaGwobgedBh0PHQTxfWzLZsAR34/PQ5OgMN2EkxWZNYC8Tvx4g70UGgzxb7YQ43Xk39jp0NkQP/O8tCUo7B1oIMT3t9cMUGRojGxPgcj6aKghVF0+gUMKtq9w5nCIfzsvQs7YZ60kepkaIleciwD5RyITARFImJ+RGk2E5uD2YjqALMVX7ri3x5lpJ15e9I111JKm/uDzmOM3zXj47wMxIcnXmHA8AnXP98QCj38L5/H3774r8Px0p3XBxn9D+6Tb6cG2L1DG76BheZbFm9dfQ7dCfsVWNSTesP4ZYmK6rupOn19fhPIHQvV99hOE4s9DEM8GIZBKMRyE532hXhBv8IJgCxEEk6eHIA7zC7r9BgE+ADXyKdA5KJc9Q/PyLJ+Nc7+Ffg/tCSUgv+0jOCCLNyE2NsTFjkVFe0M9IX6Gu7AVcPo0dB/E94zVHqhslebiD1cin1PChKsiixmBJN75Ncy3+HNkl/wIJEbTxk02sw4ZsHHsbcyA5F3dw3HGnXmf5e0JTJQuhQpJmLyNxF1p38M1W3D9SkyY6DfJo3oukqVUeEyCn4O+hK6C3oBk0SZwJqpXAjFpCprtioAuh3izPxIqgXgzXl1PJA6JpLGXuWYeNWOvKPmVQF73UKPIrNYZe6nR0BXQBKgMiqKxd5zv0f4Qv0eK7Y1GEUUZc5IBG/QMHkug2ZCV5KkWHKU19DLtgLcA3wwyEYgDAQ7bGYM2qo/QWDBhzHTzUaf+ZnkcKu5DHfdAmX+A/GqRzCXkb3HQ3dDHuRysY6wQ4LyRv0FdrHjL7IRf/K9Dg6HroUWQLDoEtkJVLoZugHYJQbWYKHSFhkK8Cb8RGgnFLXliD2A9KBdjMnwP1CKXg308hvPheM0eh/hZ8iMUFUslS9egQvwut9GDly879mpTTJ6uhNhA6KtlSpoSuHE8Xb1MvrJX4W4JsFViAdom3sGcpFfHTjQfd7zULHMbUmS8H4+acOiVK/sOjksgfpDK/CXAVr/9qnHBL99roT9CfB4U641AeNOjXqegXJHi4zgdRdwHNSu+KCcl8P04DHoP4s3qVCgoNgaB/AC5bAwjCyYovFGuyxcBsNqI4RKoM3QGxJ7ssNvRqMA/oP2hICZLVfny/XAqdAc0EPKtwSFz0lTR5QjfMhGIDAEmSvMx1O65CZPNy+0HqBfChyt7GMq804dycy1yLQ78F/RorifoOF8J8OaVvUtsGQ6i7YOgXoAugx4LYoCKKScCvI68fl1zOjr4Bx2LEKdAJRCTQM7jiIO1QiWnQ+luepmsvQu1hYJoByKoT6FzoPehdHXA5kDbzoiOc2C5gFOm/CCoFWAD3j0QRzKwQWwZ5LmlHZuY/Airy5QFcgyw5wBUYAwIcPEGzmWoa04YP9PskzjCXK+EyZfrvjtKdTksby388waDPRoyewR2zODqYGx/DgpqwpQKmy3WD0AczsWhXbJwEWAv5lgoKglTZfoleMFEoV3ljRF+zrlJ6W7WuUDEZCioCVPqkjD+t6HjoHzmZ6XOd/lIxhMg9tikuwYuY8vH90k4eBLUAfK8lyxd0pRAwnR6PhHqWBEIKIEf0Kt086jZpnGiuzkn0cm82+HiUC3xGlCsGcPisLyeGff6v4PzVG7z302oPCxEtKU+R8ykiTcLle0YvHgeOqTyxgA/51yKu6DfBjhGhbY5gcZ4yYTir9D2m++K1KvDURv2XJwL1Y5UzbaszJ7YVKfK5m54/QzE6x0WexOBhilxugXxvgVxPnIUjPUYAvWAPE2c0iVNBHYa/5OJQEgJzMLHbl+s6r8jepXuOPLC2AxtcHm5DoPzOx0G8BJ8XwCxV1G2icAqPLXNhAnTo1DzTWGE5tm9iFSJU/Av1wkIcTTEYWxxsIaoJBOHGyEOQ4qqNUHFKidN3fD6WShMCRPCLTcmTpwTFGSrjeBehv4E1Q1yoAXExr8TNtxdCGXKdfIudouCkqPLV807KO+SdIIIuCaQMIvRqdwbyVJLJEtPJkrQZyqzQSA1LG8XG87S+OCQghLIdnKQJpRYbmqBWqcWg+BNAr+Aw5gw8eLxxqEE4k25LJgE+iGsJyHOl4ublaDCd0A7xKDi3VBHJky7hriu7Al19b1YHbZaOIDxhX04XnX1fAwH8DNji3ynuhPT7d+ykDWRHBecru7aFh0CK9E2NXDKfNM80dk8pWTJ+oV1OSyPCVMfaKr1WsthZQKr8YJD3G6Hwj63ZDfU4WqoJSQLFoFbEc6DUKNghWU1msvhrQSynTiVwudKyE/rhMI5r5B1uw8Kc8KE8A0/S+6Hqg5f5j6XxoTpPYiLJmyZB7iMzB/ffC9xjm3RQ/WqwmKBQZ9o5w9SlRo+AvwB2jpm+ITZpi16lq5p08v3D/TwMfI/YpfD8uajerxJV8Lk/3XO5oE3BGxNvRTqke3AEO07GrH+JkTxxiFUrsJ4I8TkPO7GxInzUGwnTut8Bp9E+Rwh8jQUlXtRfo5wcQIOhQuCVU6YagYhIAsxcKjeUKh5sb6qJk3Mw8LeSlgsE50fBgIJ/PBsXfyYWSfTvX1/MysMIUcwRpfD8haB583QKxHkGrYq8QvpOuiisAVeTbxXYH/QV/6rpgqR2c1k6XcQb/hkFQT4/nSROPnJnwt6/AU6HCq6V8DPQPMsm4uVcMEc1xbHhCnFvD6evAxtmfekjsjhccuTk6ZpDufpEBFwQyDVuzTLdETv0oOJBH6eVuaCAD98fw31dOCcc5fY3f6UA99yuSWBnbHpKGjvLXeFegtv4E6GmBTK3BHoC9dMENTDtOU1IJcLIQ5pi4LthEr0hoKQYHjJkw2M/aCtvSy0gLIexTlHQnHpYaqKiOs1PABtmftUPTLD66onMrPfK8Ox2iwCrgmUz11CstRNvUuuL4VxNSxvLWr+T4gtd7LqCfyCQ/yeh1B9FOE94gyEfnR4ww995LzBYy9mo9DXxL8KcMVHDv+SBZvAXQivmcMQmWBzqGBQhgm6QnEZHHeHmO/kbVWTprwL0AkiYIVAbbN08ixzSeLI8i9QKy7lJCOBptjzR8hFy+9/4fd6SJYbAc5BmJfboToqDQH1NqWBYmkTE6W7of0s+Quzm8cRfJswVyAmsZ+GerrobWoLv7c58h3ES3s/gio+aUoON9002CmI11cxgcB6DMX7QSScE+CwvLMgFy2br8DvJc4JKIC4EeDiFuptsn/VeWNzhH23ofS4HaL+E7RrKKOPT9Ccm8eGGJvG5OBFaFubTgPui8P0/gDlnTippyngV1bhbSSwU1nSnL3xlZ64IsBheSUOnH8An+dCnM8kEwGbBHiT09GmQ/kyHEJzojjkRYCNWadAbNiSBZMAFyPgkF+bPyT7GPzt6QDH1/D5CMS5z8dAnK/GnIOJCpc6Z68bE/1PIRe/qclFVPKeO6ekCdRkISCw1tRsu585eGiJvhAcXq2m8M1hedtYjmEi/F0FrbLsV+5EIEXgBDxR4pSi4e9jcxTfC7LdIp+pVrz5ewriqm59IN7w9YXYa8BhcXOhJBQE41zP/YMQiGLISICLy9ga2t4GvphM25zH9DH8scGD6yMMgF6APoSWQam/k4/w/DXoTuhQqAn0/6D1kC1rAEdXQnnlQWqRsHV55Kd4Agmz7XZ7YJFxY0YUX5hKyJMAPytcDMubDr+XQvotpjwvmA73lABvPg6APvG0VBWWjgCHzXRIt8PiNjbQPAQ9AqVLinjTV9n4/mAixWRvh8o7LD/fDv4Yx23Q9z74/tGHMuNWJBtgdoe+s1Bx9jLZGpa3CL76Q29D+SY/bJj4HcT37UtQR4g9Un7bFXDwAMSELifLK8PKqUQdJAL+EWiAdgomTTL7BFwMy+OH8D3QaPvVlUcR2IJAW2xRQ+MWWDzdcBxKYyu1S3sKzltA10JzoFTrOJ5mtMnYw1brdtB/oDWQK/Mz6fwclVrtqmIR8sveSr+H6DGBZ0OPjeSDw+f53n8DyjdhwikbbSGeHQ7Z6nVib1MfKGdGSppASxYaAmwxUdJk/3I1hUvbw/KYMF0PDYZk0STAFvz7oHOgfSEOIeGXV2PoMOh86HnIjxZzFJu38Qaked5nVZzwLzzwC5r1y0Xs4bBlbGnlXItc4srlmGeLCPwCnFso4yLclp/6A/7n/Is+0DdQITYPJ50LMXHJufW6EEfVnHMR9sdpUYgRqO+fISbcXG0x9VlCBuy14PUYDrlMZuF+o3GI3tYbX3n/hH+n5GFjKP2L8HMqxITHKxuAgviZWUwClmss7G3KORfa7MBEVzOs/GMzV1c6TgQsE8AnwZ6WXcbdnYtheWsB/WlocNzhR7T+vMHpDjWHroaeg76E1kE0JsyfQM9APaE9ICbtyyGXxiFjTJxk/hA4DsUyWXZhK+D0bIjzL3LpWaouxodxAG9aXSVOTP7i8F3JHg7OieHnye3Q29AMKPVZ8i2ej4XYMNAN2gW6E1oJubTOcO5nT9NlKN9G0kz+7NFaBXltTJzeh8q8LrhKefw76VZlW8aXNTLu0Q4RCBoB3Eq33d9sO/kxpz8QFzQqfsfDm5gSv51UKp8J09+haytt09NoEGBL5PlQV2gYlKvxBuceiDdHr+Z6kg/HbY8ymejJ/CFwAYrd25+is5bKhIlJxrtZj8p/p+vE6RyEzPdsFI3JUDeIiXY+q699j+P/BLEBZDrkytizy/c62oF9sUtRaj1fSt5U6BI87Qv9vGmT58/6oUT68dt6w0FO16Jq0sQWlnl+R6fyRaAIAnXXJ2LRglYEIs9O3QslsYXfRhd/KuhX8EQJU4pGdB7HoyqnQew9KtRm48Se0EOFFuDBefyb0LwmD0BWKaI1Xreqss3Wyz5w5HXClIqdidOjkB8t8SkfmR6vxI5mmXaGePsQxN4OGg4V2gvxBc49GvoccmV8z9fxwTmHyjX2odyqRfbHBjaE+Wksn42oqZ5Dv3ydnmvBVZMm5lqluZ6s40TAAYG6NZLly1M6cB0rl7wx7AGdZLHW7EXoa9GfXNkhwCEcTHY+9cAd5yTcAb3uQVmFFNEUJ+1WyIk6JysBvj8OzHqEPztLUOzb/hS9sVT2bPAG37Yl4LA9FKUknwnTeRB7moo13pD/CnKVODFpql1sJdKcz6F5fvcyvQgfHDq3Po1/rzc9gAKXeV1olfIa4HVOidOWSVPSyR93lfj1UgQyEqiJpiW+wWX+EmArXIm/LjYrfRxe8beYVm62VS/CTqAUFbgPmuNhRXjDNBByMbyGPU025gp4iCvwRW2NCA+HbN/cT4TP5yG/e4E4goe9TV9Dto3DmzhnIwo2HpXoBXmRMKV4MHEqgZanNlh87AxfdT32x88nJso1PS63anG3YcMvVTf69Jp/n09CfidoHAnBhoasVjVp4h/3pKxnaKcIuCVQL5FwNozDbc3teW8BVzdAtpLTKfDVH/LyxhrFyRwT4JCKuyE/WvLZcv+ig/opafIe+okoch/vi622xAdxxLRqj/LmgFdQzBBvisqrFCajO+d1RjAP5g36xZAfiecLKJf3vbz/tWn8LPG6oeAClMlGCD/tJRT+JWST12D48ztp6gYf1VrVpIkjLPllJBMBEYgnAX6Inwp1tVR9JkrXQ5Mt+ZMbewSegasnfHTHIXoTfCw/XdHbY+MO6XZoW8EEuuDMPQs+u7ATR+C0kYWdWvBZ/8SZvNm0bUfC4Va2nXrs72aU52eCy8adpR7HXF1xbJT0Omnid7fXvVdV6/EPbFhddaPPr6ejfN4r+JmoMYltVl09tkiaEp3wK8U1zNTqTtR+ERCBSBI4FLW6zVLNFsPPHdA7lvzJjT0CpXD1HLTWR5djUfYwH8vPVLSSpkxk8t/OVnEXC0A8C7+2Exi+X2fmj6joM36FEnYquhR3BcyG6/9BHKbll72Pguf7VXiWcnmjnsiyP59dLKuFh+Wl881rwYaqsnQ7fd7GDh2//XaFj6zXY4ukqbzSCSdfRD7zVvEiIALVEOCHLoflbVPNcV7s/h6FMGEa5EVhKiNwBDgkj/LbRsPBIr+dqHzfCByMknf1rfT0BTNZ+iT9Lt+38m9iue9eNnfAIXphTvTvRfxezmPanM6mV+wZX7HppZVn/M71qrfpApTFRgg/7TUU7mdDWLbYORolme0AD/a1qa6MdElTEnnW4OpO1H4REIHIEeiGGp1soVb80H0c4pwCWfQIMIn50FK1ZsDPLEu+Um4OwBNb8/1SPqP62BkV442jTRsGZ37MjcmlDk/hIA4zsmnbwdnuNh166IvfFUMgrprpt42Cg5/9duJj+V1Rdm0fy2fR7O1xlTRx3pnfPU1tWclsli5pMonOmBRXw3yV7UTtEwERiBQBtrDcZKlGg+DnGku+5MY+AQ7vnmjJrYukyVLVYuGGPU31LNd0GPwtsewz5Y49GQtSLyw+MtEP47ymtxD3D5Y4jYUf20kTGwy8WumON/xelZUJOZOm9Zl2+rydo1P8tsKSJkTFbO7vfken8kVABJwT4AcgG09Oh/axEM3r8HGVBT9y4Y4AW/FtNbqx1dPFTag7utHxzKFEDS1Xh8O8bPdMVq3iB9hge4jeYfAZxiF6HH77U1WAPr6ehLJtJgVN4M+L4Xnssa3jIxcWPRuyyaZqdaZjg989TeyVzfp3kuliJdEB9yRy1ltQgIYhVL10eu2SwHr82dhqeXJZT1u+V8NRO+haCw7fgI/fQPotJguwHbpgEmNzCAd7m36EtnVYZ7nOnwAbaWwnTePhc3H+oXp6xqcobRm0o6elZi+MPU31sx8SyL38rrd5oz4P/vjZ5XePjdewOVIk0/28V754HbgSI3vjEl4Vmkc5vC5pR8flUUYuh7K3aUimAzNCThxjvksOR29TmflTppO1XQQcEPgZv9M0zYHfKLrkh9CeUG/I78UfpsLHzZASJkCQiYAIlPds20wciJxJE+fcuTS2mNtu+NsDPsM4PG8U4mbDni37DI7oL2ysuiBmv3ua9oUPDpeMurG3KaNly9rKkG8/gDNXZDxbO0RABMJMIIngOWzjIp8rwZZdfpZw6IMs+gRszwtgT9Os6GONXA1d9DTxvbLKMUneU7Fn1KbxRlCjhmwSt+urNdxl7ASxG0rovbGnKWNPWrakybC3CZ1hfw89AlUgSgR+xLuZrU+y4gm0QBFMmPz+MbxG8HFS8eGqhBAQ4M2grflMIcChELMQ2BX76mXZ78euhX4UWkCZY3HOLwWcV8wpGr5aPT2OiGBPU9jMdo9t2Ph4Fm/WpAle1NvkGWoV5AmBpFm9/GvdlHnC0pidUc4hHpVVXTHH44CbqjtI+0VABGJDgEmTTeMiEEEZHszGBQ6Ptmmc1xS2YWc2+dCX7TlUXtRPvUxeUNxUBlc0zGjVJU3sbVqOKXF9M5agHSJgi0BtjO/6wizpXmLW2XIpP54RYIvyhRCTJ5kIiIAI+D0Hoyph9jIFJWn6ArHYHqJXlYdeR4MAh15Wey8fjapaqUXTbF5yAZ1MdDEv45K8nq0g7RMBCwRWY6QpJ2rKwkmgGcK+DvL7V8vDSUdRi0B8CLCXu6Hl6n4Df0FJmixXXe4iTIAr56FJWWaDQC5JE+PgMD32NnECo0wEXBFYkUiaMa6cy68nBDqjFK6iJxMBERCBuBJwsYIeh+eFcdnxuL5HVO8AEsg1aUoN0zsjgHVQSPEhoEUgwn+tucLP2ZCG6YX/WqoGIhAmAkHqaWIDtO05TVwIQiushekdm1usHJ6H9bFkNgjknDQhGA7TG4L5Tb+1EZh8iMBmBDifabpZ0Oa3Zu5m2/UijASaI2j+/htX1ZOJgAiIgA0CnNP0kw1H8iECFgloeJ5F2PkkTQyLidMgJE7/32KMciUCJLACPyr0tlBEhsARqMntkamNKiICIiACIiACIhBpAvkmTYSxHolTHyVOkX5fBLFy32M+0ztBDEwxFUzgRJx5VsFn60QREAEREAEREAERsESgkKSJoSlxsnSB5AYEMDRvygwzr91FZpJ4RIrAHqjNlZCG6UXqsqoyIiACASTAJc71cx0BvDAKKTwECk2aWEMlTuG5zmGPdGkyaf4V9koo/rQEOEzv/rR7tFEEREAEvCOwL4rawbviQlfSNESsOV2hu2wK2DKB4dn8FZM0sVwmTr21OEQ2xNrnAYFl69ab/3pQjooIJgEO07ssmKEpKhEQgYgQaIB62P5B3Uzo9sMOrnomEwERCBGBYpMmVrUMidPj+Cg6FM+/DlHdFWoYCNQ2K6Z8YQZ3uNj68qxhoBOVGLdHRXpBzaNSIdVDBERABLIQ4PLfGHguE4GiCZSihPVFl6ICciLgRdJER8nEEeZTPLaF3uQGmQh4ROCbtevN3zwqS8UEl0AHhHZbcMNTZCIgAiEnsBvi3yYgdWCvl+3fTOLwvF8CUn+F4R2B+ShKSZN3PDk8D4s1pzevkqby0hPdzVLoVHwU9MSGBeldaqsI5EhAvUw5gorMYfzx7D9GpjaqiAiIQCYCS7CDv5tk03aFs6AkTfsjFtvD87gQhEwERKAIAp4mTRviKEt0Ns+beuh1Spi7sI2/fC0TgUIIqJepEGrhPaceQucwPS4OIRMBERABLwk0RmFBWQhid8SylZeVq6YstpyvquYY7Q4ngR8Qdlk4Qw9k1MOyReVb93Cio1kGxzclPzH3mZXmaiRQnOhdP1sw2icCGwnUNksnf2Hu1FymjURsPmF3/3tQJ+gAm47hiy2wV0CjLPuVOxEQAbsEZsIdl8D27T4kTXUaptnmYhOTJpvGkT8ammeTuD1fk+FqrQV37ADhz75EeShgAvXLODSPjH3/sNqQPN2YHGUeMGvMMPjkTZFMBDITwPTYqTPMJ237m6czH6Q9PhHgTczLEH8/ibofsm0nwSGH6d1t27H8iYAIWCPA5a/XQL7fh1SqEedOct41W+ddGRMm28nbx/D5vasKy6+vBOahdBuJDP9WT4ZiPczTj+F5ad8dWCjie6wVoz/atHS0sQqBueiZvLzKNr20Q+BDuLl5g6v38DjRjtvNvHCYXn/ouM226oUIiECUCPCzxfa8pvbw2cgxRK40vJPlGNjTpOF5lqFbcscGABtJExN9azmDJXZ5u4k9gLyJ6QR/CVQMy7uldT8zx19HKj0NAXbzcxgtu+FpXG2J8xJd2N5weh20tQvn8ikCIuA7gS/hgcP4bRqTpl1sOkzji0kTb0BtGj/L2bMniyYBfnfbSJy6wk/NaCLMrVZKmnLjpKNsEKhl1k+Zad7TsDwbsLfwwS5+9jDxRqayjcaL/1beYPF5F/i6yaI/uRKBOBJgEsHfDbJtbBiznTRx9bwDbVe0ir8j8NrmIhB0PwXi0GtZNAkwabJxfU+FnzrRRJhbrWwmTUkMuSrNLSwdFVMC49r0M+fFtO4uq83u/Qeh19ME8Q22PQStTLPP702c63AOdKzfjlS+CMSYAFeVc5E0EXnVRhobl6EbnOxmw1EaH+xlIm+b9jmcfWfToXxZJzAVHm0kTafBT6x/lNlu0pQ0bM2WicCWBGqbiVPm4je+ZLYJ8IOWC24MzOJ4fDX7s5xa9C4O02Nv085Fl6QCREAE0hFojo2N0u2wsG0CfCyy4Keyi1PwgnV2YUfDqe2kiYtAKGlycbXt+RwOV1yowW/jsNK+UGwTJ7tJk1FPk9/v6FCWX8sswLC8/m16mcWhjD/cQQ9B+DdWUwVOIP4fxInbLozD9EpcOJZPEYgBgb1QR1eNEvxM+dYyYw7R+xXkYr4kGwYbWK4vF/RZatmn3NklMN/iNeYw/rp2qxccb3aTJvU0BefKByWSWmbhZ7PMBRiWxxZHmV0Cs+HuL9CKHNxyiMeDORzn1yFc6vRMvwpXuSIQcwL7Oqo/59qUOvB9EXweZNnv7+HPNmcOvZ5uuZ5y54bAa3C72oJr9jbdCsUycbKZNJUlOpth8e3Us/BWDpuLioTp3IP64n0hc0GAPwEwIw/HQ3Hsm3kc7+WhTVDYFZCrFnEv66KyRCBoBDohoKaOgvoAfm3/HAmHyJ0E2extOh/+doRs2gtwttCmQ/lyRmAEPNsYoscKXgWdDXHecazMZtJEsPylXf0Bx+otlqGytcznU2ebU5QwZeATzM2lCGugw9A4TM+lf4dVl+uYEZiK+tpcIvoU+DvYEWPe7M1z4Ptq+Gxnye/18ONi1T4NzbN0gQPgxlZPU6qqj+HJ4ZDtPCLl38mj7cqWYQW9YU5qKqfBIVDLTMKiD0e17mPGBycoRZIjAU4qvi3HY/04jMP0BvhRsMoUgZgT6IP6N3XAYAp8fubAL+c23QBxTpef1hKFXwA18NNJmrI5pNrVPNQ04WiTBQKD4cPGED1WpQ70LsTv49gsDGE/aUqa4QAsiyeB1ejMfQLDNNtp0YfQvgG4KMTLkIulggltB6gX1IwvZCIQUQIrUS9bNz8phOxt6ge5GHLzPvzaXkWP9WYjTB/Ir2F6CZT9AOSil0lD8wA+ZvY66mvzc4N/Nw9Cj0C2f3sMLu2b/aSphpIm+5c5AB5rmeWfzzcXI2G6MADRKITiCEzC6X8proiizu6Is28tqgSdLALBJlCK8FwkEVwZ6z6oIWTTBsOZq8WASuCb30t+JIsPo9xjINvGqRCvQjaHeNquo/xtSWA4Ns2AeP1tGv9+SiE2QtSEgmptEVizYoKznTQlE53MHHw0TS8maJ0bIgJJU4brPXLGTNOpVW/DL0ZZNAgMRTXecliVHvB9nUP/ci0CfhLgzy/YXhwhVZ/L8GQkxL+vXVIbc3jcG8c0hQpNPkbg3J8hF8bW8kugQmNPFzNb3/t7XGY6P+m2sXdrbrod2hZ5Aneghi6SZX5WvA6NhE6AgpI8cZn/gRBXC+Zw1TOhBFSQefkBkWsA63Egb57vzvUEHRdSArXM3Gmzze0H9jGDQloDhZ2ZQCl2cSLoiZkP8XVPPZTeG/oIGuOrJxUuAvYJsJfJVdLE2u4H3QPxBowt119AcyAOG2RjK4cAtYF2hXhzxOFn20P3QiUQfzQ7X3scJ5wEHZnviR4dz8SJqwheA31TRJl74NxnIC5c48KScPo05PL946Le8llBgIkLG11sz6FL8T8MT9igyr8hvg9fgsZBZZDfth0ctIa6Q103PFZNkPi5xW38O8nbXCRNZfiIfRUfqUqa8r5coTnhJ7TXPTBnmvnbgRcb/k6ELJoEhqJabNG80lH1DoBftooraXJ0AeTWNwLfoeR5vpWee8Gc4N1qg3I/q7Ajl+C0f0P7Qo0KK6Los36DEpg4MWHkDV++LfZX4BwOcWwIuTImfRrN44q+e79MBm6DHoa2cRjObvB9/QYtwONwaBhUCvHegR0ohVoTnNgMagrtBTERagtxWwLKZk2z7axun4ukiUP0ZidHmrfN2vIuvOpi1P7wENiYLO2tZCk8V63wSJkQPwfxRoNd8y7sNDi9FmILt0wEokRgLirDHhsX39OuOA6G41OgHq4CgF/ehPGGswRibzoXVJgGrYHSWTtsPAO6CHL1OZiK6ys8eRv6JbVBj7Ek8BRqfSnUAaouibABiL2v521Qyt+PeDIJYg8Un0/e8BwP5caeMv5tpeLncd0g9nQXY51xcqrMvMtx9WHMDJMfjifkHbFOCBoBXsup6D3817SZ5rkD+5vlQQtQ8fhK4GOUfivEmwwXlhqmNxLO1ePk4grIp18E5qDgRdDufjkIaLnsbeLNUnPH8TWC/5s2iAnTVOgHiDdtvIHbCuJQoPpQUOwPCGR6UIJRHE4JsDHxNWhbp1Fkds64ulTafWql534/Za/UBCiZr6NiM7Z8/aWOL0scaV7Byu4LUxv0GDoCK9D+OXDmV6Zbortpl+hiHlHCFLpr6FXA76Cgt7wqrIByDsQ5JRBvYmQiEBUCn6Mi86JSmTzqwc8T9mCzly0oVgeBtIeOgrpteOQwviAlTIMQzwhIJgIkMBx6HlrLF7LNCDBpKshcJU0Mlh+IbKGWhY1ALbPmy6/M81g+/JqWvcpXSglbDRSvtwQ4jGiwt0XmXRpvZm7I+yydIALBJfAFQpsR3PB8jex2lP6Rrx6iVTiH5f0NWhKtaqk2RRL4Lc6fX2QZUTydc6AShVTMZdK0Hr1NT6K36dtCAtc5TgksWZ8snyjrNAg5DxSBoYjmcYcRcajxudCvHMYg1yLgNYFhKHCZ14WGoLxViJFDzaaEIFbXIXKoYG+I865kIlCZQBIvLoRWVN6o5+WLRhSEwWXSxIDXIde7raDIdZIbArXMqpml5n/79zYz3QQgrwElwBZOzkXgHAxX1gKOuXKUhum5ugLy6zWBsSgwrr1Nk1H3ByAunyzLTKA/dqlXLjOfuO/hML2bITZEyCoIdMZD6HqaGPr6xBHmCVPHfFxRD/0fAgIz6tUtnxwbglAVomUC4+BvoGWfVd0diw0cpiITgSgQ4BA9TliOqw1CxdmDHaT5TUG6Fn9HMK+IT5AuSSBj4fvkEYgLmsgqCHBeU96Jk+ueJobOi3gVn8gCTqCWWfzlHHPtnj3VYhHwK+UqPN7YvAq5bvXkksVcilwmAlEgwMnccR56dSPqz5s+TWjf/N1MJrdC322+Wa9EIC2B67F1FLQ+7d74bSxoMYggJE1J9DaNQ2/TX+N3zUJU41pm5cxS8/C+vc0HIYpaodonwGGbD9t3u5nHJnh1BbTTZlv1QgTCSWAEwh4WztA9i5rDbv8BqcepAilZKGGqYKH/cyPAvx2OxODniRInY5qCQyh7mhC3WYvE6RYkThyKIAseAf6xvd/yAq12GLxLE8iIhiCqJxxH1h3+/+w4BrkXAa8I/A8Fxbm3iRyZOD0IxT1xYsJUAqmHCRBkeRFQ4rQJV9dNT3N/FoSeplS0q/GkH6TJaikiwXhchx+ufRPLi58RjHAURQgIcOL2U9DPjmM9H/4vdhyD3IuAFwSGo5AXvSgo5GVwKP9dkOvPFlcYWf8/QkqYXF2B8Ptl4nQCxAaIOM9xCu2cptRbkMP0xqK36erUBj06J5DED9iOmVJqznMeiQIIG4FPEfD9joPeAf57QU0dxyH3IuAFgTtRCCf9x91uAYA+0IIYgeCy8/we/iekhuUYXXifqspOij9A10G/+OQj6MU2QIBN8w0ySD1NjJ2r6f0bv930aL4V0fGeE2AP02voYerSppdZ6XnpKjDqBNgS/Bw0yXFFO8G/huk5vghy7wkB3ujcAI3xpLRwF8LFMY6ChoW7GjlFz+vN3597FtJiGDkh00E5EuBiIkdCn0H8Tae4Wd69TUFLmnjB1uJHby83dQ3HcMvcEFiFhOmRRBdzuhv38hoRAlNRj3sCUBe+jzVMLwAXQiEUTYDzfvtBSpyM+RIcmEzcDUW1Ya8EdTsOmgjJRMAPAuNRaAeIc+XiNlwvEkkT3xRrEp3Q/V5HP6BKGFatpvl+1jfmMiRMl1v1K2dRJTASFWOrsEvjML1LocNcBiHfIuARASVOm0ByfgZ737pAUUok30N9WkO3QisgmQj4SYC92FdCR0D8zo7L6np5LwYRxJ4mXK9yW4XL1g3PZlS81P++EkighaGm+c/sr03rfc4r/zFBX92p8NgQ4LyDhyDXE7dbIYbLYkNdFY06ASZOp0IvRb2iOdZvAo7jUNwzoLk5nhPEw+YhqBMhTtRnT71MBGwS4A/Ud4Z6QtOhqA/Zm4Q65mVBTpoMejsWmq0NM0HOjYiLzcLblGNMB1upcNKUIVmaMHuBOR28z23xG/OVFb9yEicCQVgUgrw5TE8LzcTpnRftui5F9XpAAyA+l1UslHEAQHCVuVlQWG76ePPWF2LjzttQGSQTAVcE2BjDv6MoJk9TUC/eBzSHLofy+lsLdNKEypjEYWZRorvpHfk5TkxeaphxC5eYoxNHmVGocz+zAz5Ak1gWkr1A3ttarIw3dM5CcwqSpfYtzi//oPbei0oUgYpeppcBYrZjGPXgvw/U0XEcci8CXhJ4BIW1hv4Gfe9lwSEt6xfEzZU794F40zcaCuICCkzo3oDYSHoI9CT0EyQTgaAQeAGBMHk6HHoYWgKFpSECoW40JkrXQEyU2kD3QXOhvC3wSdOGGq3GHKfzzVbmprxrGI4T1qK353kz1HTcraeZvyHkskRb8zkSqMub9THb4V9vbOeNJ78QCjWOU/0MydnNX35j9sPKeEftfZ55q9DCdJ4I5EGAk005Ydu1sSX3Fmgr14HIvwh4SGAhyroW4vu7BFoEyYzhTR/naTApuQOaCbm+6ZuIGK6AGkKnQKMgzs2SiUBQCXyCwH4PNYPOhR6FgpxAMUl6CroQ4t8ZE6WBUEGJEs7baImNz8LxpEZyFFqJ15QnD7uEI+RqoqxhVn67xFy/61nl8z6qOdiY9sbUHjcRXwDfmW44uBV6ofbEI98U+0OVjclVxYS+pBmCXqXJpd+ayc16mm8rH6TngSJQF9G0gBpDTHD9tBoo/AdoKuRHT2a62LfFxoMg1jOvLvF0hRW4jfVma+6X0HfVlMGeqX0h/n35fT1qwQdvdKdDXt9A8TOCrYWc7Oun8fuEsfPG1OZNewP443XaHvL7OtWGj/nQLAu+4KJg2wZncnGEftDxUH3ID2OyNgH6GHoJ4vvXdVKCELIaP2M5VPc4iC3oZOWnLUDhI6DhEJO45VBYjb13u0L8HPXb6sABE8qVfjuqVD4/89tC/I7y+31MhnxvzIb8/tyCC1+M3yv8WyKz7hC/K23nFUyQSiE+DoP4eVTddzsOKcxsV66wKKuclRyLm8qV5Vnkr6rsCs/LirlEk79eZvrucaaZHJ7AFakIiIAIiECICDDR2xtiEtUJ2hlqD+Xa8Mgbu1LoZ4gJ8QyI23hDy9bmsNt+qMBhEG/8yKk1tAeUb2LAxqdpEBl9DY3ZoG/w6KqRCK5lImCNABvo9oKYQDG/4GcOH9nTs+OG53jI2ebjyFTv0Dw8L4XY2DsJYmLER7+TW7jYZKxMWK1WcjTGK68u73Jjy3x4LIEvn4S5a9oic++BPa218oeHjyIVAREQARGwRYAJQjNoK2gxxF5YJkhxN/Z0sGd8OyhT0lML+76FyMzvnly4kIlAJAhsi1qwkSLVMMHHYVCmvzPsCoaFOWkqJ4jheo3wUXUNkpAB2OB3N3uxV20t3iKvL15qrt2lh5lTbGE6XwREQAREQAREQAREQAREwH8CoU+aNiBKJEdiTPtaczte/9p/bHl7YLL01jdLzK27n6Vf9s6bnk4QAREQAREQAREQAREQAYcEopI0pRAmkh+j52nVhp6npOGkPnfGpcIT5j8Ll5sHdzvDjHcXiDyLgAiIgAiIgAiIgAiIgAgUSiBqSVNlDrWTY0x/LNB9KjYeX3mHr8+5wEMCKwjVMPctWWTeaqTV6nzFrcJFQAREQAREQAREQAREwG8CUU6aUuwSyRFmJyzo2ANrbHRBQsPVPHZP7fTocS3KfR96ddkSM2Kns8wXHpWrYkRABERABERABERABERABBwTiEPSVBVxDay61xwD59qhT6gdEp0jcQA58DG7VfQicQGHuUjAJuEHaectWmrGN+5R/hsV2c/VXhEQAREQAREQAREQAREQgVASiGPSlO1CJZLj8ONcP2JN+cSGHxurYcqWLzVzGvYo/12KbOdqnwiIgAiIgAiIgAiIgAiIgAiIgAiIgAiIgAiIgAiIgAiIgAiIgAiIgAiIgAiIgAiIgAiIgAiIgAiIgAiIgAiIgAiIgAiIgAiIgAiIgAiIgAiIgAiIgAiIgAiIgAiIgAiIgAiIgAiIgAiIgAiIgAiIgAiIgAiIgAiIgAiIgAiIgAiIgAiIgAiIgAiIgAiIgAiIgAiIgAiIgAiIQLAI/B/xCPd8bZhmiwAAAABJRU5ErkJggg==;" vertex="1" parent="15gxBGkXHDmCzy9u11-4-53">
          <mxGeometry x="254.5" y="585" width="131" height="24.8" as="geometry" />
        </mxCell>
        <mxCell id="15gxBGkXHDmCzy9u11-4-86" value="致知電子版" style="rounded=1;whiteSpace=wrap;html=1;labelBackgroundColor=none;fontSize=9;" vertex="1" parent="15gxBGkXHDmCzy9u11-4-53">
          <mxGeometry x="379" y="395" width="120" height="60" as="geometry" />
        </mxCell>
        <mxCell id="15gxBGkXHDmCzy9u11-4-87" value="" style="sketch=0;points=[[0,0,0],[0.25,0,0],[0.5,0,0],[0.75,0,0],[1,0,0],[0,1,0],[0.25,1,0],[0.5,1,0],[0.75,1,0],[1,1,0],[0,0.25,0],[0,0.5,0],[0,0.75,0],[1,0.25,0],[1,0.5,0],[1,0.75,0]];outlineConnect=0;fontColor=#232F3E;gradientColor=#F54749;gradientDirection=north;fillColor=#C7131F;strokeColor=#ffffff;dashed=0;verticalLabelPosition=bottom;verticalAlign=top;align=center;html=1;fontSize=12;fontStyle=0;aspect=fixed;shape=mxgraph.aws4.resourceIcon;resIcon=mxgraph.aws4.amplify;labelBackgroundColor=none;" vertex="1" parent="15gxBGkXHDmCzy9u11-4-53">
          <mxGeometry x="499" y="910" width="78" height="78" as="geometry" />
        </mxCell>
        <mxCell id="15gxBGkXHDmCzy9u11-4-88" value="" style="endArrow=classic;html=1;rounded=0;fontSize=9;" edge="1" parent="15gxBGkXHDmCzy9u11-4-53">
          <mxGeometry width="50" height="50" relative="1" as="geometry">
            <mxPoint x="199" y="855" as="sourcePoint" />
            <mxPoint x="629" y="855" as="targetPoint" />
          </mxGeometry>
        </mxCell>
        <mxCell id="15gxBGkXHDmCzy9u11-4-89" value="&lt;ul&gt;&lt;li&gt;カード決済&lt;/li&gt;&lt;li&gt;&amp;nbsp; 書籍&lt;/li&gt;&lt;li&gt;&amp;nbsp; 音声配信/CD/DVD&lt;/li&gt;&lt;/ul&gt;" style="text;html=1;align=left;verticalAlign=middle;resizable=0;points=[];autosize=1;strokeColor=none;fillColor=none;" vertex="1" parent="15gxBGkXHDmCzy9u11-4-53">
          <mxGeometry x="94" y="230" width="160" height="70" as="geometry" />
        </mxCell>
        <mxCell id="15gxBGkXHDmCzy9u11-4-90" value="&lt;ul&gt;&lt;li&gt;振込用紙&lt;/li&gt;&lt;/ul&gt;" style="text;html=1;align=center;verticalAlign=middle;resizable=0;points=[];autosize=1;strokeColor=none;fillColor=none;" vertex="1" parent="15gxBGkXHDmCzy9u11-4-53">
          <mxGeometry x="255" y="245" width="100" height="40" as="geometry" />
        </mxCell>
        <mxCell id="15gxBGkXHDmCzy9u11-4-91" value="&lt;ul&gt;&lt;li&gt;致知電子版&lt;/li&gt;&lt;/ul&gt;" style="text;html=1;align=center;verticalAlign=middle;resizable=0;points=[];autosize=1;strokeColor=none;fillColor=none;" vertex="1" parent="15gxBGkXHDmCzy9u11-4-53">
          <mxGeometry x="373" y="245" width="120" height="40" as="geometry" />
        </mxCell>
        <mxCell id="15gxBGkXHDmCzy9u11-4-92" value="&lt;div style=&quot;text-align: left;&quot;&gt;&lt;span style=&quot;background-color: initial;&quot;&gt;・現行のデータベース&lt;/span&gt;&lt;/div&gt;" style="text;html=1;align=center;verticalAlign=middle;resizable=0;points=[];autosize=1;strokeColor=none;fillColor=none;" vertex="1" parent="15gxBGkXHDmCzy9u11-4-53">
          <mxGeometry x="510" y="255" width="130" height="20" as="geometry" />
        </mxCell>
        <mxCell id="15gxBGkXHDmCzy9u11-4-96" value="" style="endArrow=classic;html=1;rounded=0;fontSize=9;" edge="1" parent="15gxBGkXHDmCzy9u11-4-53">
          <mxGeometry width="50" height="50" relative="1" as="geometry">
            <mxPoint x="320" y="620" as="sourcePoint" />
            <mxPoint x="270" y="950" as="targetPoint" />
            <Array as="points">
              <mxPoint x="270" y="660" />
            </Array>
          </mxGeometry>
        </mxCell>
        <mxCell id="15gxBGkXHDmCzy9u11-4-97" value="データ室&lt;br&gt;登録処理" style="rounded=1;whiteSpace=wrap;html=1;labelBackgroundColor=none;fontSize=9;" vertex="1" parent="15gxBGkXHDmCzy9u11-4-53">
          <mxGeometry x="210" y="960" width="120" height="60" as="geometry" />
        </mxCell>
        <mxCell id="15gxBGkXHDmCzy9u11-4-98" value="管理部&lt;br&gt;発送" style="rounded=1;whiteSpace=wrap;html=1;labelBackgroundColor=none;fontSize=9;" vertex="1" parent="15gxBGkXHDmCzy9u11-4-53">
          <mxGeometry x="210" y="1040" width="120" height="60" as="geometry" />
        </mxCell>
        <mxCell id="15gxBGkXHDmCzy9u11-4-99" value="" style="endArrow=classic;html=1;rounded=0;fontSize=9;" edge="1" parent="15gxBGkXHDmCzy9u11-4-53">
          <mxGeometry width="50" height="50" relative="1" as="geometry">
            <mxPoint x="320" y="620" as="sourcePoint" />
            <mxPoint x="320" y="710" as="targetPoint" />
          </mxGeometry>
        </mxCell>
      </root>
    </mxGraphModel>
  </diagram>
</mxfile>
